<svg width="20" height="20" viewBox="0 0 20 20" fill="none" xmlns="http://www.w3.org/2000/svg">
<path d="M10.123 19.8027C15.2988 19.8027 19.5859 15.5156 19.5859 10.3301C19.5859 5.1543 15.2891 0.867188 10.1133 0.867188C4.9375 0.867188 0.650391 5.1543 0.650391 10.3301C0.650391 15.5156 4.94727 19.8027 10.123 19.8027ZM10.0449 7.09766C9.37109 7.09766 8.82422 6.55078 8.82422 5.87695C8.82422 5.18359 9.37109 4.64648 10.0449 4.64648C10.7285 4.64648 11.2656 5.18359 11.2656 5.87695C11.2656 6.55078 10.7285 7.09766 10.0449 7.09766ZM8.49219 15.3984C8.11133 15.3984 7.79883 15.1152 7.79883 14.7148C7.79883 14.3438 8.11133 14.0508 8.49219 14.0508H9.625V9.94922H8.6582C8.26758 9.94922 7.96484 9.66602 7.96484 9.26562C7.96484 8.89453 8.26758 8.60156 8.6582 8.60156H10.4062C10.8848 8.60156 11.1484 8.94336 11.1484 9.46094V14.0508H12.252C12.6426 14.0508 12.9551 14.3438 12.9551 14.7148C12.9551 15.1152 12.6426 15.3984 12.252 15.3984H8.49219Z" fill="white"/>
</svg>
