<svg width="34" height="34" viewBox="0 0 34 34" fill="none" xmlns="http://www.w3.org/2000/svg">
<path d="M20.7 10.0029L18.78 10C16.62 10 15.23 11.4037 15.23 13.5766V15.2254H13.3C13.14 15.2254 13 15.3582 13 15.5219V17.9108C13 18.0745 13.14 18.2063 13.3 18.2063H15.23V24.2348C15.23 24.3985 15.37 24.5312 15.53 24.5312H18.05C18.22 24.5312 18.35 24.3985 18.35 24.2348V18.2063H20.61C20.77 18.2063 20.91 18.0745 20.91 17.9108V15.5219C20.91 15.4424 20.88 15.3678 20.82 15.3117C20.77 15.2564 20.69 15.2254 20.61 15.2254H18.35V13.8275C18.35 13.1552 18.51 12.8142 19.41 12.8142H20.7C20.86 12.8142 21 12.6815 21 12.5178V10.2993C21 10.1356 20.87 10.0029 20.7 10.0029Z" fill="white"/>
<rect opacity="0.3" x="1" y="1" width="32" height="32" rx="16" stroke="white"/>
</svg>
