<svg width="34" height="34" viewBox="0 0 34 34" fill="none" xmlns="http://www.w3.org/2000/svg">
<rect opacity="0.3" x="1" y="1" width="32" height="32" rx="16" stroke="white"/>
<path fill-rule="evenodd" clip-rule="evenodd" d="M25 16.5381C25 15.5201 24.16 14.6921 23.13 14.6921C22.72 14.6921 22.33 14.8251 22.01 15.0661C20.97 14.3511 19.6 13.9241 18.15 13.8161L18.94 12.0001L21.21 12.5261C21.29 13.2231 21.88 13.7691 22.6 13.7691C23.37 13.7691 24 13.1481 24 12.3851C24 11.6211 23.37 11.0001 22.6 11.0001C22.11 11.0001 21.68 11.2501 21.43 11.6281L18.77 11.0121C18.54 10.9611 18.32 11.0751 18.23 11.2811L17.15 13.7911C15.58 13.8451 14.09 14.2821 12.96 15.0421C12.65 14.8171 12.27 14.6921 11.87 14.6921C10.84 14.6921 10 15.5201 10 16.5381C10 17.2131 10.37 17.8231 10.94 18.1361C10.94 18.1769 10.9375 18.2179 10.935 18.2591C10.9325 18.3009 10.93 18.3429 10.93 18.3851C10.93 20.9301 13.86 23.0001 17.47 23.0001C21.07 23.0001 24 20.9301 24 18.3851C24 18.3131 24 18.2421 23.99 18.1701C24.6 17.8641 25 17.2391 25 16.5381ZM22.6 11.9231C22.86 11.9231 23.07 12.1301 23.07 12.3851C23.07 12.6391 22.86 12.8461 22.6 12.8461C22.34 12.8461 22.13 12.6391 22.13 12.3851C22.13 12.1301 22.34 11.9231 22.6 11.9231ZM15.13 17.0001C14.62 17.0001 14.2 17.4141 14.2 17.9231C14.2 18.4331 14.62 18.8461 15.13 18.8461C15.65 18.8461 16.07 18.4331 16.07 17.9231C16.07 17.4141 15.65 17.0001 15.13 17.0001ZM19.62 20.9851C18.98 21.4461 18.22 21.6761 17.47 21.6761C16.71 21.6761 15.96 21.4461 15.31 20.9851C15.1 20.8351 15.06 20.5461 15.21 20.3411C15.36 20.1351 15.65 20.0891 15.86 20.2371C16.82 20.9251 18.11 20.9271 19.08 20.2371C19.28 20.0891 19.57 20.1331 19.73 20.3411C19.88 20.5471 19.83 20.8351 19.62 20.9851ZM18.87 17.9231C18.87 18.4331 19.29 18.8461 19.8 18.8461C20.32 18.8461 20.73 18.4331 20.73 17.9231C20.73 17.4141 20.32 17.0001 19.8 17.0001C19.29 17.0001 18.87 17.4141 18.87 17.9231Z" fill="white"/>
</svg>
