<svg width="110" height="110" viewBox="0 0 110 110" fill="none" xmlns="http://www.w3.org/2000/svg">
<g filter="url(#filter0_d)">
<circle cx="55" cy="51" r="50" fill="url(#paint0_linear)"/>
</g>
<g clip-path="url(#clip0)">
<path d="M41.3822 43.8591C41.9038 43.1946 42.2764 42.3087 42.1646 41.4227C41.3822 41.4596 40.4508 41.9395 39.892 42.5671C39.4076 43.1208 38.9605 44.0436 39.0723 44.8927C39.9665 45.0034 40.8234 44.5235 41.3822 43.8591ZM42.1646 45.1141C40.8979 45.0403 39.8174 45.8155 39.2213 45.8155C38.6252 45.8155 37.6938 45.151 36.6879 45.151C35.3839 45.188 34.1917 45.8893 33.5211 47.0706C32.1798 49.3962 33.1485 52.8292 34.4897 54.7118C35.1231 55.6346 35.9055 56.6682 36.9114 56.6313C37.8801 56.5944 38.2527 56.0038 39.4076 56.0038C40.5626 56.0038 40.8979 56.6313 41.9411 56.5944C42.9843 56.5575 43.6549 55.6716 44.2882 54.7118C45.0334 53.6413 45.3314 52.6077 45.3314 52.5708C45.2942 52.5339 43.2823 51.7956 43.2823 49.5069C43.2451 47.5874 44.8471 46.6645 44.9216 46.6276C44.0647 45.2987 42.6489 45.151 42.1646 45.1141Z" fill="white"/>
<path d="M53.1179 42.4932C55.8749 42.4932 57.775 44.3758 57.775 47.0706C57.775 49.8022 55.8376 51.6848 53.0434 51.6848H50.0256V56.4467H47.8275V42.4932H53.1179ZM50.0256 49.876H52.5218C54.4219 49.876 55.5023 48.8424 55.5023 47.1075C55.5023 45.3356 54.4219 44.3389 52.5218 44.3389H49.9883V49.876H50.0256ZM58.3338 53.6044C58.3338 51.8325 59.7123 50.7251 62.1713 50.5774L65.0028 50.4297V49.6546C65.0028 48.5102 64.2204 47.8458 62.9537 47.8458C61.7242 47.8458 60.9791 48.4364 60.7928 49.3223H58.7809C58.8927 47.4766 60.4947 46.1108 63.0282 46.1108C65.5244 46.1108 67.1264 47.4028 67.1264 49.47V56.4837H65.1145V54.8225H65.0773C64.4812 55.9669 63.1772 56.6682 61.836 56.6682C59.7496 56.6682 58.3338 55.4131 58.3338 53.6044ZM65.0028 52.6815V51.8694L62.4693 52.0171C61.2026 52.0909 60.4947 52.6446 60.4947 53.5305C60.4947 54.4165 61.2398 55.0071 62.3575 55.0071C63.8478 55.0071 65.0028 54.0104 65.0028 52.6815ZM68.9892 60.2489V58.5508C69.1383 58.5878 69.5108 58.5878 69.6599 58.5878C70.6285 58.5878 71.1501 58.1817 71.4854 57.1481C71.4854 57.1112 71.6717 56.5206 71.6717 56.5206L67.946 46.3323H70.2187L72.8267 54.6379H72.8639L75.4719 46.3323H77.7073L73.8699 57.0743C72.9757 59.5475 71.9698 60.3227 69.8461 60.3227C69.6971 60.2858 69.1755 60.2858 68.9892 60.2489Z" fill="white"/>
</g>
<rect x="29.0273" y="24.6027" width="52" height="52" rx="19" stroke="white" stroke-width="2"/>
<defs>
<filter id="filter0_d" x="0" y="0" width="110" height="110" filterUnits="userSpaceOnUse" color-interpolation-filters="sRGB">
<feFlood flood-opacity="0" result="BackgroundImageFix"/>
<feColorMatrix in="SourceAlpha" type="matrix" values="0 0 0 0 0 0 0 0 0 0 0 0 0 0 0 0 0 0 127 0"/>
<feOffset dy="4"/>
<feGaussianBlur stdDeviation="2.5"/>
<feColorMatrix type="matrix" values="0 0 0 0 0.27451 0 0 0 0 0.580392 0 0 0 0 0.85098 0 0 0 0.25 0"/>
<feBlend mode="normal" in2="BackgroundImageFix" result="effect1_dropShadow"/>
<feBlend mode="normal" in="SourceGraphic" in2="effect1_dropShadow" result="shape"/>
</filter>
<linearGradient id="paint0_linear" x1="28.0994" y1="0.999999" x2="119.829" y2="109.214" gradientUnits="userSpaceOnUse">
<stop stop-color="#234A6C"/>
<stop offset="1" stop-color="#4694D9"/>
</linearGradient>
<clipPath id="clip0">
<rect x="32.8874" y="41.4227" width="44.82" height="18.9" fill="white"/>
</clipPath>
</defs>
</svg>
