<svg width="110" height="110" viewBox="0 0 110 110" fill="none" xmlns="http://www.w3.org/2000/svg">
<g filter="url(#filter0_d)">
<circle cx="55" cy="51" r="50" fill="url(#paint0_linear)"/>
</g>
<g clip-path="url(#clip0)">
<path fill-rule="evenodd" clip-rule="evenodd" d="M78.8633 26.345H31.1914C29.4467 26.345 28.0273 27.7644 28.0273 29.5091V63.2589C28.0273 65.0036 29.4467 66.423 31.1914 66.423H48.4032L46.6213 73.55C46.5425 73.8651 46.6133 74.1989 46.8132 74.4549C47.013 74.7109 47.3197 74.8606 47.6445 74.8606H62.4101C62.7349 74.8606 63.0416 74.7109 63.2414 74.4549C63.4414 74.199 63.5121 73.8652 63.4333 73.55L61.6515 66.423H78.8633C80.6079 66.423 82.0273 65.0036 82.0273 63.2589V29.5091C82.0273 27.7644 80.6079 26.345 78.8633 26.345ZM30.1367 32.6732H79.9179H79.918V60.0947H79.9179H30.1368H30.1367V32.6732ZM31.1914 28.4544H78.8633C79.4448 28.4544 79.918 28.9275 79.918 29.5091V30.5639H79.9179H30.1368H30.1367V29.5091C30.1367 28.9275 30.6098 28.4544 31.1914 28.4544ZM61.0593 72.7511H48.9953L50.5774 66.423H59.4773L61.0593 72.7511ZM78.8633 64.3136H31.1914C30.6098 64.3136 30.1367 63.8405 30.1367 63.2589V62.2041H30.1368H79.9179H79.918V63.2589C79.918 63.8405 79.4448 64.3136 78.8633 64.3136Z" fill="white"/>
<path fill-rule="evenodd" clip-rule="evenodd" d="M36.1561 50.29L42.9592 43.4171L46.4965 46.9907C46.906 47.4025 47.572 47.4043 47.9838 46.9948L55.4494 39.4526V40.3065C55.4494 40.889 55.9216 41.3612 56.5041 41.3612C57.0866 41.3612 57.5588 40.889 57.5588 40.3065V36.8922C57.5588 36.3096 57.0866 35.8375 56.5041 35.8375H53.0898C52.5073 35.8375 52.0351 36.3096 52.0351 36.8922C52.0351 37.4747 52.5073 37.9468 53.0898 37.9468H53.9805L47.2423 44.7542L43.7008 41.1765C43.289 40.767 42.623 40.7688 42.2135 41.1806L34.6648 48.8068C34.2553 49.2187 34.2571 49.8846 34.6689 50.2942C35.0807 50.7036 35.7466 50.7017 36.1561 50.29Z" fill="white"/>
<path fill-rule="evenodd" clip-rule="evenodd" d="M62.8324 43.2198H74.6446C75.227 43.2198 75.6992 42.7477 75.6992 42.1652C75.6992 41.5827 75.227 41.1105 74.6446 41.1105H62.8324C62.2499 41.1105 61.7777 41.5827 61.7777 42.1652C61.7777 42.7477 62.2499 43.2198 62.8324 43.2198Z" fill="white"/>
<path fill-rule="evenodd" clip-rule="evenodd" d="M62.8324 51.6574H68.7385C69.321 51.6574 69.7932 51.1852 69.7932 50.6027C69.7932 50.0202 69.321 49.548 68.7385 49.548H62.8324C62.2499 49.548 61.7777 50.0202 61.7777 50.6027C61.7777 51.1851 62.2499 51.6574 62.8324 51.6574Z" fill="white"/>
<path fill-rule="evenodd" clip-rule="evenodd" d="M62.8324 47.4387H74.6446C75.227 47.4387 75.6992 46.9665 75.6992 46.384C75.6992 45.8015 75.227 45.3293 74.6446 45.3293H62.8324C62.2499 45.3293 61.7777 45.8016 61.7777 46.384C61.7777 46.9664 62.2499 47.4387 62.8324 47.4387Z" fill="white"/>
<path fill-rule="evenodd" clip-rule="evenodd" d="M55.9768 53.767H35.9377C35.064 53.767 34.3557 54.4754 34.3557 55.3491C34.3557 56.2228 35.064 56.9311 35.9377 56.9311H55.9768C56.8505 56.9311 57.5589 56.2228 57.5589 55.3491C57.5589 54.4753 56.8505 53.767 55.9768 53.767Z" fill="white"/>
</g>
<defs>
<filter id="filter0_d" x="0" y="0" width="110" height="110" filterUnits="userSpaceOnUse" color-interpolation-filters="sRGB">
<feFlood flood-opacity="0" result="BackgroundImageFix"/>
<feColorMatrix in="SourceAlpha" type="matrix" values="0 0 0 0 0 0 0 0 0 0 0 0 0 0 0 0 0 0 127 0"/>
<feOffset dy="4"/>
<feGaussianBlur stdDeviation="2.5"/>
<feColorMatrix type="matrix" values="0 0 0 0 0.27451 0 0 0 0 0.580392 0 0 0 0 0.85098 0 0 0 0.25 0"/>
<feBlend mode="normal" in2="BackgroundImageFix" result="effect1_dropShadow"/>
<feBlend mode="normal" in="SourceGraphic" in2="effect1_dropShadow" result="shape"/>
</filter>
<linearGradient id="paint0_linear" x1="28.0994" y1="0.999999" x2="119.829" y2="109.214" gradientUnits="userSpaceOnUse">
<stop stop-color="#234A6C"/>
<stop offset="1" stop-color="#4694D9"/>
</linearGradient>
<clipPath id="clip0">
<path d="M28.0273 23.6027H82.0273V77.6027H28.0273V23.6027Z" fill="white"/>
</clipPath>
</defs>
</svg>
