<svg width="110" height="110" viewBox="0 0 110 110" fill="none" xmlns="http://www.w3.org/2000/svg">
<g filter="url(#filter0_d)">
<circle cx="55" cy="51" r="50" fill="url(#paint0_linear)"/>
</g>
<g clip-path="url(#clip0)">
<path d="M64.3086 29.509H65.9961V31.1965H62.6211V32.884H65.9961V37.9465H64.3086V39.634H62.6211V37.9465H60.9336V36.259H64.3086V34.5715H60.9336V29.509H62.6211V27.8215H64.3086V29.509ZM81.1836 26.134V41.3215C81.1836 42.2521 80.4268 43.009 79.4961 43.009H65.5017L71.6551 49.1624C72.3917 49.899 72.7976 50.8778 72.7976 51.9198C72.7976 52.9618 72.3917 53.9414 71.6551 54.6772L62.476 63.8555C61.7402 64.5921 60.7606 64.9979 59.7186 64.9979C58.6774 64.9979 57.6978 64.5929 56.9612 63.8555L51.6777 58.5719C50.3403 60.3261 48.3938 61.7495 46.5831 63.07C46.2726 63.2969 45.968 63.5205 45.6651 63.745L43.8667 72.7393C43.3994 75.0765 41.3472 76.759 38.9637 76.759H28.8711V70.6891C28.8711 68.4185 29.6438 66.2156 31.0621 64.4425L35.5907 58.7812L34.8356 51.2271C34.7968 50.8398 34.7773 50.4466 34.7773 50.0585C34.7773 46.9198 35.9999 43.9683 38.2198 41.7484L45.7461 34.2222V26.134C45.7461 25.2033 46.5029 24.4465 47.4336 24.4465H79.4961C80.4268 24.4465 81.1836 25.2033 81.1836 26.134ZM63.7973 41.3046C67.8296 41.1291 71.0586 37.8022 71.0586 33.7277C71.0586 29.541 67.6515 26.134 63.4648 26.134C59.2782 26.134 55.8711 29.541 55.8711 33.7277V33.9538C56.4246 34.1437 56.9368 34.4441 57.3628 34.8702L63.7973 41.3046ZM47.4336 26.134V39.1623C47.5188 39.1176 47.5998 39.0661 47.6884 39.029L51.8481 34.8693C52.4834 34.234 53.3027 33.8636 54.1836 33.7682V33.7277C54.1836 30.589 55.7538 27.8147 58.145 26.134H47.4336ZM67.3123 56.6322L68.6505 55.294L51.2305 37.8739L50.2011 38.9033C50.7335 39.0315 51.2684 39.3066 51.7663 39.9208C52.194 40.4482 52.4649 41.1249 52.5577 41.8775L67.3123 56.6322ZM45.7461 43.7262L44.6847 45.0534C44.2805 45.5579 44.0586 46.1916 44.0586 46.8379C44.0586 47.4522 44.2611 48.0605 44.6298 48.5516L45.6229 49.8763C45.6955 49.5759 45.7461 49.2603 45.7461 48.9152V43.7262ZM43.9489 63.7256L36.6977 60.1L32.7499 65.0347C31.3314 66.8079 30.5586 69.011 30.5586 71.2817V75.0715H37.5804C39.9637 75.0715 42.0157 73.3893 42.4832 71.0523L43.9489 63.7256ZM51.6523 53.9777C51.6523 49.7008 51.1216 44.2687 50.893 42.1315C50.8432 41.6725 50.693 41.2759 50.4559 40.984C50.0636 40.5005 49.7657 40.4777 48.884 40.4777C48.0841 40.4777 47.4336 41.1283 47.4336 41.9281V48.9152C47.4336 51.8962 45.3521 53.9777 42.3711 53.9777V52.2902C43.333 52.2902 44.1269 51.989 44.7074 51.4676L43.2798 49.5641C42.6934 48.7828 42.3711 47.815 42.3711 46.8379C42.3711 45.8102 42.7246 44.8019 43.3667 43.9995L45.7461 41.0253V36.6083L39.4129 42.9415C37.5119 44.8424 36.4648 47.3703 36.4648 50.0585C36.4648 50.3926 36.4817 50.7276 36.5146 51.0609L37.258 58.4943L44.818 62.2743C45.0736 62.0853 45.3284 61.8972 45.5883 61.7073C48.5701 59.5321 51.6523 57.2844 51.6523 53.9777ZM66.1193 57.8252L52.8252 44.5311C53.0361 46.843 53.2698 49.9471 53.3263 52.7712L56.4676 55.9124L55.2746 57.1055L53.2437 55.0746C53.1281 55.7968 52.9045 56.4693 52.594 57.1004L58.1551 62.6616C58.9845 63.491 60.4543 63.4902 61.2829 62.6616L66.1193 57.8252ZM70.4621 50.3555L56.1698 36.0632C55.3345 35.2279 53.8773 35.2279 53.042 36.0632L52.4235 36.6808L69.8436 54.1009L70.4612 53.4833C70.873 53.0715 71.1092 52.502 71.1092 51.919C71.1101 51.3283 70.8797 50.7732 70.4621 50.3555ZM79.4961 26.134H68.7847C71.1759 27.8147 72.7461 30.589 72.7461 33.7277C72.7461 36.8665 71.1759 39.6407 68.7847 41.3215H79.4961V26.134ZM76.1211 31.1965H77.8086V27.8215H74.4336V29.509H76.1211V31.1965ZM77.8086 36.259H76.1211V37.9465H74.4336V39.634H77.8086V36.259ZM50.8086 29.509H52.4961V27.8215H49.1211V31.1965H50.8086V29.509ZM63.8142 58.1965L60.0898 61.9208L56.3655 58.1965L60.0898 54.4722L63.8142 58.1965ZM60.0898 59.5347L61.428 58.1965L60.0898 56.8583L58.7517 58.1965L60.0898 59.5347ZM58.9989 53.3812L55.6239 50.0062L54.4308 51.1993L57.8058 54.5743L58.9989 53.3812Z" fill="white"/>
</g>
<defs>
<filter id="filter0_d" x="0" y="0" width="110" height="110" filterUnits="userSpaceOnUse" color-interpolation-filters="sRGB">
<feFlood flood-opacity="0" result="BackgroundImageFix"/>
<feColorMatrix in="SourceAlpha" type="matrix" values="0 0 0 0 0 0 0 0 0 0 0 0 0 0 0 0 0 0 127 0"/>
<feOffset dy="4"/>
<feGaussianBlur stdDeviation="2.5"/>
<feColorMatrix type="matrix" values="0 0 0 0 0.27451 0 0 0 0 0.580392 0 0 0 0 0.85098 0 0 0 0.25 0"/>
<feBlend mode="normal" in2="BackgroundImageFix" result="effect1_dropShadow"/>
<feBlend mode="normal" in="SourceGraphic" in2="effect1_dropShadow" result="shape"/>
</filter>
<linearGradient id="paint0_linear" x1="28.0994" y1="0.999999" x2="119.829" y2="109.214" gradientUnits="userSpaceOnUse">
<stop stop-color="#234A6C"/>
<stop offset="1" stop-color="#4694D9"/>
</linearGradient>
<clipPath id="clip0">
<path d="M28.0273 23.6027H82.0273V77.6027H28.0273V23.6027Z" fill="white"/>
</clipPath>
</defs>
</svg>
