<svg width="110" height="110" viewBox="0 0 110 110" fill="none" xmlns="http://www.w3.org/2000/svg">
<g filter="url(#filter0_d)">
<circle cx="55" cy="51" r="50" fill="url(#paint0_linear)"/>
</g>
<g clip-path="url(#clip0)">
<path d="M38.1523 51.4465H36.4648V49.759H39.8398V57.3527C39.8398 60.6096 42.4901 63.259 45.7461 63.259C49.0021 63.259 51.6523 60.6096 51.6523 57.3527V49.759H55.0273V51.4465H53.3398V57.3527C53.3398 61.5394 49.9336 64.9465 45.7461 64.9465C41.5586 64.9465 38.1523 61.5394 38.1523 57.3527V51.4465ZM28.8711 71.6965C28.8711 63.9399 30.5434 40.6515 30.5611 40.417C30.6092 39.0686 31.7441 37.9465 33.0898 37.9465H34.2787L33.9387 32.7464C33.8577 31.372 34.8609 30.1932 36.221 30.0566L49.9463 28.6779C51.2938 28.5412 52.5214 29.4963 52.7138 30.8531L53.1989 34.3453L54.5616 34.4171L58.4817 25.9973C59.0048 24.7443 60.4408 24.1208 61.7377 24.6118L79.5138 31.2083C80.1728 31.4572 80.6875 31.9474 80.9676 32.5912C81.2494 33.2383 81.2578 33.953 80.9904 34.6061L70.2781 60.8155C70.0123 61.4668 69.5061 61.9706 68.8547 62.2313C68.5459 62.3545 68.2236 62.4169 67.9021 62.4169C67.5469 62.4169 67.1925 62.3418 66.8584 62.1925L62.1958 60.4231C62.4397 64.9591 62.6211 69.1804 62.6211 71.6965C62.6211 74.5348 60.1801 76.759 57.0642 76.759H34.428C31.3121 76.759 28.8711 74.5348 28.8711 71.6965ZM41.4109 35.4152L39.9799 44.6965H55.0999L55.8711 36.1729L41.4109 35.4152ZM56.795 44.6965H59.5363C59.3684 42.215 59.2528 40.5992 59.2486 40.5385C59.2292 40.0347 58.8428 39.634 58.4023 39.634H57.2523L56.795 44.6965ZM61.0163 41.6311L67.2837 28.4695L64.6166 27.4797L59.6232 38.2882C60.3708 38.7202 60.899 39.5209 60.9328 40.4473C60.9344 40.4743 60.9657 40.9021 61.0163 41.6311ZM78.9223 32.7886L68.8724 29.0592L61.2517 45.0626C61.4896 48.587 61.8187 53.6546 62.0946 58.5787L67.5022 60.6324C67.7646 60.7488 68.0076 60.753 68.2253 60.6644C68.4497 60.575 68.6227 60.4012 68.7147 60.1767L79.4286 33.9673C79.5214 33.7395 79.5189 33.4906 79.421 33.2653C79.324 33.0426 79.1468 32.8738 78.9223 32.7886ZM56.3537 34.5639C56.6558 34.6541 56.9292 34.8237 57.1426 35.0676C57.4455 35.4161 57.5915 35.8599 57.5518 36.3197L57.405 37.9465H57.9214L63.0286 26.8908L61.1454 26.1922C60.6982 26.0234 60.208 26.2386 60.024 26.679L56.3537 34.5639ZM35.6228 32.6418L36.4117 44.6965H38.2722L39.7403 35.1612C39.8728 34.2998 40.6347 33.6779 41.5003 33.7302L51.4836 34.255L51.0432 31.0876C50.9782 30.6337 50.5783 30.3131 50.115 30.3569L36.3889 31.7356C35.9324 31.7812 35.5958 32.1794 35.6228 32.6418ZM32.2453 40.5081C32.2402 40.5764 32.1238 42.2032 31.955 44.6965H34.7208L34.3892 39.634H33.0898C32.6494 39.634 32.263 40.0347 32.2453 40.5081ZM30.5586 71.6965C30.5586 73.8885 32.5515 75.0715 34.428 75.0715H57.0642C58.9407 75.0715 60.9336 73.8885 60.9336 71.6965C60.9336 66.488 60.1481 53.868 59.6494 46.384H31.8411C31.3424 53.857 30.5586 66.4222 30.5586 71.6965ZM66.893 51.1503L68.4733 51.7426L71.0046 44.9926L69.4242 44.4003L66.893 51.1503ZM64.3685 57.0388L65.9353 57.6657L67.6228 53.447L66.056 52.8201L64.3685 57.0388ZM70.2148 38.7902C70.2148 37.6233 71.0122 36.6479 72.088 36.3568C71.9707 36.0649 71.9023 35.7485 71.9023 35.4152C71.9023 34.0196 73.038 32.884 74.4336 32.884C75.8292 32.884 76.9648 34.0196 76.9648 35.4152C76.9648 36.5821 76.1675 37.5566 75.0917 37.8486C75.209 38.1405 75.2773 38.4569 75.2773 38.7902C75.2773 40.1858 74.1417 41.3215 72.7461 41.3215C71.3505 41.3215 70.2148 40.1858 70.2148 38.7902ZM73.5898 35.4152C73.5898 35.8801 73.9678 36.259 74.4336 36.259C74.8993 36.259 75.2773 35.8801 75.2773 35.4152C75.2773 34.9503 74.8993 34.5715 74.4336 34.5715C73.9678 34.5715 73.5898 34.9503 73.5898 35.4152ZM71.9023 38.7902C71.9023 39.2551 72.2803 39.634 72.7461 39.634C73.2118 39.634 73.5898 39.2551 73.5898 38.7902C73.5898 38.3253 73.2118 37.9465 72.7461 37.9465C72.2803 37.9465 71.9023 38.3253 71.9023 38.7902Z" fill="white"/>
</g>
<defs>
<filter id="filter0_d" x="0" y="0" width="110" height="110" filterUnits="userSpaceOnUse" color-interpolation-filters="sRGB">
<feFlood flood-opacity="0" result="BackgroundImageFix"/>
<feColorMatrix in="SourceAlpha" type="matrix" values="0 0 0 0 0 0 0 0 0 0 0 0 0 0 0 0 0 0 127 0"/>
<feOffset dy="4"/>
<feGaussianBlur stdDeviation="2.5"/>
<feColorMatrix type="matrix" values="0 0 0 0 0.27451 0 0 0 0 0.580392 0 0 0 0 0.85098 0 0 0 0.25 0"/>
<feBlend mode="normal" in2="BackgroundImageFix" result="effect1_dropShadow"/>
<feBlend mode="normal" in="SourceGraphic" in2="effect1_dropShadow" result="shape"/>
</filter>
<linearGradient id="paint0_linear" x1="28.0994" y1="0.999999" x2="119.829" y2="109.214" gradientUnits="userSpaceOnUse">
<stop stop-color="#234A6C"/>
<stop offset="1" stop-color="#4694D9"/>
</linearGradient>
<clipPath id="clip0">
<path d="M28.0273 23.6027H82.0273V77.6027H28.0273V23.6027Z" fill="white"/>
</clipPath>
</defs>
</svg>
