<svg width="34" height="34" viewBox="0 0 34 34" fill="none" xmlns="http://www.w3.org/2000/svg">
<rect opacity="0.3" x="1" y="1" width="32" height="32" rx="16" stroke="white"/>
<path fill-rule="evenodd" clip-rule="evenodd" d="M22.6737 13.0718C22.8211 13.4516 22.924 13.8899 22.952 14.5273C22.9801 15.1672 22.9824 15.3711 22.9824 17C22.9824 18.6289 22.9754 18.8328 22.9474 19.4727C22.9193 20.1101 22.8163 20.5461 22.669 20.9282C22.3579 21.7344 21.7217 22.3719 20.9169 22.6836C20.538 22.8313 20.1006 22.9344 19.4644 22.9625C18.8257 22.9907 18.6222 22.9976 16.9965 22.9976C15.3708 22.9976 15.1672 22.9907 14.5287 22.9625C13.8924 22.9344 13.4573 22.8313 13.076 22.6836C12.6784 22.5336 12.3158 22.2969 12.0163 21.9922C11.7123 21.6922 11.476 21.3313 11.324 20.9282C11.1766 20.5484 11.0736 20.1101 11.0456 19.4727C11.0175 18.8328 11.0105 18.6289 11.0105 17C11.0105 15.3711 11.0175 15.1672 11.048 14.525C11.076 13.8875 11.1789 13.4516 11.3263 13.0695C11.476 12.6711 11.7123 12.3078 12.0163 12.0078C12.3158 11.7007 12.676 11.4664 13.0784 11.314C13.4573 11.1664 13.8947 11.0633 14.531 11.0352C15.1696 11.007 15.3731 11 16.9988 11C18.6245 11 18.828 11.007 19.469 11.0375C20.1053 11.0656 20.5404 11.1687 20.9216 11.3164C21.3193 11.4664 21.6818 11.7031 21.9813 12.0078C22.2877 12.3078 22.5216 12.6687 22.6737 13.0718ZM21.6678 20.5391C21.7497 20.3281 21.8479 20.0117 21.8737 19.4258C21.9018 18.793 21.9088 18.6055 21.9088 17.0047C21.9088 15.4039 21.9018 15.2141 21.8737 14.5813C21.8479 13.9976 21.7497 13.6789 21.6678 13.468C21.5719 13.2078 21.4199 12.9734 21.221 12.7789C21.0292 12.5797 20.7929 12.4273 20.5333 12.3313C20.3228 12.2492 20.007 12.1508 19.4222 12.125C18.7929 12.0969 18.6035 12.0898 17.0035 12.0898C15.4059 12.0898 15.2164 12.0969 14.5848 12.125C14.0024 12.1508 13.6842 12.2492 13.4737 12.3313C13.214 12.4273 12.9801 12.5797 12.786 12.7789C12.5848 12.9711 12.4327 13.2078 12.3368 13.468C12.2549 13.6789 12.1567 13.9953 12.131 14.5813C12.1029 15.2117 12.0959 15.4039 12.0959 17.0047C12.0959 18.6055 12.1029 18.7953 12.131 19.4282C12.1567 20.0117 12.2549 20.3305 12.3368 20.5414C12.4327 20.8015 12.5848 21.0359 12.7836 21.2305C12.9754 21.4297 13.2117 21.582 13.4713 21.6782C13.6818 21.7602 13.9976 21.8586 14.5824 21.8843C15.2117 21.9125 15.4035 21.9195 17.0012 21.9195C18.5989 21.9195 18.7883 21.9125 19.4199 21.8843C20.0024 21.8586 20.3204 21.7602 20.531 21.6782C21.0526 21.4766 21.4666 21.0617 21.6678 20.5391Z" fill="white"/>
<path fill-rule="evenodd" clip-rule="evenodd" d="M13.9227 17C13.9227 15.2984 15.3006 13.918 16.9988 13.918C18.697 13.918 20.0748 15.2984 20.0748 17C20.0748 18.7016 18.697 20.082 16.9988 20.082C15.3006 20.082 13.9227 18.7016 13.9227 17ZM15.0034 17C15.0034 18.1039 15.8971 18.9992 16.9988 18.9992C18.1005 18.9992 18.9941 18.1039 18.9941 17C18.9941 15.8961 18.1005 15.0008 16.9988 15.0008C15.8971 15.0008 15.0034 15.8961 15.0034 17Z" fill="white"/>
<path d="M20.9147 13.7962C20.9147 14.1935 20.5932 14.5157 20.1965 14.5157C19.7999 14.5157 19.4784 14.1935 19.4784 13.7962C19.4784 13.3987 19.7999 13.0767 20.1965 13.0767C20.5932 13.0767 20.9147 13.3987 20.9147 13.7962Z" fill="white"/>
</svg>
