<svg width="34" height="34" viewBox="0 0 34 34" fill="none" xmlns="http://www.w3.org/2000/svg">
<rect opacity="0.3" x="1" y="1" width="32" height="32" rx="16" stroke="white"/>
<path fill-rule="evenodd" clip-rule="evenodd" d="M20.7818 18.2138C20.5402 18.0794 20.4074 17.7648 20.4074 17.3272V16.018C20.4074 15.3859 20.1537 14.936 19.7295 14.8145C19.0106 14.6082 18.4699 15.4748 18.2667 15.8003L16.9988 17.8257V15.3501C16.9846 14.7806 16.7968 14.4399 16.4403 14.3372C16.2044 14.2693 15.8515 14.2965 15.5087 14.8134L12.6681 19.3072C12.2878 18.5959 12.0895 17.8039 12.0906 17C12.0906 14.293 14.2925 12.0908 16.9988 12.0908C19.7052 12.0908 21.9068 14.293 21.9068 17C21.9068 17.0047 21.908 17.0088 21.9083 17.0132C21.9083 17.0179 21.9074 17.022 21.9077 17.0266C21.9332 17.5508 21.7609 17.9679 21.4344 18.171C21.222 18.303 20.9719 18.3194 20.7818 18.2138ZM22.9973 16.9865L22.997 16.9731C22.9819 13.6763 20.2972 11 16.9985 11C13.6912 11 11 13.6915 11 17C11 20.3082 13.6912 23 16.9988 23C18.5166 23 19.9651 22.4316 21.0771 21.3999C21.2981 21.195 21.3111 20.85 21.1062 20.6293C21.0087 20.5234 20.8721 20.4606 20.7271 20.4551C20.5821 20.4496 20.441 20.5018 20.3356 20.6C19.4343 21.4409 18.2401 21.9094 16.9988 21.9092C15.5497 21.9092 14.2458 21.2773 13.3466 20.2751L15.9083 16.2226V18.0908C15.9083 18.9882 16.2615 19.2782 16.5577 19.3631C16.8541 19.448 17.3072 19.39 17.7828 18.6291L19.1918 16.3786C19.237 16.306 19.2786 16.2434 19.3166 16.1893V17.3272C19.3166 18.166 19.6576 18.8369 20.2521 19.1673C20.788 19.4653 21.4618 19.4383 22.0108 19.0971C22.6762 18.6829 23.0348 17.9199 22.9973 17.0003V16.9865Z" fill="white"/>
</svg>
