<svg width="105" height="57" viewBox="0 0 105 57" fill="none" xmlns="http://www.w3.org/2000/svg">
<path d="M25.3762 25.6782C25.7129 25.6851 26.0432 25.7718 26.3398 25.931C26.6364 26.0902 26.8908 26.3174 27.0821 26.5938L28.7486 25.1091C28.3619 24.6057 27.8542 24.2076 27.2723 23.9515C26.6309 23.6746 25.9372 23.5386 25.2384 23.5525C24.4635 23.5394 23.6973 23.7169 23.0076 24.0692C22.3614 24.3985 21.8205 24.9015 21.446 25.5212C21.0765 26.1631 20.8821 26.8904 20.8821 27.6305C20.8821 28.3706 21.0765 29.0979 21.446 29.7398C21.8205 30.3595 22.3614 30.8625 23.0076 31.1918C23.6984 31.5411 24.4638 31.7184 25.2384 31.7085C25.9377 31.7204 26.6314 31.5821 27.2723 31.303C27.8569 31.0514 28.3656 30.6524 28.7486 30.1453L27.0821 28.6672C26.8905 28.9428 26.6359 29.169 26.3392 29.3271C26.0426 29.4852 25.7125 29.5706 25.3762 29.5763C25.1331 29.5835 24.8912 29.5408 24.6654 29.4508C24.4397 29.3608 24.2349 29.2254 24.0639 29.0531C23.7374 28.6504 23.5593 28.1483 23.5593 27.6305C23.5593 27.1127 23.7374 26.6106 24.0639 26.2079C24.2336 26.0335 24.438 25.8962 24.664 25.805C24.8899 25.7138 25.1325 25.6706 25.3762 25.6782Z" fill="#B2947B"/>
<path d="M36.4645 28.137C36.7197 27.6719 36.8485 27.1484 36.8381 26.6183C36.8278 26.0883 36.6786 25.5701 36.4054 25.1153C36.1033 24.6596 35.6715 24.3043 35.1654 24.095C34.568 23.8434 33.924 23.7208 33.2757 23.7352H29.5359V31.5315H32.1603V29.5694H32.8755L34.1877 31.5315H37.0025L35.3622 29.1246C35.8136 28.9025 36.1949 28.5608 36.4645 28.137ZM33.9122 27.3521C33.6839 27.5275 33.3992 27.6135 33.1117 27.5941H32.1603V25.7628H33.1248C33.4127 25.7403 33.6985 25.8267 33.9253 26.0048C34.0139 26.0887 34.0837 26.1904 34.13 26.3031C34.1764 26.4159 34.1983 26.5371 34.1943 26.6589C34.201 26.787 34.1792 26.915 34.1304 27.0337C34.0816 27.1525 34.0071 27.259 33.9122 27.3456V27.3521Z" fill="#B2947B"/>
<path d="M44.2068 24.0749C43.4998 23.7305 42.7234 23.5515 41.9366 23.5515C41.1498 23.5515 40.3734 23.7305 39.6664 24.0749C39.1801 24.332 38.751 24.6848 38.4052 25.1118C38.0594 25.5388 37.804 26.0312 37.6543 26.5593C37.5047 27.0875 37.464 27.6403 37.5347 28.1846C37.6054 28.7288 37.7859 29.2532 38.0655 29.7259C38.4467 30.3466 38.9913 30.8511 39.6402 31.1845C40.3471 31.5289 41.1235 31.7079 41.9104 31.7079C42.6972 31.7079 43.4736 31.5289 44.1805 31.1845C44.8294 30.8511 45.3741 30.3466 45.7552 29.7259C46.0453 29.2573 46.2352 28.7339 46.3128 28.1887C46.3905 27.6434 46.3542 27.0881 46.2064 26.5575C46.0585 26.0269 45.8022 25.5324 45.4536 25.1052C45.105 24.678 44.6716 24.3272 44.1805 24.0749H44.2068ZM43.4588 28.6533C43.3028 28.9259 43.0762 29.1518 42.8027 29.3073C42.5322 29.4651 42.2237 29.5465 41.9104 29.5428C41.599 29.5474 41.2924 29.4659 41.0246 29.3073C40.7497 29.1537 40.5226 28.9273 40.3685 28.6533C40.2132 28.3319 40.1326 27.9798 40.1326 27.6232C40.1326 27.2665 40.2132 26.9144 40.3685 26.593C40.521 26.3177 40.7484 26.091 41.0246 25.939C41.2906 25.7755 41.598 25.6915 41.9104 25.697C42.2247 25.6925 42.5339 25.7763 42.8027 25.939C43.0774 26.0929 43.3044 26.3192 43.4588 26.593C43.614 26.9144 43.6946 27.2665 43.6946 27.6232C43.6946 27.9798 43.614 28.3319 43.4588 28.6533Z" fill="#B2947B"/>
<path d="M51.4958 25.6771C51.8325 25.6846 52.1626 25.7715 52.4591 25.9306C52.7556 26.0898 53.0101 26.3167 53.2017 26.5928L54.8682 25.1081C54.4815 24.6047 53.9738 24.2065 53.392 23.9504C52.7503 23.6742 52.0568 23.5381 51.358 23.5514C50.5831 23.5384 49.8169 23.7158 49.1272 24.0681C48.4796 24.3954 47.9382 24.8988 47.5657 25.5201C47.1961 26.1621 47.0017 26.8893 47.0017 27.6294C47.0017 28.3696 47.1961 29.0968 47.5657 29.7388C47.9382 30.36 48.4796 30.8635 49.1272 31.1908C49.818 31.54 50.5835 31.7173 51.358 31.7075C52.0573 31.7187 52.7508 31.5804 53.392 31.3019C53.9765 31.0503 54.4853 30.6514 54.8682 30.1443L53.2017 28.6661C53.0097 28.9414 52.755 29.1673 52.4585 29.3253C52.1619 29.4834 51.832 29.569 51.4958 29.5752C51.2527 29.5825 51.0108 29.5397 50.7851 29.4497C50.5593 29.3597 50.3545 29.2243 50.1836 29.052C49.8571 28.6493 49.6789 28.1472 49.6789 27.6294C49.6789 27.1117 49.8571 26.6096 50.1836 26.2069C50.3533 26.0324 50.5576 25.8952 50.7836 25.804C51.0095 25.7127 51.2521 25.6695 51.4958 25.6771Z" fill="#B2947B"/>
<path d="M61.8299 24.0758C61.1241 23.7315 60.3488 23.5525 59.563 23.5525C58.7773 23.5525 58.0019 23.7315 57.2962 24.0758C56.812 24.3352 56.3855 24.6896 56.0423 25.1176C55.6991 25.5456 55.4464 26.0384 55.2993 26.5664C55.1522 27.0943 55.1137 27.6465 55.1863 28.1896C55.2588 28.7327 55.4409 29.2556 55.7215 29.7268C56.1026 30.3474 56.6473 30.8519 57.2962 31.1853C58.0019 31.5296 58.7773 31.7086 59.563 31.7086C60.3488 31.7086 61.1241 31.5296 61.8299 31.1853C62.4855 30.8515 63.034 30.3412 63.4133 29.7123C63.7925 29.0833 63.9873 28.361 63.9754 27.6273C63.9864 26.8867 63.7911 26.1577 63.4111 25.5212C63.0285 24.9028 62.4811 24.4024 61.8299 24.0758ZM61.0819 28.6541C60.9259 28.9268 60.6993 29.1527 60.4258 29.3082C60.1581 29.4667 59.8515 29.5482 59.5401 29.5437C59.2266 29.5481 58.918 29.4666 58.6478 29.3082C58.3743 29.1527 58.1477 28.9268 57.9916 28.6541C57.8364 28.3328 57.7558 27.9807 57.7558 27.624C57.7558 27.2673 57.8364 26.9152 57.9916 26.5939C58.1461 26.32 58.373 26.0938 58.6478 25.9398C58.9162 25.7765 59.2256 25.6926 59.5401 25.6978C59.8525 25.6924 60.1599 25.7764 60.4258 25.9398C60.7005 26.0938 60.9275 26.32 61.0819 26.5939C61.2372 26.9152 61.3178 27.2673 61.3178 27.624C61.3178 27.9807 61.2372 28.3328 61.0819 28.6541Z" fill="#B2947B"/>
<path d="M72.0062 26.7508C72.1906 26.4569 72.2863 26.1163 72.2817 25.7697C72.2855 25.4749 72.2139 25.184 72.0739 24.9243C71.9339 24.6646 71.73 24.4446 71.4813 24.285C70.767 23.8694 69.9446 23.6758 69.1193 23.7291H64.9661V31.5319H69.3686C70.226 31.5844 71.0803 31.3891 71.829 30.9694C72.0968 30.801 72.3157 30.5657 72.4642 30.2869C72.6126 30.0081 72.6854 29.6955 72.6754 29.3801C72.6887 28.9536 72.5543 28.5356 72.2949 28.1963C72.006 27.8586 71.6255 27.6111 71.1992 27.4833C71.5321 27.3199 71.8118 27.0659 72.0062 26.7508ZM67.5315 25.567H68.7584C69.3358 25.567 69.6245 25.7632 69.6245 26.1491C69.6245 26.535 69.3358 26.7246 68.7584 26.7246H67.5315V25.567ZM69.1193 29.6875H67.5315V28.4644H69.1193C69.7032 28.4644 69.9919 28.6672 69.9919 29.0792C69.9919 29.4913 69.7032 29.6875 69.1193 29.6875Z" fill="#B2947B"/>
<path d="M76.2189 23.7282H73.5808V31.5245H76.2189V23.7282Z" fill="#B2947B"/>
<path d="M81.8285 31.5311V25.7689H84.1184V23.7282H76.9011V25.7689H79.191V31.5311H81.8285Z" fill="#B2947B"/>
<path d="M102.726 37.9084C102.837 37.673 102.949 37.431 103.047 37.189C104.961 32.6897 105.483 27.7234 104.548 22.9262C103.613 18.129 101.263 13.7193 97.7983 10.2616C97.3849 9.8496 96.9584 9.45062 96.5188 9.07127C98.4756 11.9853 99.6014 15.3746 99.7759 18.8769C99.9504 22.3792 99.1671 25.863 97.5096 28.956C95.8521 32.049 93.3828 34.6349 90.3654 36.4375C87.3481 38.2401 83.8961 39.1917 80.3784 39.1904H80.0569C76.1922 39.188 72.4356 40.4619 69.3742 42.8132C66.3127 45.1645 64.119 48.4606 63.1357 52.1864H80.3522C83.6495 52.1818 86.9119 51.5144 89.9446 50.2243C90.7309 49.8933 91.4995 49.5222 92.2475 49.1124C92.501 49.9909 93.0343 50.7634 93.767 51.3133C94.4996 51.8631 95.3918 52.1604 96.3089 52.1603H100.902C101.148 52.1585 101.394 52.1367 101.637 52.0948C100.55 51.468 99.6841 50.5225 99.1564 49.3871C100.426 49.2367 101.625 48.7223 102.607 47.9062C103.59 47.0901 104.313 46.0074 104.69 44.7894C105.068 43.5715 105.082 42.2705 104.732 41.0445C104.382 39.8185 103.683 38.72 102.719 37.8823L102.726 37.9084Z" fill="#B2947B"/>
<path d="M6.11098 41.6606L5.55654 42.2922L6.37622 42.478C6.9793 42.6147 7.56245 42.8265 8.11201 43.108C8.12935 43.1663 8.14955 43.2366 8.17116 43.3166C8.2378 43.5635 8.31607 43.8965 8.36603 44.2485C8.41659 44.6048 8.43456 44.9566 8.39449 45.2495C8.38636 45.309 8.37625 45.3632 8.3645 45.4125C8.08935 45.1632 7.82051 44.9073 7.5577 44.6412L7.55512 44.6386C4.16117 41.2513 1.8589 36.9314 0.942898 32.2323C0.0268952 27.5331 0.538798 22.6683 2.41313 18.2608L2.4136 18.2597C2.4911 18.0762 2.57158 17.898 2.65583 17.7114C2.68257 17.6522 2.7097 17.5921 2.73723 17.5308L2.88943 17.1916L2.60849 16.9482C1.71588 16.1748 1.06797 15.1597 0.743249 14.0266C0.418526 12.8934 0.430885 11.6906 0.778829 10.5643C1.12678 9.43802 1.79541 8.43643 2.70375 7.68135C3.6121 6.92626 4.72105 6.45023 5.89592 6.31129L6.58359 6.22997L6.29006 5.60281C5.929 4.83136 5.42343 4.14146 4.80516 3.56773H8.71095C8.71096 3.56773 8.71097 3.56773 8.71098 3.56773C9.52388 3.5678 10.3143 3.8328 10.9618 4.3221C11.6093 4.81138 12.0782 5.49805 12.2976 6.27727L12.468 6.88274L13.0195 6.5801C13.749 6.17968 14.4996 5.81843 15.2678 5.49788L15.2678 5.49789L15.2715 5.49633C18.241 4.22955 21.4373 3.57569 24.6674 3.57427C28.47 3.58063 32.168 4.81562 35.2067 7.09385C38.2135 9.34809 40.4145 12.5034 41.4882 16.0951C41.4767 16.1148 41.4561 16.144 41.4194 16.1831C41.3329 16.2752 41.2016 16.373 41.0458 16.4667C40.8938 16.5582 40.7384 16.6338 40.6191 16.6872C40.6128 16.69 40.6067 16.6927 40.6007 16.6953C40.2441 16.5393 39.9254 16.3071 39.6677 16.0145L39.1844 15.4658L38.8484 16.1152C38.8116 16.1865 38.7319 16.282 38.5983 16.3925C38.469 16.4995 38.3136 16.6005 38.1571 16.6895C38.0053 16.7758 37.8607 16.8461 37.7524 16.8954C37.6412 16.847 37.4924 16.7771 37.3368 16.6902C37.1781 16.6014 37.0224 16.5004 36.8949 16.3928C36.7633 16.2818 36.6887 16.1864 36.6562 16.1159L36.3541 15.4612L35.8468 15.9736C35.4573 16.3671 34.995 16.6809 34.486 16.8978C34.0415 16.7043 33.6284 16.4454 33.2606 16.1293L32.929 15.8444L32.6024 16.1349C32.1607 16.5278 31.6588 16.8471 31.116 17.0807C30.5344 16.8329 30.0034 16.4798 29.5501 16.0389L29.1919 15.6906L28.8433 16.0484C28.3262 16.5793 27.7069 16.9998 27.0231 17.2852C26.3394 16.9998 25.7201 16.5793 25.203 16.0484L24.8241 15.6595L24.4677 16.0691C23.9925 16.6151 23.4312 17.0799 22.8064 17.4454C22.0359 17.2323 21.3147 16.8691 20.6848 16.3763L20.0693 15.8948L19.89 16.6554C19.7911 17.0753 19.4499 17.5821 19.0785 18.0223C18.9005 18.2332 18.7294 18.4129 18.6028 18.5398C18.5806 18.562 18.5599 18.5825 18.5407 18.6013C18.5079 18.6002 18.4714 18.5987 18.4318 18.5968C18.2396 18.5876 17.9754 18.5684 17.6865 18.5288C17.0781 18.4454 16.4744 18.2852 16.1464 18.026L15.5369 17.5445L15.3509 18.2986C15.1642 19.0559 14.8323 19.7694 14.374 20.4001C13.5942 20.5257 12.7967 20.4983 12.0263 20.3187L11.3896 20.1703L11.4131 20.8236C11.4424 21.6369 11.3007 22.4465 10.998 23.2008C10.301 23.4933 9.55695 23.6606 8.80036 23.6941L8.52555 23.7063L8.40541 23.9159C8.40469 23.9167 8.40394 23.9175 8.40318 23.9184C8.40061 23.9212 8.39787 23.9243 8.3952 23.9273C8.38224 23.942 8.34867 23.9802 8.31809 24.0312C8.28766 24.0819 8.23723 24.1824 8.23723 24.3179V24.3815L8.25313 24.443C8.44426 25.1827 8.49596 25.9507 8.40622 26.7081C7.833 27.1529 7.18953 27.5006 6.50166 27.7366L5.92052 27.9359L6.23378 28.4645C6.64711 29.1618 6.90975 29.9367 7.00584 30.7394C6.51336 31.3666 5.8998 31.8903 5.20061 32.2789L4.51344 32.6609L5.15075 33.1213C5.50039 33.3738 5.83797 33.8864 6.10248 34.4025C6.22914 34.6497 6.32961 34.8785 6.39836 35.0456C6.41118 35.0767 6.42287 35.1057 6.43338 35.1321C6.11124 35.8561 5.64738 36.5098 5.06823 37.0543L4.58175 37.5117L5.15758 37.8498C5.85442 38.2589 6.45846 38.8063 6.93265 39.4573C6.92818 39.4833 6.92317 39.5116 6.9176 39.542C6.88579 39.7157 6.83614 39.9553 6.76512 40.2185C6.61711 40.7669 6.3977 41.3339 6.11098 41.6606Z" stroke="#B2947B"/>
<path d="M97.2997 20.2426C98.3363 19.7389 98.894 17.4694 98.894 17.4694C98.894 17.4694 97.7983 15.4222 96.6698 15.1867C97.444 14.343 97.2144 12.0734 97.2144 12.0734C97.2144 12.0734 95.8234 10.8111 94.7146 10.6607C95.1738 9.62728 94.3603 7.57355 94.3603 7.57355C94.3603 7.57355 92.2476 6.55323 91.2109 6.99799C91.6768 5.90572 90.043 3.85854 90.043 3.85854C90.043 3.85854 87.786 3.48573 86.8937 4.19864C86.7034 3.08021 84.8925 1.81789 84.8925 1.81789C84.8925 1.81789 82.6945 2.08605 81.9991 2.98865C81.5988 1.92254 79.578 1.02649 79.578 1.02649C79.578 1.02649 77.2882 1.76557 76.9076 2.85783C76.4549 1.81789 74.3881 1.02649 74.3881 1.02649C74.3881 1.02649 72.2295 1.85059 71.8358 2.92324C71.5644 2.06119 71.0197 1.31025 70.2834 0.783273C69.5472 0.256299 68.6593 -0.0182322 67.7531 0.000940082C66.847 0.0201124 65.9715 0.331953 65.2584 0.889591C64.5452 1.44723 64.0329 2.22054 63.7984 3.09329H44.1872C44.1872 2.63708 44.0054 2.19955 43.6818 1.87696C43.3581 1.55437 42.9192 1.37314 42.4616 1.37314C42.0039 1.37314 41.565 1.55437 41.2414 1.87696C40.9178 2.19955 40.736 2.63708 40.736 3.09329C40.7325 5.41127 41.2788 7.69722 42.3304 9.76463C42.7817 10.6675 43.4163 11.467 44.1937 12.1127C44.8653 11.5472 45.4335 10.87 45.8734 10.1113C46.3144 10.8711 46.8851 11.5484 47.5596 12.1127C48.2248 11.5462 48.7864 10.869 49.2196 10.1113C49.6606 10.8711 50.2312 11.5484 50.9058 12.1127C51.5793 11.5492 52.1479 10.8716 52.5854 10.1113C53.0265 10.8711 53.5971 11.5484 54.2717 12.1127C54.9462 11.5484 55.5168 10.8711 55.9579 10.1113C56.3989 10.8711 56.9695 11.5484 57.6441 12.1127C58.3176 11.5492 58.8862 10.8716 59.3237 10.1113C59.7707 10.8727 60.348 11.55 61.0296 12.1127C61.6728 11.5738 62.2226 10.933 62.6568 10.2159C63.0124 10.3862 63.2988 10.6728 63.4682 11.028C63.6375 11.3832 63.6797 11.7855 63.5876 12.1679C63.4956 12.5504 63.2748 12.8898 62.9622 13.1297C62.6495 13.3695 62.2639 13.4954 61.8695 13.4862H45.0008C46.3758 14.8781 48.0151 15.9831 49.8232 16.7366C51.6312 17.4901 53.5717 17.8771 55.5314 17.8749H75.9694C77.7358 17.8781 79.4447 17.2491 80.7853 16.1024H80.8246C80.7936 17.1311 80.4986 18.1346 79.968 19.0174C79.4373 19.9002 78.6887 20.6327 77.7934 21.1451C78.0357 21.1898 78.2817 21.2117 78.5282 21.2106H83.121C84.0155 21.2104 84.8869 20.9272 85.6097 20.4018C86.3325 19.8764 86.8694 19.1359 87.143 18.2869C89.426 19.9276 91.0315 22.3409 91.6594 25.0757C92.2873 27.8106 91.8946 30.6798 90.5548 33.147C91.5062 33.9319 93.9404 32.5584 93.9404 32.5584C94.2459 31.6632 94.349 30.7117 94.2422 29.7721C95.3772 29.7721 96.9716 28.3528 96.9716 28.3528C96.9716 28.3528 97.2012 26.0767 96.427 25.2395C97.5621 25.0433 98.73 23.0092 98.73 23.0092C98.73 23.0092 98.2641 20.8443 97.2997 20.2426ZM67.8335 5.58524C67.5571 5.58524 67.2869 5.50353 67.0571 5.35045C66.8273 5.19737 66.6482 4.97979 66.5424 4.72523C66.4366 4.47067 66.409 4.19056 66.4629 3.92032C66.5168 3.65007 66.6499 3.40184 66.8453 3.20701C67.0408 3.01218 67.2898 2.87949 67.5609 2.82574C67.832 2.77198 68.113 2.79957 68.3684 2.90502C68.6237 3.01046 68.842 3.18902 68.9955 3.41812C69.1491 3.64722 69.2311 3.91657 69.2311 4.1921C69.2311 4.56158 69.0838 4.91593 68.8217 5.1772C68.5597 5.43846 68.2042 5.58524 67.8335 5.58524Z" fill="#B2947B"/>
<path d="M24.7165 52.5822C25.9594 53.465 27.4533 53.9429 28.9911 53.939H49.4684C51.4281 53.9412 53.3686 53.5543 55.1767 52.8008C56.7625 52.1399 58.2186 51.2085 59.4804 50.0503L24.7165 52.5822ZM24.7165 52.5822C24.6912 52.4259 24.6725 52.2683 24.6607 52.1097L24.1621 52.1469L23.8348 52.5249C23.9729 52.6445 24.1147 52.7588 24.2599 52.8679C24.4032 53.592 24.6787 54.286 25.0748 54.9143C25.4604 55.526 25.9518 56.062 26.524 56.4985C26.4971 56.4992 26.4701 56.4998 26.4432 56.5L24.7165 52.5822ZM63.7638 39.48L63.7871 39.4916C63.7431 41.6227 63.2183 43.7181 62.25 45.6217L62.2485 45.6248C61.8921 46.3376 61.4131 46.9814 60.8342 47.5274C60.345 47.062 59.9243 46.5291 59.5853 45.9443L59.153 45.1986L58.7203 45.9441C58.3803 46.5297 57.9579 47.0628 57.4665 47.5276C56.975 47.0628 56.5526 46.5297 56.2127 45.9441L55.7827 45.2033L55.3491 45.9419C55.0038 46.5302 54.575 47.0648 54.0767 47.5295C53.5861 47.0652 53.1653 46.5318 52.8281 45.9457L52.3966 45.1958L51.9623 45.9441C51.6223 46.5297 51.1999 47.0628 50.7085 47.5276C50.2171 47.0628 49.7946 46.5297 49.4547 45.9441L49.0223 45.1991L48.5899 45.944C48.25 46.5296 47.8276 47.0627 47.3362 47.5274C46.8466 47.0636 46.4265 46.5309 46.0898 45.9457L45.6583 45.1958L45.224 45.944C44.8842 46.5294 44.4621 47.0623 43.971 47.5268C43.5031 47.0826 43.0974 46.5768 42.7653 46.023L42.5312 45.6325L42.1205 45.8291C41.662 46.0486 41.2925 46.4184 41.0738 46.8769C40.8551 47.3356 40.8006 47.8552 40.9195 48.3491C41.0385 48.843 41.3235 49.2811 41.7267 49.5905C42.1283 49.8986 42.6231 50.0607 43.1292 50.0503H58.7249C57.606 50.9996 56.3446 51.7723 54.9843 52.3392C53.2374 53.0673 51.3625 53.4412 49.469 53.439H49.4684L28.9911 53.439L28.9899 53.439C27.3362 53.4432 25.7374 52.8497 24.4894 51.769L23.5733 50.9756L23.6635 52.1841C23.7429 53.2486 24.0822 54.2774 24.6518 55.181C24.9592 55.6686 25.3286 56.1116 25.7492 56.5H21.8526C21.3635 56.5 20.8793 56.4039 20.4276 56.2172C19.9759 56.0305 19.5657 55.7569 19.2204 55.4121C18.875 55.0673 18.6014 54.6581 18.415 54.208C18.2285 53.7579 18.133 53.2756 18.1338 52.7887V52.7879V50.6295V50.3077L17.8409 50.1744C15.2786 49.0084 13.0636 47.2 11.4119 44.9261C9.76021 42.6522 8.72828 39.9904 8.41668 37.2005C8.10507 34.4107 8.52442 31.5879 9.63384 29.0077C10.4585 27.0898 11.6434 25.3547 13.1182 23.8924C12.7041 25.1616 12.5027 26.4956 12.5274 27.8405C12.5658 29.935 13.1513 31.9832 14.2258 33.7832C15.3004 35.5832 16.8269 37.0728 18.6547 38.1051C20.4823 39.1373 22.5482 39.6768 24.6485 39.6705C24.6487 39.6705 24.6489 39.6705 24.6491 39.6705L30.966 39.6705H31.9502H32.3832H33.1181H33.5009L33.6007 39.301C33.8118 38.5201 34.2753 37.8299 34.9198 37.3376C35.5643 36.8453 36.3539 36.5784 37.1663 36.5784C37.9787 36.5784 38.7683 36.8453 39.4128 37.3376C40.0573 37.8299 40.5208 38.5201 40.7318 39.301L40.8317 39.6705H41.2145H60.8127H61.3127V39.1705C61.3127 38.8474 61.4414 38.5373 61.6711 38.3083C61.9008 38.0793 62.2127 37.9504 62.5382 37.9504C62.8638 37.9504 63.1757 38.0793 63.4054 38.3083C63.6351 38.5373 63.7638 38.8474 63.7638 39.1705V39.48ZM59.2838 49.5503H43.1238H59.2838ZM36.1127 41.8504C36.4247 42.0582 36.7913 42.169 37.1663 42.169C37.4153 42.169 37.6618 42.1201 37.8919 42.0251C38.122 41.9301 38.3312 41.7908 38.5075 41.6151C38.6838 41.4394 38.8237 41.2307 38.9192 41.0009C39.0146 40.7711 39.0638 40.5247 39.0638 40.2759C39.0638 39.9011 38.9523 39.5349 38.7436 39.2235C38.5349 38.9122 38.2385 38.6697 37.8919 38.5267C37.5454 38.3836 37.1642 38.3461 36.7964 38.4191C36.4286 38.492 36.0906 38.672 35.8251 38.9367C35.5596 39.2013 35.3786 39.5387 35.3053 39.9063C35.2319 40.2738 35.2696 40.6548 35.4134 41.0009C35.5572 41.347 35.8007 41.6425 36.1127 41.8504Z" stroke="#B2947B"/>
</svg>
