<svg width="95" height="52" viewBox="0 0 95 52" fill="none" xmlns="http://www.w3.org/2000/svg">
<path d="M22.8494 23.4259C23.1527 23.4323 23.4501 23.5113 23.7171 23.6566C23.9842 23.8018 24.2133 24.0091 24.3855 24.2613L25.8861 22.9068C25.5378 22.4476 25.0807 22.0844 24.5568 21.8507C23.9792 21.5982 23.3546 21.474 22.7253 21.4867C22.0276 21.4748 21.3377 21.6367 20.7167 21.9581C20.1348 22.2585 19.6478 22.7174 19.3106 23.2827C18.9779 23.8683 18.8028 24.5318 18.8028 25.207C18.8028 25.8822 18.9779 26.5456 19.3106 27.1313C19.6478 27.6966 20.1348 28.1554 20.7167 28.4559C21.3387 28.7745 22.0279 28.9362 22.7253 28.9272C23.355 28.938 23.9797 28.8119 24.5568 28.5573C25.0831 28.3278 25.5412 27.9638 25.8861 27.5012L24.3855 26.1527C24.213 26.4041 23.9837 26.6105 23.7166 26.7547C23.4495 26.8989 23.1522 26.9769 22.8494 26.9821C22.6306 26.9887 22.4127 26.9497 22.2094 26.8676C22.0062 26.7855 21.8218 26.6619 21.6678 26.5047C21.3738 26.1374 21.2135 25.6793 21.2135 25.207C21.2135 24.7346 21.3738 24.2766 21.6678 23.9092C21.8206 23.7501 22.0047 23.6249 22.2081 23.5416C22.4116 23.4584 22.63 23.419 22.8494 23.4259Z" fill="#999999"/>
<path d="M32.8338 25.6695C33.0636 25.2452 33.1796 24.7676 33.1703 24.284C33.1609 23.8005 33.0266 23.3278 32.7806 22.9129C32.5086 22.4971 32.1198 22.173 31.6641 21.982C31.1262 21.7526 30.5463 21.6407 29.9626 21.6539H26.5951V28.7662H28.9582V26.9762H29.6022L30.7838 28.7662H33.3183L31.8413 26.5705C32.2477 26.3678 32.5911 26.0561 32.8338 25.6695ZM30.5356 24.9535C30.3301 25.1134 30.0738 25.1919 29.8149 25.1742H28.9582V23.5036H29.8267C30.0859 23.483 30.3432 23.5618 30.5475 23.7243C30.6272 23.8009 30.6901 23.8936 30.7318 23.9965C30.7736 24.0993 30.7933 24.2099 30.7897 24.321C30.7957 24.4379 30.7761 24.5547 30.7321 24.663C30.6882 24.7713 30.6211 24.8685 30.5356 24.9475V24.9535Z" fill="#999999"/>
<path d="M39.805 21.9633C39.1685 21.6492 38.4694 21.4858 37.7609 21.4858C37.0524 21.4858 36.3533 21.6492 35.7168 21.9633C35.2788 22.1979 34.8925 22.5197 34.5811 22.9092C34.2697 23.2987 34.0397 23.748 33.905 24.2298C33.7703 24.7116 33.7336 25.216 33.7973 25.7125C33.8609 26.209 34.0235 26.6873 34.2752 27.1186C34.6184 27.6848 35.1089 28.145 35.6931 28.4492C36.3297 28.7633 37.0288 28.9267 37.7373 28.9267C38.4457 28.9267 39.1449 28.7633 39.7814 28.4492C40.3657 28.145 40.8561 27.6848 41.1993 27.1186C41.4605 26.6911 41.6315 26.2136 41.7014 25.7162C41.7713 25.2188 41.7387 24.7122 41.6055 24.2281C41.4724 23.744 41.2416 23.293 40.9277 22.9032C40.6138 22.5135 40.2235 22.1935 39.7814 21.9633H39.805ZM39.1315 26.14C38.991 26.3888 38.787 26.5948 38.5407 26.7367C38.2972 26.8807 38.0194 26.9549 37.7373 26.9515C37.4569 26.9557 37.1808 26.8813 36.9397 26.7367C36.6921 26.5965 36.4877 26.3901 36.3489 26.14C36.2091 25.8469 36.1365 25.5257 36.1365 25.2003C36.1365 24.8749 36.2091 24.5537 36.3489 24.2605C36.4862 24.0094 36.691 23.8025 36.9397 23.6638C37.1792 23.5147 37.456 23.4381 37.7373 23.4431C38.0203 23.439 38.2988 23.5155 38.5407 23.6638C38.7881 23.8043 38.9925 24.0107 39.1315 24.2605C39.2713 24.5537 39.3439 24.8749 39.3439 25.2003C39.3439 25.5257 39.2713 25.8469 39.1315 26.14Z" fill="#999999"/>
<path d="M46.3686 23.4244C46.6718 23.4312 46.969 23.5105 47.236 23.6557C47.503 23.8009 47.7322 24.0079 47.9047 24.2597L49.4053 22.9053C49.0571 22.446 48.5999 22.0828 48.076 21.8492C47.4983 21.5972 46.8738 21.4731 46.2446 21.4852C45.5468 21.4733 44.857 21.6352 44.2359 21.9566C43.6528 22.2551 43.1653 22.7144 42.8298 23.2812C42.4971 23.8668 42.322 24.5302 42.322 25.2054C42.322 25.8806 42.4971 26.5441 42.8298 27.1297C43.1653 27.6965 43.6528 28.1557 44.2359 28.4543C44.8579 28.773 45.5471 28.9347 46.2446 28.9257C46.8742 28.936 47.4987 28.8098 48.076 28.5558C48.6024 28.3262 49.0605 27.9623 49.4053 27.4997L47.9047 26.1512C47.7318 26.4023 47.5025 26.6084 47.2355 26.7525C46.9685 26.8967 46.6714 26.9749 46.3686 26.9805C46.1498 26.9871 45.932 26.9482 45.7287 26.866C45.5254 26.7839 45.341 26.6604 45.1871 26.5032C44.8931 26.1359 44.7327 25.6778 44.7327 25.2054C44.7327 24.7331 44.8931 24.275 45.1871 23.9077C45.3399 23.7485 45.5239 23.6233 45.7274 23.5401C45.9308 23.4569 46.1492 23.4175 46.3686 23.4244Z" fill="#999999"/>
<path d="M55.6736 21.9642C55.0381 21.6501 54.34 21.4868 53.6324 21.4868C52.9249 21.4868 52.2268 21.6501 51.5913 21.9642C51.1553 22.2008 50.7713 22.5241 50.4623 22.9146C50.1533 23.3051 49.9257 23.7547 49.7932 24.2363C49.6607 24.7179 49.6261 25.2216 49.6915 25.7171C49.7568 26.2126 49.9207 26.6896 50.1734 27.1195C50.5166 27.6857 51.007 28.1459 51.5913 28.45C52.2268 28.7641 52.9249 28.9274 53.6324 28.9274C54.34 28.9274 55.0381 28.7641 55.6736 28.45C56.2639 28.1455 56.7578 27.68 57.0993 27.1062C57.4408 26.5325 57.6162 25.8735 57.6055 25.2041C57.6154 24.5286 57.4395 23.8635 57.0974 23.2828C56.7528 22.7186 56.2599 22.2621 55.6736 21.9642ZM55.0001 26.1409C54.8596 26.3896 54.6556 26.5957 54.4093 26.7376C54.1682 26.8822 53.8922 26.9565 53.6118 26.9524C53.3295 26.9564 53.0516 26.8821 52.8083 26.7376C52.562 26.5957 52.358 26.3896 52.2175 26.1409C52.0777 25.8477 52.0051 25.5265 52.0051 25.2012C52.0051 24.8758 52.0777 24.5546 52.2175 24.2614C52.3566 24.0116 52.5609 23.8052 52.8083 23.6647C53.05 23.5157 53.3286 23.4392 53.6118 23.4439C53.893 23.439 54.1698 23.5156 54.4093 23.6647C54.6567 23.8052 54.8611 24.0116 55.0001 24.2614C55.1399 24.5546 55.2125 24.8758 55.2125 25.2012C55.2125 25.5265 55.1399 25.8477 55.0001 26.1409Z" fill="#999999"/>
<path d="M64.8365 24.4032C65.0026 24.1351 65.0887 23.8244 65.0846 23.5082C65.0879 23.2392 65.0236 22.9738 64.8975 22.7369C64.7714 22.5 64.5878 22.2993 64.3638 22.1537C63.7207 21.7746 62.9801 21.598 62.237 21.6466H58.4973V28.7649H62.4615C63.2335 28.8128 64.0028 28.6346 64.677 28.2517C64.918 28.098 65.1152 27.8834 65.2488 27.6291C65.3825 27.3748 65.4481 27.0896 65.4391 26.8018C65.4511 26.4128 65.3301 26.0314 65.0964 25.7218C64.8363 25.4138 64.4937 25.188 64.1098 25.0715C64.4096 24.9223 64.6615 24.6907 64.8365 24.4032ZM60.8073 23.3232H61.9121C62.432 23.3232 62.6919 23.5022 62.6919 23.8543C62.6919 24.2063 62.432 24.3793 61.9121 24.3793H60.8073V23.3232ZM62.237 27.0823H60.8073V25.9665H62.237C62.7628 25.9665 63.0228 26.1514 63.0228 26.5274C63.0228 26.9033 62.7628 27.0823 62.237 27.0823Z" fill="#999999"/>
<path d="M68.6298 21.646H66.2544V28.7583H68.6298V21.646Z" fill="#999999"/>
<path d="M73.6812 28.7643V23.5076H75.743V21.646H69.2444V23.5076H71.3062V28.7643H73.6812Z" fill="#999999"/>
<path d="M92.4972 34.5832C92.5977 34.3684 92.6981 34.1477 92.7867 33.9269C94.5096 29.8223 94.9802 25.2917 94.1381 20.9154C93.2961 16.539 91.1799 12.5161 88.0604 9.36182C87.6882 8.98592 87.3042 8.62195 86.9084 8.27588C88.6703 10.9343 89.684 14.0262 89.8412 17.2213C89.9983 20.4164 89.293 23.5945 87.8005 26.4162C86.308 29.2378 84.0846 31.5969 81.3676 33.2414C78.6507 34.8858 75.5425 35.7539 72.375 35.7527H72.0855C68.6056 35.7505 65.223 36.9127 62.4664 39.0577C59.7098 41.2027 57.7344 44.2097 56.8491 47.6086H72.3514C75.3204 47.6044 78.258 46.9956 80.9887 45.8186C81.6967 45.5166 82.3888 45.1781 83.0624 44.8042C83.2906 45.6057 83.7708 46.3105 84.4305 46.8121C85.0902 47.3137 85.8936 47.5849 86.7193 47.5848H90.8548C91.0766 47.5832 91.298 47.5632 91.5165 47.5251C90.5383 46.9533 89.7584 46.0906 89.2833 45.0549C90.4267 44.9177 91.5061 44.4484 92.3906 43.7039C93.2751 42.9594 93.9266 41.9717 94.2663 40.8606C94.6059 39.7494 94.619 38.5626 94.3039 37.4442C93.9888 36.3257 93.3592 35.3236 92.4913 34.5594L92.4972 34.5832Z" fill="#999999"/>
<path d="M5.46299 37.9786L4.9746 38.5423C2.94145 35.864 1.54054 32.7358 0.898112 29.3967C0.074717 25.1171 0.534926 20.6867 2.21958 16.6732L2.22005 16.6721C2.28963 16.5052 2.36182 16.3432 2.43762 16.1731C2.46174 16.119 2.48622 16.0641 2.5111 16.0079L2.65988 15.672L2.38381 15.4297C1.58705 14.7302 1.00795 13.8115 0.717574 12.7849C0.427193 11.7583 0.438252 10.6684 0.749387 9.64806C1.06051 8.6277 1.6581 7.72126 2.46883 7.03846C3.27951 6.35571 4.26848 5.92584 5.31549 5.8004L5.99833 5.71859L5.70992 5.09427C5.39774 4.41848 4.96619 3.81042 4.44008 3.29792H7.84362C7.84364 3.29792 7.84365 3.29792 7.84366 3.29792C8.56316 3.29798 9.26347 3.53558 9.83785 3.97533C10.4123 4.41516 10.8295 5.03331 11.0248 5.73614L11.1947 6.34777L11.7495 6.03927C12.4048 5.67488 13.079 5.34614 13.769 5.05445L13.769 5.05447L13.7727 5.05287C16.4399 3.9001 19.3105 3.30518 22.2113 3.30389C25.623 3.30968 28.9414 4.43223 31.6689 6.50404C34.3634 8.55066 36.338 11.4149 37.3043 14.6766C37.2946 14.691 37.2797 14.7105 37.2569 14.735C37.1831 14.8146 37.0691 14.9011 36.9309 14.9854C36.7989 15.0658 36.6636 15.1329 36.5582 15.1808C36.2532 15.0418 35.9799 14.8381 35.7576 14.5823L35.2718 14.0235L34.935 14.683C34.9054 14.7408 34.8386 14.8234 34.721 14.922C34.6075 15.0171 34.4702 15.1077 34.3309 15.1879C34.206 15.2599 34.0866 15.3195 33.9931 15.3632C33.897 15.3201 33.774 15.2608 33.6461 15.1884C33.5049 15.1084 33.3676 15.018 33.2559 14.9226C33.1404 14.8238 33.0785 14.7418 33.0527 14.6853L32.7501 14.021L32.24 14.5431C31.8991 14.892 31.4959 15.171 31.0525 15.3657C30.6655 15.1925 30.3053 14.9624 29.9839 14.6825L29.6498 14.3916L29.3208 14.6882C28.9329 15.0378 28.493 15.3227 28.0178 15.5327C27.5087 15.3097 27.0433 14.9945 26.6449 14.602L26.2844 14.2467L25.9335 14.6116C25.4776 15.0857 24.9331 15.4621 24.3325 15.7195C23.732 15.4621 23.1875 15.0857 22.7315 14.6116L22.3503 14.2151L21.9918 14.6323C21.5722 15.1209 21.0778 15.5373 20.5279 15.8661C19.8496 15.6728 19.2143 15.347 18.6585 14.9064L18.0397 14.416L17.8609 15.185C17.774 15.5583 17.4724 16.0142 17.1388 16.4147C16.9796 16.6059 16.8264 16.7689 16.713 16.884C16.6991 16.8981 16.6858 16.9115 16.6733 16.9241C16.6503 16.9232 16.6256 16.9221 16.5993 16.9208C16.4274 16.9125 16.1912 16.8951 15.9331 16.8593C15.3864 16.7833 14.8558 16.6386 14.5721 16.4115L13.9594 15.9211L13.7738 16.6836C13.6084 17.3631 13.3158 18.0033 12.9125 18.57C12.2243 18.6795 11.5211 18.6536 10.8416 18.4931L10.2038 18.3424L10.227 18.9975C10.253 19.728 10.1286 20.4551 9.86276 21.1332C9.24641 21.3927 8.58943 21.541 7.92164 21.571L7.64519 21.5834L7.5262 21.7937C7.52414 21.7961 7.52197 21.7985 7.51986 21.8009C7.50779 21.8148 7.47536 21.8521 7.44572 21.9022C7.41617 21.9521 7.36729 22.0509 7.36729 22.1839V22.2466L7.3828 22.3074C7.55233 22.9721 7.59922 23.6622 7.52167 24.3431C7.01345 24.7401 6.44416 25.0505 5.83625 25.2618L5.26166 25.4615L5.56883 25.9865C5.93539 26.6131 6.16945 27.3092 6.25688 28.0307C5.81883 28.5923 5.27488 29.0611 4.65619 29.4095L3.97998 29.7903L4.60624 30.2486C4.91127 30.4719 5.21134 30.9309 5.44938 31.4014C5.56278 31.6256 5.65279 31.8333 5.71439 31.985C5.72353 32.0075 5.73202 32.0287 5.73985 32.0485C5.45222 32.6982 5.04019 33.2845 4.52714 33.7732L4.04976 34.2279L4.61639 34.565C5.23293 34.9317 5.76847 35.4217 6.19042 36.0047C6.18714 36.0238 6.18355 36.0441 6.17967 36.0656C6.15115 36.2233 6.10667 36.4408 6.04305 36.6796C5.90991 37.1795 5.71417 37.6887 5.46299 37.9786ZM6.84036 40.6931C6.19813 40.0437 5.59937 39.3566 5.04657 38.6366L5.72897 38.7933C6.26091 38.9155 6.77561 39.1039 7.26129 39.3541C7.27561 39.4033 7.29185 39.461 7.3091 39.5257C7.36885 39.7499 7.43894 40.0521 7.48364 40.3712C7.52893 40.6946 7.54467 41.0117 7.50924 41.2741C7.50638 41.2952 7.50326 41.3156 7.49989 41.3352C7.27624 41.128 7.05732 40.9157 6.84292 40.6957L6.84036 40.6931Z" stroke="#999999"/>
<path d="M87.6116 18.4667C88.545 18.0073 89.0472 15.9368 89.0472 15.9368C89.0472 15.9368 88.0606 14.0692 87.0444 13.8544C87.7415 13.0847 87.5348 11.0143 87.5348 11.0143C87.5348 11.0143 86.2823 9.86268 85.2839 9.72544C85.6974 8.7827 84.9648 6.90914 84.9648 6.90914C84.9648 6.90914 83.0625 5.97833 82.1291 6.38407C82.5485 5.38762 81.0775 3.52003 81.0775 3.52003C81.0775 3.52003 79.0451 3.17993 78.2417 3.8303C78.0703 2.80999 76.4398 1.65841 76.4398 1.65841C76.4398 1.65841 74.4606 1.90305 73.8344 2.72646C73.474 1.75388 71.6544 0.936435 71.6544 0.936435C71.6544 0.936435 69.5925 1.61068 69.2499 2.60712C68.8422 1.65841 66.9813 0.936435 66.9813 0.936435C66.9813 0.936435 65.0376 1.68824 64.6831 2.66679C64.4387 1.88037 63.9482 1.1953 63.2853 0.714558C62.6223 0.233815 61.8228 -0.0166327 61.0069 0.000857611C60.1909 0.018348 59.4027 0.302831 58.7605 0.811549C58.1184 1.32027 57.6571 2.02574 57.446 2.82192H39.7873C39.7873 2.40573 39.6236 2.00659 39.3322 1.7123C39.0408 1.418 38.6456 1.25267 38.2335 1.25267C37.8214 1.25267 37.4262 1.418 37.1349 1.7123C36.8435 2.00659 36.6798 2.40573 36.6798 2.82192C36.6766 4.93654 37.1685 7.02196 38.1154 8.908C38.5218 9.73162 39.0931 10.461 39.7932 11.0501C40.3979 10.5341 40.9096 9.91642 41.3056 9.22423C41.7028 9.91739 42.2166 10.5353 42.824 11.0501C43.4229 10.5332 43.9286 9.91549 44.3186 9.22423C44.7158 9.91739 45.2296 10.5353 45.837 11.0501C46.4435 10.536 46.9554 9.9179 47.3494 9.22423C47.7465 9.91739 48.2603 10.5353 48.8677 11.0501C49.4751 10.5353 49.9889 9.91739 50.386 9.22423C50.7832 9.91739 51.297 10.5353 51.9044 11.0501C52.5108 10.536 53.0228 9.9179 53.4168 9.22423C53.8192 9.91882 54.3391 10.5368 54.9528 11.0501C55.532 10.5584 56.027 9.97383 56.418 9.3197C56.7382 9.47504 56.996 9.73651 57.1486 10.0605C57.3011 10.3846 57.339 10.7516 57.2561 11.1005C57.1732 11.4493 56.9745 11.759 56.6929 11.9778C56.4114 12.1966 56.0642 12.3114 55.709 12.3031H40.5199C41.758 13.5729 43.2341 14.5809 44.8622 15.2683C46.4902 15.9558 48.2375 16.3088 50.002 16.3068H68.4051C69.9956 16.3097 71.5344 15.7359 72.7414 14.6898H72.7769C72.7489 15.6282 72.4834 16.5437 72.0056 17.3491C71.5277 18.1544 70.8536 18.8227 70.0475 19.2901C70.2657 19.3309 70.4872 19.3509 70.7091 19.3498H74.8446C75.6501 19.3496 76.4347 19.0913 77.0856 18.612C77.7364 18.1327 78.2198 17.4572 78.4662 16.6827C80.5219 18.1794 81.9675 20.381 82.5329 22.8759C83.0983 25.3708 82.7447 27.9883 81.5383 30.2391C82.3949 30.9551 84.5867 29.7021 84.5867 29.7021C84.8619 28.8854 84.9547 28.0174 84.8585 27.1602C85.8806 27.1602 87.3162 25.8655 87.3162 25.8655C87.3162 25.8655 87.5229 23.789 86.8258 23.0253C87.8479 22.8463 88.8995 20.9906 88.8995 20.9906C88.8995 20.9906 88.48 19.0157 87.6116 18.4667ZM61.0793 5.09525C60.8304 5.09525 60.5871 5.02071 60.3802 4.88106C60.1732 4.74141 60.012 4.54292 59.9167 4.3107C59.8215 4.07847 59.7965 3.82293 59.8451 3.57639C59.8937 3.32986 60.0135 3.1034 60.1895 2.92566C60.3655 2.74792 60.5897 2.62688 60.8338 2.57784C61.0779 2.5288 61.3309 2.55397 61.5609 2.65016C61.7908 2.74636 61.9873 2.90925 62.1256 3.11825C62.2639 3.32726 62.3377 3.57297 62.3377 3.82434C62.3377 4.1614 62.2051 4.48467 61.9691 4.72301C61.7331 4.96135 61.413 5.09525 61.0793 5.09525Z" fill="#999999"/>
<path d="M26.1043 49.2075H44.5428C46.3074 49.2095 48.0547 48.8565 49.6827 48.1691C51.0908 47.5745 52.3854 46.7401 53.5105 45.7038L26.1043 49.2075ZM26.1043 49.2075C24.743 49.211 23.42 48.7897 22.3123 48.0103L26.1043 49.2075ZM57.3651 35.7346V36.0423L57.3854 36.0526C57.3423 37.9823 56.8715 39.8789 56.0062 41.6023L56.0047 41.6054C55.6935 42.236 55.2779 42.8067 54.7771 43.2933C54.3553 42.8804 53.9916 42.4098 53.6968 41.8946L53.2631 41.1366L52.829 41.8943C52.5334 42.4103 52.1682 42.8811 51.7445 43.2936C51.3209 42.8811 50.9556 42.4103 50.66 41.8943L50.2286 41.1414L49.7936 41.8922C49.4932 42.4107 49.1223 42.883 48.6925 43.2956C48.2696 42.8835 47.9058 42.4124 47.6125 41.896L47.1796 41.1338L46.7439 41.8943C46.4483 42.4103 46.0831 42.8811 45.6594 43.2936C45.2357 42.8811 44.8705 42.4103 44.5749 41.8943L44.1411 41.1371L43.7072 41.8943C43.4117 42.4102 43.0465 42.881 42.6229 43.2934C42.2009 42.8818 41.8379 42.4115 41.5451 41.896L41.1122 41.1338L40.6765 41.8943C40.3811 42.41 40.0161 42.8806 39.5928 43.2928C39.19 42.8992 38.8396 42.4531 38.5512 41.9658L38.3168 41.5697L37.9027 41.7706C37.479 41.9762 37.1388 42.3216 36.938 42.7484C36.7372 43.175 36.6873 43.6579 36.7963 44.1168C36.9054 44.5758 37.1671 44.9842 37.5391 45.2733C37.9095 45.5613 38.3668 45.7134 38.8353 45.7038H52.7547C51.7731 46.5322 50.6723 47.2085 49.4882 47.7085C47.9218 48.3699 46.2408 48.7094 44.5434 48.7075H44.5428L26.1043 48.7075L26.1031 48.7075C24.628 48.7112 23.2007 48.1749 22.0859 47.1968L21.1678 46.3913L21.2575 47.6094C21.3294 48.5864 21.6369 49.5312 22.1534 50.3614C22.4131 50.7788 22.7218 51.1609 23.0715 51.5H19.6766C19.2436 51.5 18.8148 51.4138 18.4146 51.2461C18.0144 51.0785 17.6505 50.8328 17.3439 50.5226C17.0373 50.2124 16.794 49.844 16.6281 49.4382C16.4622 49.0324 16.3771 48.5974 16.3778 48.1581V48.1574V46.1884V45.8683L16.0872 45.7343C13.7883 44.6744 11.8003 43.0303 10.3175 40.962C8.83467 38.8937 7.90786 36.472 7.62799 33.9333C7.34811 31.3946 7.7248 28.826 8.72107 26.4785C9.43459 24.7972 10.4484 23.2707 11.7055 21.972C11.3708 23.0778 11.209 24.2341 11.2301 25.3992C11.2648 27.3164 11.7937 29.1916 12.765 30.84C13.7363 32.4884 15.1165 33.8532 16.7702 34.7995C18.4237 35.7456 20.2931 36.2404 22.1942 36.2346C22.1944 36.2346 22.1946 36.2346 22.1949 36.2346L27.8826 36.2346H28.7688H29.1587H29.8204H30.2045L30.3035 35.8635C30.4914 35.1592 30.9037 34.538 31.4754 34.0955C32.0471 33.653 32.7466 33.4137 33.4655 33.4137C34.1845 33.4137 34.8839 33.653 35.4556 34.0955C36.0274 34.538 36.4397 35.1592 36.6276 35.8635L36.7266 36.2346H37.1107H54.7575H55.2575V35.7346C55.2575 35.4495 55.3697 35.177 55.5679 34.9768C55.7659 34.7768 56.0334 34.6654 56.3113 34.6654C56.5892 34.6654 56.8567 34.7768 57.0547 34.9768C57.2529 35.177 57.3651 35.4495 57.3651 35.7346ZM53.3132 45.2038H38.8299H53.3132ZM32.4867 38.2142C32.776 38.4094 33.1167 38.5139 33.4655 38.5139C33.6971 38.5139 33.9264 38.4678 34.1401 38.3784C34.3538 38.2891 34.5476 38.1582 34.7107 37.9935C34.8737 37.8288 35.0028 37.6336 35.0907 37.4191C35.1787 37.2046 35.2239 36.9749 35.2239 36.743C35.2239 36.3939 35.1214 36.0521 34.9288 35.761C34.7362 35.4699 34.4619 35.2422 34.1401 35.1076C33.8182 34.9729 33.4636 34.9376 33.1216 35.0063C32.7795 35.075 32.466 35.2445 32.2204 35.4925C31.9749 35.7405 31.8082 36.0559 31.7408 36.3984C31.6733 36.741 31.7079 37.0961 31.8403 37.4191C31.9728 37.7421 32.1975 38.019 32.4867 38.2142Z" stroke="#999999"/>
</svg>
