<svg width="52" height="51" viewBox="0 0 52 51" fill="none" xmlns="http://www.w3.org/2000/svg">
<path fill-rule="evenodd" clip-rule="evenodd" d="M50.9993 36.3541C51.0386 44.0411 44.7174 50.3087 36.8691 50.3644H2.08727C1.48295 50.3594 0.996648 49.8765 1.00002 49.2846V44.9734C0.998879 44.3829 1.48437 43.9021 2.08727 43.8966H36.8691C41.0949 43.8666 44.4986 40.4921 44.4778 36.3531C44.4778 32.1937 41.5522 28.8096 37.9564 28.8096H29.2614C28.6581 28.8041 28.1725 28.3227 28.1742 27.7318V23.4206C28.1719 22.8295 28.6579 22.3478 29.2614 22.3429H37.9564C41.5522 22.3429 44.4778 18.9627 44.4778 14.7983C44.4986 10.6593 41.0949 7.28483 36.8691 7.25481H2.08727C1.48374 7.24991 0.997767 6.76816 1.00002 6.17703V1.86587C0.998322 1.27496 1.48398 0.793535 2.08727 0.788086H36.8691C44.7174 0.843757 51.0386 7.1113 50.9993 14.7983C51.0391 18.8803 49.3267 22.7909 46.2798 25.5762C49.3272 28.3612 51.0398 32.272 50.9993 36.3541ZM7.52249 28.8089V33.1191H36.8681C38.6913 33.1191 40.1693 34.5667 40.1693 36.3524C40.1693 38.1382 38.6913 39.5858 36.8681 39.5858H2.08726C1.48373 39.5809 0.997758 39.0991 1.00001 38.508V12.6431C0.997758 12.0514 1.48419 11.5692 2.08827 11.5643H36.8691C38.6923 11.5643 40.1703 13.0119 40.1703 14.7977C40.1703 16.5834 38.6923 18.031 36.8691 18.031H7.52249V22.3422H22.7399C23.3431 22.3476 23.8284 22.8292 23.8262 23.42V27.7311C23.8279 28.3216 23.3428 28.8029 22.7399 28.8089H7.52249Z" fill="#999999"/>
<path d="M36.8691 50.3644V50.4644L36.8698 50.4644L36.8691 50.3644ZM50.9993 36.3541L50.8993 36.3531L50.8993 36.3546L50.9993 36.3541ZM2.08727 50.3644L2.08645 50.4644H2.08727V50.3644ZM1.00002 49.2846L1.10002 49.2852V49.2846H1.00002ZM1.00002 44.9734H1.10002L1.10002 44.9732L1.00002 44.9734ZM2.08727 43.8966V43.7966L2.08636 43.7966L2.08727 43.8966ZM36.8691 43.8966V43.9966L36.8698 43.9966L36.8691 43.8966ZM44.4778 36.3531H44.3778L44.3778 36.3536L44.4778 36.3531ZM29.2614 28.8096L29.2605 28.9096H29.2614V28.8096ZM28.1742 27.7318L28.2742 27.7321V27.7318H28.1742ZM28.1742 23.4206H28.2742L28.2742 23.4203L28.1742 23.4206ZM29.2614 22.3429V22.2429L29.2606 22.2429L29.2614 22.3429ZM44.4778 14.7983L44.3778 14.7978V14.7983H44.4778ZM36.8691 7.25481L36.8698 7.15481H36.8691V7.25481ZM2.08727 7.25481L2.08645 7.35481H2.08727V7.25481ZM1.00002 6.17703L1.10002 6.17741V6.17703H1.00002ZM1.00002 1.86587H1.10002L1.10002 1.86559L1.00002 1.86587ZM2.08727 0.788086V0.688082L2.08636 0.68809L2.08727 0.788086ZM36.8691 0.788086L36.8698 0.688086H36.8691V0.788086ZM50.9993 14.7983L50.8993 14.7978L50.8993 14.7993L50.9993 14.7983ZM46.2798 25.5762L46.2123 25.5024L46.1316 25.5762L46.2123 25.65L46.2798 25.5762ZM7.52249 33.1191H7.42249V33.2191H7.52249V33.1191ZM7.52249 28.8089V28.7089H7.42249V28.8089H7.52249ZM2.08726 39.5858L2.08644 39.6858H2.08726V39.5858ZM1.00001 38.508L1.10001 38.5084V38.508H1.00001ZM1.00001 12.6431H1.10001L1.10001 12.6427L1.00001 12.6431ZM2.08827 11.5643V11.4643L2.08746 11.4643L2.08827 11.5643ZM7.52249 18.031V17.931H7.42249V18.031H7.52249ZM7.52249 22.3422H7.42249V22.4422H7.52249V22.3422ZM22.7399 22.3422L22.7408 22.2422H22.7399V22.3422ZM23.8262 23.42L23.7262 23.4196V23.42H23.8262ZM23.8262 27.7311H23.7262V27.7314L23.8262 27.7311ZM22.7399 28.8089V28.9089L22.7409 28.9089L22.7399 28.8089ZM36.8698 50.4644C44.7713 50.4083 51.1389 44.0977 51.0993 36.3536L50.8993 36.3546C50.9383 43.9846 44.6635 50.2091 36.8684 50.2644L36.8698 50.4644ZM2.08727 50.4644H36.8691V50.2644H2.08727V50.4644ZM0.900019 49.284C0.896325 49.933 1.42897 50.459 2.08645 50.4644L2.08808 50.2644C1.53693 50.2599 1.09697 49.82 1.10002 49.2852L0.900019 49.284ZM0.900017 44.9734V49.2846H1.10002V44.9734H0.900017ZM2.08636 43.7966C1.43047 43.8026 0.89877 44.3262 0.900018 44.9736L1.10002 44.9732C1.09899 44.4396 1.53828 44.0016 2.08817 43.9966L2.08636 43.7966ZM36.8691 43.7966H2.08727V43.9966H36.8691V43.7966ZM44.3778 36.3536C44.3983 40.4355 41.041 43.767 36.8684 43.7966L36.8698 43.9966C41.1488 43.9662 44.5989 40.5487 44.5778 36.3526L44.3778 36.3536ZM37.9564 28.9096C41.4838 28.9096 44.3778 32.2347 44.3778 36.3531H44.5778C44.5778 32.1526 41.6206 28.7096 37.9564 28.7096V28.9096ZM29.2614 28.9096H37.9564V28.7096H29.2614V28.9096ZM28.0742 27.7315C28.0723 28.3793 28.6042 28.9037 29.2605 28.9096L29.2623 28.7096C28.7121 28.7046 28.2726 28.2661 28.2742 27.7321L28.0742 27.7315ZM28.0742 23.4206V27.7318H28.2742V23.4206H28.0742ZM29.2606 22.2429C28.604 22.2482 28.0717 22.7729 28.0742 23.421L28.2742 23.4203C28.2721 22.8861 28.7118 22.4473 29.2622 22.4429L29.2606 22.2429ZM37.9564 22.2429H29.2614V22.4429H37.9564V22.2429ZM44.3778 14.7983C44.3778 18.9217 41.4838 22.2429 37.9564 22.2429V22.4429C41.6206 22.4429 44.5778 19.0038 44.5778 14.7983H44.3778ZM36.8684 7.35481C41.041 7.38445 44.3983 10.7159 44.3778 14.7978L44.5778 14.7988C44.5989 10.6027 41.1488 7.18521 36.8698 7.15482L36.8684 7.35481ZM2.08727 7.35481H36.8691V7.15481H2.08727V7.35481ZM0.900018 6.17665C0.897551 6.82477 1.42983 7.34947 2.08645 7.35481L2.08808 7.15482C1.53766 7.15034 1.09798 6.71155 1.10002 6.17741L0.900018 6.17665ZM0.900017 1.86587V6.17703H1.10002V1.86587H0.900017ZM2.08636 0.68809C1.43004 0.694018 0.898159 1.21833 0.900018 1.86616L1.10002 1.86559C1.09848 1.33159 1.53791 0.893052 2.08817 0.888082L2.08636 0.68809ZM36.8691 0.688086H2.08727V0.888086H36.8691V0.688086ZM51.0993 14.7989C51.1389 7.05471 44.7713 0.744137 36.8698 0.688088L36.8684 0.888083C44.6635 0.943377 50.9383 7.16788 50.8993 14.7978L51.0993 14.7989ZM46.3473 25.65C49.4149 22.8458 51.1394 18.9081 51.0993 14.7974L50.8993 14.7993C50.9389 18.8525 49.2385 22.736 46.2123 25.5024L46.3473 25.65ZM51.0993 36.3551C51.14 32.2442 49.4154 28.3063 46.3472 25.5024L46.2123 25.65C49.239 28.416 50.9395 32.2998 50.8993 36.3531L51.0993 36.3551ZM7.62249 33.1191V28.8089H7.42249V33.1191H7.62249ZM36.8681 33.0191H7.52249V33.2191H36.8681V33.0191ZM40.2693 36.3524C40.2693 34.5095 38.7446 33.0191 36.8681 33.0191V33.2191C38.6381 33.2191 40.0693 34.6239 40.0693 36.3524H40.2693ZM36.8681 39.6858C38.7446 39.6858 40.2693 38.1953 40.2693 36.3524H40.0693C40.0693 38.081 38.6381 39.4858 36.8681 39.4858V39.6858ZM2.08726 39.6858H36.8681V39.4858H2.08726V39.6858ZM0.900009 38.5076C0.897542 39.1557 1.42982 39.6804 2.08644 39.6858L2.08807 39.4858C1.53765 39.4813 1.09797 39.0425 1.10001 38.5084L0.900009 38.5076ZM0.900008 12.6431V38.508H1.10001V12.6431H0.900008ZM2.08746 11.4643C1.43027 11.4696 0.897542 11.9948 0.900008 12.6434L1.10001 12.6427C1.09797 12.108 1.5381 11.6688 2.08908 11.6643L2.08746 11.4643ZM36.8691 11.4643H2.08827V11.6643H36.8691V11.4643ZM40.2703 14.7977C40.2703 12.9547 38.7456 11.4643 36.8691 11.4643V11.6643C38.6391 11.6643 40.0703 13.0691 40.0703 14.7977H40.2703ZM36.8691 18.131C38.7456 18.131 40.2703 16.6406 40.2703 14.7977H40.0703C40.0703 16.5262 38.6391 17.931 36.8691 17.931V18.131ZM7.52249 18.131H36.8691V17.931H7.52249V18.131ZM7.62249 22.3422V18.031H7.42249V22.3422H7.62249ZM22.7399 22.2422H7.52249V22.4422H22.7399V22.2422ZM23.9262 23.4203C23.9286 22.7726 23.397 22.2481 22.7408 22.2422L22.739 22.4422C23.2891 22.4471 23.7282 22.8858 23.7262 23.4196L23.9262 23.4203ZM23.9262 27.7311V23.42H23.7262V27.7311H23.9262ZM22.7409 28.9089C23.3968 28.9024 23.928 28.3782 23.9262 27.7308L23.7262 27.7314C23.7277 28.265 23.2888 28.7034 22.7389 28.7089L22.7409 28.9089ZM7.52249 28.9089H22.7399V28.7089H7.52249V28.9089Z" fill="#6A7FF9"/>
</svg>
