<svg width="47" height="52" viewBox="0 0 47 52" fill="none" xmlns="http://www.w3.org/2000/svg">
<path fill-rule="evenodd" clip-rule="evenodd" d="M0.900024 18.5023C0.900024 8.41591 9.15207 0.25 19.3182 0.25H39.1065C42.6652 0.25 45.5608 3.10958 45.5608 6.65022C45.5608 10.1908 42.6652 13.0504 39.1065 13.0504H19.3182C18.9913 13.0504 18.6719 13.0785 18.362 13.1321C17.1172 13.4355 16.2014 14.5475 16.2014 15.8625C16.2014 17.4097 17.4692 18.6745 19.0462 18.6745H19.0491L20.2427 18.678H39.1065C42.6652 18.678 45.5608 21.5375 45.5608 25.0782C45.5608 28.6188 42.6652 31.4784 39.1065 31.4784H19.3182C16.2693 31.4784 13.8086 33.9252 13.8086 36.9302V43.5061C13.8086 47.0469 10.913 49.9063 7.35433 49.9063C3.79567 49.9063 0.900024 47.0469 0.900024 43.5061V18.5023ZM19.1639 43.5296C19.1639 39.989 22.0595 37.1293 25.6182 37.1293H39.0579C42.6166 37.1293 45.5123 39.989 45.5123 43.5296C45.5123 47.0702 42.6166 49.9298 39.0579 49.9298H25.6182C22.0595 49.9298 19.1639 47.0702 19.1639 43.5296Z" fill="#999999"/>
</svg>
