<svg width="20" height="20" viewBox="0 0 20 20" fill="none" xmlns="http://www.w3.org/2000/svg">
<circle cx="9.85707" cy="9.90657" r="9.32143" fill="white"/>
<path d="M7.70606 12.9181L5.19645 10.4085C5.13082 10.3421 5.05266 10.2893 4.9665 10.2533C4.88034 10.2173 4.7879 10.1988 4.69452 10.1988C4.60115 10.1988 4.5087 10.2173 4.42254 10.2533C4.33638 10.2893 4.25822 10.3421 4.1926 10.4085C4.12617 10.4741 4.07343 10.5523 4.03744 10.6384C4.00144 10.7246 3.98291 10.817 3.98291 10.9104C3.98291 11.0038 4.00144 11.0962 4.03744 11.1824C4.07343 11.2686 4.12617 11.3467 4.1926 11.4123L7.19697 14.4167C7.47661 14.6964 7.92834 14.6964 8.20798 14.4167L15.8085 6.82334C15.875 6.75771 15.9277 6.67955 15.9637 6.5934C15.9997 6.50724 16.0182 6.41479 16.0182 6.32141C16.0182 6.22804 15.9997 6.13559 15.9637 6.04943C15.9277 5.96327 15.875 5.88512 15.8085 5.81949C15.7429 5.75307 15.6648 5.70033 15.5786 5.66433C15.4924 5.62834 15.4 5.6098 15.3066 5.6098C15.2132 5.6098 15.1208 5.62834 15.0346 5.66433C14.9485 5.70033 14.8703 5.75307 14.8047 5.81949L7.70606 12.9181Z" fill="#234A6C"/>
</svg>
