<svg width="110" height="110" viewBox="0 0 110 110" fill="none" xmlns="http://www.w3.org/2000/svg">
<g filter="url(#filter0_d)">
<circle cx="55" cy="51" r="50" fill="url(#paint0_linear)"/>
</g>
<g clip-path="url(#clip0)">
<path d="M51.8639 63.7144C52.1873 64.0379 52.1873 64.5624 51.8639 64.8858C51.5404 65.2088 51.0164 65.2088 50.6929 64.8858L40.2028 54.3928C39.8793 54.0699 39.8793 53.5454 40.2028 53.2219C40.5262 52.8985 41.0502 52.8985 41.3737 53.2219L51.8639 63.7144ZM48.8756 66.7032C49.199 67.0266 49.199 67.5506 48.8756 67.8741C48.5521 68.1976 48.0277 68.1976 47.7042 67.8741L37.2126 57.3839C36.8892 57.0605 36.8892 56.5364 37.2126 56.213C37.5361 55.8895 38.0605 55.8895 38.384 56.213L48.8756 66.7032ZM80.3036 25.8796C78.7903 24.4527 76.6786 23.8492 74.6394 24.2614C72.5555 24.6528 70.6434 25.6791 69.1651 27.1998C68.3967 27.9659 67.7433 28.8392 67.2249 29.793L56.0915 29.9866C54.7463 30.006 53.4622 30.5512 52.514 31.5054L28.2736 55.7463C28.1161 55.9002 28.0273 56.1109 28.0273 56.3308C28.0273 56.5508 28.1161 56.7615 28.2736 56.9149L48.1704 76.8168C48.4934 77.1384 49.0161 77.1384 49.339 76.8168L73.5845 52.5759C74.5373 51.625 75.0821 50.3399 75.1034 48.9943L75.2688 39.469C75.2785 39.4644 75.2831 39.4644 75.2928 39.4597C76.6772 38.9075 77.9336 38.0763 78.9835 37.0181C80.5042 35.5408 81.5296 33.6283 81.9172 31.5433C81.9879 31.1228 82.0244 30.6973 82.0258 30.2708C82.0614 28.6355 81.4413 27.0542 80.3036 25.8796ZM66.3026 35.5182C66.5428 36.5837 67.0775 37.5606 67.845 38.3383C68.1278 38.6224 68.442 38.8729 68.7816 39.0859C67.8598 39.2592 66.9222 38.8752 66.3867 38.1049C65.8516 37.3346 65.8183 36.3217 66.3026 35.5182ZM73.4473 48.9657C73.4311 49.8815 73.0596 50.7553 72.4108 51.4027L48.7573 75.0563L30.0291 56.3331L53.6831 32.6745C54.3314 32.0276 55.2043 31.6566 56.1196 31.6381L66.5248 31.4583C66.3936 31.8552 66.2942 32.2619 66.2268 32.6745C66.1889 32.9014 66.1602 33.1287 66.1413 33.3556C65.9038 33.5095 65.6829 33.6888 65.4837 33.8903C63.9261 35.471 63.9353 38.012 65.5041 39.5813C67.0733 41.1505 69.6148 41.1593 71.1951 39.6016L71.1997 39.597C71.3023 39.4953 71.3984 39.3881 71.4885 39.2754C71.5638 39.1806 71.635 39.0859 71.7061 38.9819L71.72 38.9533C71.7865 38.8539 71.848 38.75 71.9048 38.646C71.9099 38.6405 71.9132 38.634 71.9141 38.6271C71.9691 38.5254 72.018 38.4214 72.061 38.3147C72.1257 38.1705 72.1793 38.0217 72.2218 37.8697C72.2551 37.7533 72.2824 37.6345 72.3022 37.5148C72.3267 37.4044 72.3443 37.2921 72.3544 37.1789V37.16C72.36 37.1147 72.3632 37.0689 72.3637 37.0227C72.3678 36.9853 72.3692 36.9474 72.3683 36.9095C72.3762 36.7672 72.3748 36.6253 72.3637 36.4835C72.3591 36.3887 72.3494 36.294 72.3355 36.1997C72.2218 35.3246 71.8207 34.5122 71.1951 33.8903C71.0301 33.7239 70.8494 33.5733 70.6554 33.4411C70.6554 33.4268 70.6604 33.4171 70.6604 33.4078C70.7298 33.0141 70.849 32.6311 71.0153 32.2674C71.0343 32.2771 71.0532 32.291 71.0722 32.3007C72.3614 33.1135 73.2569 34.424 73.5466 35.9202C73.5462 35.9257 73.5475 35.9308 73.5512 35.9345C73.548 35.9599 73.5499 35.9853 73.5563 36.0103C73.5845 36.1808 73.6127 36.3462 73.627 36.507C73.6316 36.5736 73.6367 36.6443 73.6413 36.7103C73.6515 36.8379 73.6547 36.9659 73.6506 37.0939L73.6224 38.7689V38.7879L73.4473 48.9657ZM71.9663 30.9047C71.9464 30.8909 71.9261 30.8784 71.9048 30.8669C72.0398 30.6954 72.1849 30.5328 72.3401 30.3794C73.158 29.5259 74.2152 28.94 75.3732 28.6997C75.8177 28.6239 76.6366 28.5722 77.1236 29.0592C77.6111 29.5467 77.5593 30.3655 77.4836 30.81C77.2442 31.9666 76.6583 33.0229 75.8039 33.8385C75.5243 34.1176 75.2203 34.3708 74.895 34.5954C74.3659 33.0687 73.3331 31.767 71.9663 30.9047ZM80.2847 31.2739C79.9515 33.0178 79.087 34.6162 77.8098 35.8495C77.0774 36.5847 76.2285 37.1937 75.2974 37.6521L75.3067 37.1221C75.3118 36.9613 75.3067 36.8051 75.2974 36.6443C75.2928 36.5403 75.2831 36.4312 75.2739 36.3227V36.318C75.8963 35.959 76.4688 35.52 76.9771 35.0117C78.0741 33.9499 78.8204 32.5779 79.1161 31.0799C79.2436 30.3225 79.3051 28.8984 78.2927 27.886C77.2798 26.8735 75.8603 26.9396 75.1034 27.0625C73.6058 27.362 72.2343 28.1096 71.1715 29.2061C70.8772 29.5014 70.6055 29.8175 70.3573 30.1525C70.014 30.6104 69.7234 31.1053 69.4914 31.6288C69.325 32.0003 69.1933 32.3871 69.0986 32.7831C69.0704 32.9014 69.0469 33.0197 69.0279 33.138C68.9531 33.5728 68.9401 34.0155 68.99 34.4535C69.0533 35.1587 69.3574 35.8204 69.8513 36.3273C70.0986 36.5754 70.3911 36.7746 70.7122 36.9141C70.7076 36.9659 70.703 37.0135 70.6983 37.0652C70.6886 37.1271 70.6794 37.1886 70.6651 37.2501C70.6554 37.3078 70.641 37.3647 70.6226 37.4201C70.6022 37.4959 70.5768 37.5703 70.5468 37.6428C70.5274 37.6927 70.5052 37.7417 70.4807 37.7893C70.4618 37.8318 70.4377 37.8697 70.4142 37.9122C70.3906 37.9552 70.367 37.9977 70.3384 38.0402C69.844 37.8378 69.3939 37.5402 69.0136 37.165C68.2997 36.4243 67.869 35.4563 67.7974 34.43C67.759 33.9337 67.7812 33.4346 67.8639 32.9439C67.8732 32.8732 67.8875 32.8067 67.9018 32.736C67.9896 32.2961 68.1176 31.8649 68.2849 31.4491C68.5025 30.8927 68.7784 30.3613 69.1083 29.8637C69.4655 29.3253 69.8763 28.8244 70.3338 28.3684C71.568 27.0935 73.1663 26.2308 74.9093 25.8985C75.236 25.8426 75.5668 25.814 75.8982 25.8135C76.5104 25.8089 77.1181 25.9166 77.6915 26.1305C78.2321 26.3306 78.7229 26.6453 79.13 27.0533C80.1793 28.1877 80.6105 29.7629 80.2847 31.2739Z" fill="white"/>
<path fill-rule="evenodd" clip-rule="evenodd" d="M59.4048 45.467C59.7579 45.1149 60.3295 45.1149 60.6825 45.467C61.0337 45.82 61.0337 46.3902 60.6825 46.7432L59.7787 47.6466C60.243 48.2723 60.5767 48.9853 60.7597 49.7426C60.8151 49.9866 60.7666 50.243 60.6257 50.4505C60.4847 50.6575 60.2643 50.7971 60.0166 50.835L59.8018 50.8692C59.3452 50.9431 58.9072 50.6585 58.7893 50.2116C58.6872 49.8175 58.5398 49.4362 58.3504 49.0758L56.6379 50.7888C57.6845 52.5216 58.0847 53.9263 56.8167 55.1943C55.5672 56.4451 53.8478 56.4853 52.2079 55.2183L51.737 55.6891C51.3794 56.0103 50.8332 55.9955 50.4931 55.6554C50.1535 55.3158 50.1387 54.7696 50.4594 54.412L50.9372 53.9337C50.2981 53.1167 49.8559 52.1635 49.6447 51.1478C49.5944 50.8946 49.6544 50.6321 49.8097 50.426C49.9645 50.2199 50.2002 50.0896 50.4571 50.0675L50.6775 50.0485C51.134 50.0078 51.5485 50.317 51.6391 50.7666C51.7564 51.3969 51.9907 51.9994 52.3299 52.5433L54.1209 50.7523C53.1159 49.0578 52.6737 47.6443 53.9791 46.3389C55.2091 45.1088 57.0002 45.1306 58.543 46.3283L59.4048 45.467ZM55.6971 49.1756C55.3843 48.5393 55.3949 48.1396 55.7511 47.7834C56.1448 47.4267 56.7349 47.3952 57.1642 47.7081L55.6971 49.1756ZM53.5918 53.8399C54.0313 54.1606 54.6361 54.1282 55.0386 53.7618C55.3944 53.4037 55.3898 53.0132 55.071 52.3608L53.5918 53.8399Z" fill="white"/>
</g>
<defs>
<filter id="filter0_d" x="0" y="0" width="110" height="110" filterUnits="userSpaceOnUse" color-interpolation-filters="sRGB">
<feFlood flood-opacity="0" result="BackgroundImageFix"/>
<feColorMatrix in="SourceAlpha" type="matrix" values="0 0 0 0 0 0 0 0 0 0 0 0 0 0 0 0 0 0 127 0"/>
<feOffset dy="4"/>
<feGaussianBlur stdDeviation="2.5"/>
<feColorMatrix type="matrix" values="0 0 0 0 0.27451 0 0 0 0 0.580392 0 0 0 0 0.85098 0 0 0 0.25 0"/>
<feBlend mode="normal" in2="BackgroundImageFix" result="effect1_dropShadow"/>
<feBlend mode="normal" in="SourceGraphic" in2="effect1_dropShadow" result="shape"/>
</filter>
<linearGradient id="paint0_linear" x1="28.0994" y1="0.999999" x2="119.829" y2="109.214" gradientUnits="userSpaceOnUse">
<stop stop-color="#234A6C"/>
<stop offset="1" stop-color="#4694D9"/>
</linearGradient>
<clipPath id="clip0">
<path d="M28.0273 23.6028H82.0273V77.6028H28.0273V23.6028Z" fill="white"/>
</clipPath>
</defs>
</svg>
