<svg width="110" height="110" viewBox="0 0 110 110" fill="none" xmlns="http://www.w3.org/2000/svg">
<g filter="url(#filter0_d)">
<circle cx="55" cy="51" r="50" fill="url(#paint0_linear)"/>
</g>
<g clip-path="url(#clip0)">
<path d="M77.9052 47.2278H75.2781C75.1284 46.6861 74.8064 46.2078 74.3609 45.8653C73.9153 45.5228 73.3703 45.3347 72.8083 45.3294H70.0039V38.4714C70.007 38.3431 69.976 38.2163 69.914 38.1039C69.852 37.9916 69.7612 37.8977 69.651 37.832L49.8675 26.4053C49.756 26.3405 49.6293 26.3064 49.5003 26.3064C49.3714 26.3064 49.2447 26.3405 49.1332 26.4053L29.3436 37.832C29.2316 37.8969 29.1387 37.9902 29.0743 38.1025C29.0098 38.2147 28.9761 38.342 28.9765 38.4714V61.3249C28.9765 61.4545 29.0107 61.5818 29.0755 61.694C29.1402 61.8062 29.2334 61.8994 29.3457 61.9642L49.1373 73.3909C49.2495 73.4557 49.3769 73.4899 49.5065 73.4899C49.6394 73.4899 49.7701 73.4559 49.8861 73.3909L60.3008 67.3838V71.7263C60.2997 72.1398 60.3806 72.5493 60.5389 72.9313C60.6972 73.3132 60.9296 73.66 61.2228 73.9515C61.516 74.243 61.8642 74.4734 62.247 74.6295C62.6299 74.7856 63.0399 74.8641 63.4533 74.8606H77.9052C78.3197 74.8645 78.7309 74.7863 79.115 74.6307C79.4992 74.475 79.8488 74.2449 80.1437 73.9536C80.4386 73.6623 80.673 73.3155 80.8333 72.9333C80.9937 72.551 81.0769 72.1408 81.0781 71.7263V50.4111C81.0776 49.5688 80.7435 48.761 80.1488 48.1644C79.5542 47.5678 78.7475 47.2311 77.9052 47.2278ZM72.8346 46.806C73.1188 46.806 73.3914 46.9189 73.5923 47.1198C73.7933 47.3208 73.9062 47.5934 73.9062 47.8776V47.9491C73.9062 48.2334 73.7933 48.5059 73.5923 48.7069C73.3914 48.9079 73.1188 49.0208 72.8346 49.0208H68.5443C68.2601 49.0208 67.9875 48.9079 67.7865 48.7069C67.5855 48.5059 67.4726 48.2334 67.4726 47.9491V47.8776C67.4726 47.5934 67.5855 47.3208 67.7865 47.1198C67.9875 46.9189 68.2601 46.806 68.5443 46.806H72.8346ZM49.5065 27.8972L57.7303 32.6452L39.4165 43.2186L31.1928 38.4707L49.5065 27.8972ZM48.8047 71.4728L30.4531 60.8986V39.7485L48.8047 50.3227V71.4728ZM49.5065 49.044L40.893 44.071L59.2068 33.4977L67.8207 38.4707L49.5065 49.044ZM60.3008 50.4111V65.6789L50.2812 71.4728V50.3227L68.5273 39.7485V45.3294H68.5502C67.9882 45.3347 67.4432 45.5228 66.9976 45.8653C66.552 46.2078 66.2301 46.6861 66.0804 47.2278H63.4533C62.6131 47.2319 61.809 47.5696 61.2178 48.1665C60.6265 48.7635 60.2967 49.5709 60.3008 50.4111ZM79.6015 71.7263C79.6005 71.947 79.5557 72.1653 79.4696 72.3685C79.3835 72.5717 79.2579 72.7557 79.1001 72.91C78.9422 73.0642 78.7553 73.1856 78.5502 73.2669C78.3451 73.3483 78.1258 73.3881 77.9052 73.3841H63.4533C63.2337 73.3878 63.0156 73.3476 62.8118 73.2658C62.608 73.184 62.4226 73.0623 62.2664 72.9079C62.1103 72.7535 61.9866 72.5694 61.9026 72.3665C61.8186 72.1636 61.776 71.9459 61.7773 71.7263V50.4111C61.7751 50.1889 61.8167 49.9685 61.8998 49.7624C61.9828 49.5564 62.1057 49.3687 62.2614 49.2102C62.417 49.0516 62.6025 48.9254 62.807 48.8386C63.0115 48.7518 63.2311 48.7062 63.4533 48.7044H66.1092C66.2676 49.227 66.591 49.6842 67.0311 50.0074C67.4712 50.3307 68.0042 50.5026 68.5502 50.4974H72.8083C73.3543 50.5026 73.8873 50.3307 74.3274 50.0074C74.7674 49.6842 75.0909 49.227 75.2492 48.7044H77.9052C78.356 48.7072 78.7874 48.8883 79.1052 49.208C79.423 49.5278 79.6014 49.9603 79.6015 50.4111V71.7263Z" fill="white"/>
<path d="M64.3032 57.8801H65.0759C65.2717 57.8801 65.4595 57.8023 65.598 57.6639C65.7364 57.5254 65.8142 57.3377 65.8142 57.1418C65.8142 56.946 65.7364 56.7583 65.598 56.6198C65.4595 56.4813 65.2717 56.4036 65.0759 56.4036H65.0468V54.3997H67.0831C67.1295 54.5481 67.2232 54.6772 67.35 54.7673C67.4768 54.8574 67.6296 54.9033 67.785 54.8982C67.9811 54.8987 68.1693 54.8215 68.3085 54.6834C68.4476 54.5453 68.5263 54.3577 68.5273 54.1616V53.6649C68.5256 53.4679 68.4463 53.2795 68.3066 53.1406C68.1669 53.0017 67.978 52.9236 67.781 52.9231H64.3032C64.2063 52.9236 64.1105 52.9432 64.0212 52.9807C63.932 53.0183 63.851 53.0731 63.7829 53.142C63.7148 53.2109 63.661 53.2925 63.6245 53.3823C63.588 53.472 63.5696 53.568 63.5703 53.6649V57.1427C63.5697 57.2393 63.5882 57.3351 63.6248 57.4245C63.6613 57.514 63.7152 57.5953 63.7834 57.6638C63.8515 57.7324 63.9325 57.7868 64.0217 57.8239C64.1109 57.861 64.2065 57.8801 64.3032 57.8801Z" fill="white"/>
<path d="M64.3086 64.6301H67.7891C67.9849 64.6301 68.1727 64.5523 68.3111 64.4139C68.4496 64.2754 68.5273 64.0877 68.5273 63.8918V60.4114C68.5273 60.2156 68.4496 60.0278 68.3111 59.8893C68.1727 59.7509 67.9849 59.6731 67.7891 59.6731H64.3086C64.1128 59.6731 63.925 59.7509 63.7866 59.8893C63.6481 60.0278 63.5703 60.2156 63.5703 60.4114V63.8918C63.5703 64.0877 63.6481 64.2754 63.7866 64.4139C63.925 64.5523 64.1128 64.6301 64.3086 64.6301ZM65.0469 61.1497H67.0508V63.1536H65.0469V61.1497Z" fill="white"/>
<path d="M65.0761 69.9036H65.0469V67.8997H67.0433C67.0471 68.0938 67.1268 68.2787 67.2654 68.4148C67.404 68.5508 67.5904 68.6271 67.7846 68.6273C67.9788 68.6275 68.1653 68.5515 68.3042 68.4158C68.443 68.28 68.5231 68.0953 68.5273 67.9011V67.1897C68.5266 66.9901 68.4483 66.7986 68.3091 66.6556C68.1699 66.5126 67.9805 66.4292 67.781 66.4231H64.3032C64.1051 66.4298 63.9174 66.5137 63.7805 66.657C63.6435 66.8003 63.568 66.9915 63.5703 67.1897V70.6676C63.5702 70.7629 63.5892 70.8573 63.6263 70.9451C63.6634 71.0329 63.7177 71.1124 63.786 71.1789C63.8544 71.2453 63.9354 71.2974 64.0242 71.332C64.113 71.3665 64.2079 71.3829 64.3032 71.3801H65.0761C65.2719 71.3801 65.4597 71.3023 65.5981 71.1639C65.7366 71.0254 65.8144 70.8377 65.8144 70.6418C65.8144 70.446 65.7366 70.2583 65.5981 70.1198C65.4597 69.9813 65.2719 69.9036 65.0761 69.9036Z" fill="white"/>
<path d="M69.4809 53.8294L67.3188 55.9915L66.6611 55.3337C66.5925 55.2651 66.5111 55.2107 66.4215 55.1736C66.332 55.1365 66.2359 55.1174 66.139 55.1174C66.042 55.1174 65.946 55.1365 65.8564 55.1736C65.7669 55.2107 65.6855 55.2651 65.6169 55.3337C65.5484 55.4022 65.494 55.4836 65.4569 55.5732C65.4198 55.6628 65.4007 55.7588 65.4007 55.8557C65.4007 55.9527 65.4198 56.0487 65.4569 56.1383C65.494 56.2278 65.5484 56.3092 65.6169 56.3778L66.7968 57.5576C66.8654 57.6261 66.9467 57.6805 67.0363 57.7176C67.1259 57.7547 67.2219 57.7738 67.3189 57.7738C67.4158 57.7738 67.5118 57.7547 67.6014 57.7176C67.691 57.6805 67.7724 57.6261 67.8409 57.5576L70.5253 54.8732C70.6638 54.7347 70.7416 54.5469 70.7416 54.3511C70.7416 54.1553 70.6638 53.9675 70.5253 53.829C70.3869 53.6906 70.1991 53.6128 70.0033 53.6128C69.8074 53.6128 69.6196 53.6906 69.4812 53.829L69.4809 53.8294Z" fill="white"/>
<path d="M69.4809 67.461L67.3188 69.6231L66.6611 68.9653C66.5925 68.8967 66.5111 68.8423 66.4215 68.8052C66.332 68.7681 66.2359 68.749 66.139 68.749C66.042 68.749 65.946 68.7681 65.8564 68.8052C65.7669 68.8423 65.6855 68.8967 65.6169 68.9653C65.5484 69.0338 65.494 69.1152 65.4569 69.2048C65.4198 69.2944 65.4007 69.3904 65.4007 69.4873C65.4007 69.5843 65.4198 69.6803 65.4569 69.7699C65.494 69.8594 65.5484 69.9408 65.6169 70.0094L66.7968 71.1892C66.8654 71.2577 66.9467 71.3121 67.0363 71.3492C67.1259 71.3863 67.2219 71.4054 67.3189 71.4054C67.4158 71.4054 67.5118 71.3863 67.6014 71.3492C67.691 71.3121 67.7724 71.2577 67.8409 71.1892L70.5253 68.5048C70.6638 68.3663 70.7416 68.1785 70.7416 67.9827C70.7416 67.7869 70.6638 67.5991 70.5253 67.4606C70.3869 67.3222 70.1991 67.2444 70.0033 67.2444C69.8074 67.2444 69.6196 67.3222 69.4812 67.4606L69.4809 67.461Z" fill="white"/>
<path d="M77.0552 54.7161H72.4182C72.2223 54.7161 72.0346 54.7938 71.8961 54.9323C71.7577 55.0708 71.6799 55.2585 71.6799 55.4543C71.6799 55.6502 71.7577 55.8379 71.8961 55.9764C72.0346 56.1148 72.2223 56.1926 72.4182 56.1926H77.0552C77.251 56.1926 77.4388 56.1148 77.5772 55.9764C77.7157 55.8379 77.7935 55.6502 77.7935 55.4543C77.7935 55.2585 77.7157 55.0708 77.5772 54.9323C77.4388 54.7938 77.251 54.7161 77.0552 54.7161Z" fill="white"/>
<path d="M77.0552 61.4661H72.4182C72.2223 61.4661 72.0346 61.5438 71.8961 61.6823C71.7577 61.8208 71.6799 62.0085 71.6799 62.2043C71.6799 62.4002 71.7577 62.5879 71.8961 62.7264C72.0346 62.8648 72.2223 62.9426 72.4182 62.9426H77.0552C77.251 62.9426 77.4388 62.8648 77.5772 62.7264C77.7157 62.5879 77.7935 62.4002 77.7935 62.2043C77.7935 62.0085 77.7157 61.8208 77.5772 61.6823C77.4388 61.5438 77.251 61.4661 77.0552 61.4661Z" fill="white"/>
<path d="M77.0552 68.2161H72.4182C72.2223 68.2161 72.0346 68.2938 71.8961 68.4323C71.7577 68.5708 71.6799 68.7585 71.6799 68.9543C71.6799 69.1502 71.7577 69.3379 71.8961 69.4764C72.0346 69.6148 72.2223 69.6926 72.4182 69.6926H77.0552C77.251 69.6926 77.4388 69.6148 77.5772 69.4764C77.7157 69.3379 77.7935 69.1502 77.7935 68.9543C77.7935 68.7585 77.7157 68.5708 77.5772 68.4323C77.4388 68.2938 77.251 68.2161 77.0552 68.2161Z" fill="white"/>
</g>
<defs>
<filter id="filter0_d" x="0" y="0" width="110" height="110" filterUnits="userSpaceOnUse" color-interpolation-filters="sRGB">
<feFlood flood-opacity="0" result="BackgroundImageFix"/>
<feColorMatrix in="SourceAlpha" type="matrix" values="0 0 0 0 0 0 0 0 0 0 0 0 0 0 0 0 0 0 127 0"/>
<feOffset dy="4"/>
<feGaussianBlur stdDeviation="2.5"/>
<feColorMatrix type="matrix" values="0 0 0 0 0.27451 0 0 0 0 0.580392 0 0 0 0 0.85098 0 0 0 0.25 0"/>
<feBlend mode="normal" in2="BackgroundImageFix" result="effect1_dropShadow"/>
<feBlend mode="normal" in="SourceGraphic" in2="effect1_dropShadow" result="shape"/>
</filter>
<linearGradient id="paint0_linear" x1="28.0994" y1="0.999999" x2="119.829" y2="109.214" gradientUnits="userSpaceOnUse">
<stop stop-color="#234A6C"/>
<stop offset="1" stop-color="#4694D9"/>
</linearGradient>
<clipPath id="clip0">
<path d="M28.0273 23.6028H82.0273V77.6028H28.0273V23.6028Z" fill="white"/>
</clipPath>
</defs>
</svg>
