<svg width="110" height="110" viewBox="0 0 110 110" fill="none" xmlns="http://www.w3.org/2000/svg">
<g filter="url(#filter0_d)">
<circle cx="55" cy="51" r="50" fill="url(#paint0_linear)"/>
</g>
<path d="M77.8086 26.134H32.2461C31.575 26.1348 30.9316 26.4018 30.4571 26.8763C29.9826 27.3508 29.7156 27.9942 29.7148 28.6653V72.5403C29.7156 73.2114 29.9826 73.8548 30.4571 74.3293C30.9316 74.8038 31.575 75.0708 32.2461 75.0715H77.8086C78.4797 75.0708 79.1231 74.8038 79.5976 74.3293C80.0721 73.8548 80.3391 73.2114 80.3398 72.5403V28.6653C80.3391 27.9942 80.0721 27.3508 79.5976 26.8763C79.1231 26.4018 78.4797 26.1348 77.8086 26.134ZM32.2461 27.8215H77.8086C78.0323 27.8218 78.2468 27.9108 78.4049 28.0689C78.5631 28.2271 78.6521 28.4416 78.6523 28.6653V32.884H31.4023V28.6653C31.4026 28.4416 31.4916 28.2271 31.6497 28.0689C31.8079 27.9108 32.0224 27.8218 32.2461 27.8215ZM77.8086 73.384H32.2461C32.0224 73.3838 31.8079 73.2948 31.6497 73.1366C31.4916 72.9785 31.4026 72.764 31.4023 72.5403V34.5715H78.6523V72.5403C78.6521 72.764 78.5631 72.9785 78.4049 73.1366C78.2468 73.2948 78.0323 73.3838 77.8086 73.384Z" fill="white"/>
<path d="M40.6836 31.1965C41.1496 31.1965 41.5273 30.8188 41.5273 30.3528C41.5273 29.8868 41.1496 29.509 40.6836 29.509C40.2176 29.509 39.8398 29.8868 39.8398 30.3528C39.8398 30.8188 40.2176 31.1965 40.6836 31.1965Z" fill="white"/>
<path d="M37.3086 31.1965C37.7746 31.1965 38.1523 30.8188 38.1523 30.3528C38.1523 29.8868 37.7746 29.509 37.3086 29.509C36.8426 29.509 36.4648 29.8868 36.4648 30.3528C36.4648 30.8188 36.8426 31.1965 37.3086 31.1965Z" fill="white"/>
<path d="M33.9336 31.1965C34.3996 31.1965 34.7773 30.8188 34.7773 30.3528C34.7773 29.8868 34.3996 29.509 33.9336 29.509C33.4676 29.509 33.0898 29.8868 33.0898 30.3528C33.0898 30.8188 33.4676 31.1965 33.9336 31.1965Z" fill="white"/>
<path d="M50.8086 39.634H59.2461C59.4699 39.634 59.6845 39.5451 59.8427 39.3869C60.0009 39.2287 60.0898 39.0141 60.0898 38.7903C60.0898 38.5665 60.0009 38.3519 59.8427 38.1937C59.6845 38.0354 59.4699 37.9465 59.2461 37.9465H50.8086C50.5848 37.9465 50.3702 38.0354 50.212 38.1937C50.0537 38.3519 49.9648 38.5665 49.9648 38.7903C49.9648 39.0141 50.0537 39.2287 50.212 39.3869C50.3702 39.5451 50.5848 39.634 50.8086 39.634Z" fill="white"/>
<path d="M65.1523 41.3215H44.9023C44.6786 41.3215 44.464 41.4104 44.3057 41.5687C44.1475 41.7269 44.0586 41.9415 44.0586 42.1653V45.5403C44.0586 45.7641 44.1475 45.9787 44.3057 46.1369C44.464 46.2951 44.6786 46.384 44.9023 46.384H65.1523C65.3761 46.384 65.5907 46.2951 65.749 46.1369C65.9072 45.9787 65.9961 45.7641 65.9961 45.5403V42.1653C65.9961 41.9415 65.9072 41.7269 65.749 41.5687C65.5907 41.4104 65.3761 41.3215 65.1523 41.3215ZM64.3086 44.6965H45.7461V43.009H64.3086V44.6965Z" fill="white"/>
<path d="M65.1523 48.0715H44.9023C44.6786 48.0715 44.464 48.1604 44.3057 48.3187C44.1475 48.4769 44.0586 48.6915 44.0586 48.9153V52.2903C44.0586 52.5141 44.1475 52.7287 44.3057 52.8869C44.464 53.0451 44.6786 53.134 44.9023 53.134H65.1523C65.3761 53.134 65.5907 53.0451 65.749 52.8869C65.9072 52.7287 65.9961 52.5141 65.9961 52.2903V48.9153C65.9961 48.6915 65.9072 48.4769 65.749 48.3187C65.5907 48.1604 65.3761 48.0715 65.1523 48.0715ZM64.3086 51.4465H45.7461V49.759H64.3086V51.4465Z" fill="white"/>
<path d="M65.1523 54.8215H44.9023C44.6786 54.8215 44.464 54.9104 44.3057 55.0687C44.1475 55.2269 44.0586 55.4415 44.0586 55.6653V62.4153C44.0586 62.6391 44.1475 62.8537 44.3057 63.0119C44.464 63.1701 44.6786 63.259 44.9023 63.259H65.1523C65.3761 63.259 65.5907 63.1701 65.749 63.0119C65.9072 62.8537 65.9961 62.6391 65.9961 62.4153V55.6653C65.9961 55.4415 65.9072 55.2269 65.749 55.0687C65.5907 54.9104 65.3761 54.8215 65.1523 54.8215ZM64.3086 61.5715H45.7461V56.509H64.3086V61.5715Z" fill="white"/>
<path d="M56.7148 64.9465H53.3398C52.6685 64.9465 52.0247 65.2132 51.55 65.6879C51.0753 66.1626 50.8086 66.8065 50.8086 67.4778C50.8086 68.1491 51.0753 68.7929 51.55 69.2676C52.0247 69.7423 52.6685 70.009 53.3398 70.009H56.7148C57.3862 70.009 58.03 69.7423 58.5047 69.2676C58.9794 68.7929 59.2461 68.1491 59.2461 67.4778C59.2461 66.8065 58.9794 66.1626 58.5047 65.6879C58.03 65.2132 57.3862 64.9465 56.7148 64.9465ZM56.7148 68.3215H53.3398C53.1161 68.3215 52.9015 68.2326 52.7432 68.0744C52.585 67.9162 52.4961 67.7016 52.4961 67.4778C52.4961 67.254 52.585 67.0394 52.7432 66.8812C52.9015 66.7229 53.1161 66.634 53.3398 66.634H56.7148C56.9386 66.634 57.1532 66.7229 57.3115 66.8812C57.4697 67.0394 57.5586 67.254 57.5586 67.4778C57.5586 67.7016 57.4697 67.9162 57.3115 68.0744C57.1532 68.2326 56.9386 68.3215 56.7148 68.3215Z" fill="white"/>
<defs>
<filter id="filter0_d" x="0" y="0" width="110" height="110" filterUnits="userSpaceOnUse" color-interpolation-filters="sRGB">
<feFlood flood-opacity="0" result="BackgroundImageFix"/>
<feColorMatrix in="SourceAlpha" type="matrix" values="0 0 0 0 0 0 0 0 0 0 0 0 0 0 0 0 0 0 127 0"/>
<feOffset dy="4"/>
<feGaussianBlur stdDeviation="2.5"/>
<feColorMatrix type="matrix" values="0 0 0 0 0.27451 0 0 0 0 0.580392 0 0 0 0 0.85098 0 0 0 0.25 0"/>
<feBlend mode="normal" in2="BackgroundImageFix" result="effect1_dropShadow"/>
<feBlend mode="normal" in="SourceGraphic" in2="effect1_dropShadow" result="shape"/>
</filter>
<linearGradient id="paint0_linear" x1="28.0994" y1="0.999999" x2="119.829" y2="109.214" gradientUnits="userSpaceOnUse">
<stop stop-color="#234A6C"/>
<stop offset="1" stop-color="#4694D9"/>
</linearGradient>
</defs>
</svg>
