<svg width="34" height="34" viewBox="0 0 34 34" fill="none" xmlns="http://www.w3.org/2000/svg">
<rect opacity="0.3" x="1" y="1" width="32" height="32" rx="16" stroke="white"/>
<path fill-rule="evenodd" clip-rule="evenodd" d="M13.4688 17.9388L10.2488 16.7538C9.91876 16.6328 9.91876 16.1778 10.2388 16.0538L23.4788 11.0258C23.7588 10.9188 24.0488 11.1608 23.9888 11.4508L21.6188 22.7018C21.5588 22.9668 21.2388 23.0878 21.0188 22.9278L17.7788 20.6098C17.5788 20.4688 17.3088 20.4768 17.1188 20.6278L15.3188 22.0708C15.1188 22.2388 14.7988 22.1458 14.7188 21.8918L13.4688 17.9388ZM20.8288 13.4858L14.5188 17.3078C14.2788 17.4548 14.1688 17.7418 14.2388 18.0108L14.9188 20.3688C14.9688 20.5358 15.2188 20.5188 15.2388 20.3468L15.4188 19.0538C15.4488 18.8098 15.5688 18.5858 15.7488 18.4178L20.9588 13.6568C21.0588 13.5678 20.9388 13.4168 20.8288 13.4858Z" fill="white"/>
</svg>
