<svg width="34" height="34" viewBox="0 0 34 34" fill="none" xmlns="http://www.w3.org/2000/svg">
<rect opacity="0.3" x="1" y="1" width="32" height="32" rx="16" stroke="white"/>
<path d="M24 12.42C23.48 12.661 22.93 12.824 22.35 12.897C22.94 12.522 23.4 11.928 23.61 11.222C23.06 11.569 22.44 11.821 21.79 11.957C21.26 11.367 20.52 11 19.69 11C18.11 11 16.82 12.357 16.82 14.03C16.82 14.267 16.85 14.499 16.89 14.72C14.51 14.594 12.39 13.387 10.98 11.554C10.73 12.001 10.59 12.521 10.59 13.077C10.59 14.129 11.09 15.056 11.86 15.599C11.39 15.582 10.95 15.446 10.56 15.219V15.257C10.56 16.724 11.55 17.949 12.87 18.228C12.63 18.297 12.37 18.334 12.11 18.334C11.92 18.334 11.75 18.315 11.57 18.278C11.94 19.483 13 20.359 14.25 20.383C13.27 21.195 12.03 21.678 10.68 21.678C10.45 21.678 10.22 21.663 10 21.637C11.27 22.498 12.78 23 14.4 23C19.69 23 22.57 18.382 22.57 14.378L22.56 13.985C23.13 13.561 23.62 13.027 24 12.42Z" fill="white"/>
</svg>
