<svg width="76" height="76" viewBox="0 0 76 76" fill="none" xmlns="http://www.w3.org/2000/svg">
<g filter="url(#filter0_d)">
<circle cx="38" cy="34" r="33" fill="url(#paint0_linear)"/>
</g>
<path d="M53.3826 35.91C53.3279 35.9018 53.272 35.9044 53.2182 35.9178C53.1645 35.9311 53.1138 35.9549 53.0693 35.9879C53.0247 36.0208 52.9871 36.0622 52.9585 36.1096C52.9299 36.1571 52.911 36.2097 52.9028 36.2645C52.3915 39.6229 50.7647 42.7114 48.2844 45.0325C46.2077 46.9598 43.6262 48.2574 40.8405 48.7741C38.0549 49.2909 35.1797 49.0054 32.55 47.9511C29.9203 46.8968 27.6443 45.1169 25.9871 42.819C24.33 40.521 23.3599 37.7994 23.1898 34.9713C23.1613 34.528 23.1525 34.0822 23.1626 33.6383L24.1635 34.6631C24.2022 34.7027 24.2484 34.7343 24.2993 34.7561C24.3502 34.7779 24.405 34.7895 24.4604 34.7901C24.5158 34.7908 24.5708 34.7805 24.6222 34.7599C24.6736 34.7393 24.7205 34.7088 24.7601 34.67C24.7997 34.6313 24.8314 34.5852 24.8532 34.5342C24.875 34.4833 24.8865 34.4286 24.8872 34.3732C24.8878 34.3178 24.8775 34.2628 24.8569 34.2114C24.8363 34.1599 24.8058 34.1131 24.7671 34.0734L23.107 32.3741C23.068 32.3342 23.0216 32.3025 22.9703 32.2807C22.919 32.2589 22.8638 32.2474 22.8081 32.2471H22.8055C22.6939 32.2471 22.5868 32.2913 22.5077 32.3701L20.8273 34.0448C20.788 34.0839 20.7569 34.1304 20.7356 34.1815C20.7143 34.2327 20.7033 34.2875 20.7032 34.343C20.7031 34.3984 20.7139 34.4532 20.735 34.5045C20.7562 34.5557 20.7872 34.6022 20.8263 34.6415C20.8654 34.6807 20.9118 34.7119 20.963 34.7332C21.0141 34.7545 21.069 34.7655 21.1244 34.7656C21.1798 34.7657 21.2347 34.7548 21.2859 34.7337C21.3371 34.7126 21.3837 34.6816 21.4229 34.6425L22.3168 33.7516C22.3106 34.1762 22.3206 34.6019 22.3478 35.0255C22.4747 37.1063 23.0117 39.1414 23.9278 41.014C24.8438 42.8866 26.121 44.5596 27.6858 45.937C30.5518 48.4874 34.2556 49.8948 38.0921 49.891C38.438 49.891 38.7854 49.8797 39.1343 49.8571C42.7644 49.617 46.2002 48.1305 48.8606 45.6491C51.4798 43.1979 53.1977 39.9364 53.7374 36.39C53.7457 36.3351 53.743 36.2792 53.7297 36.2255C53.7163 36.1717 53.6925 36.121 53.6595 36.0765C53.6266 36.0319 53.5851 35.9942 53.5376 35.9657C53.4901 35.9371 53.4375 35.9182 53.3826 35.91Z" fill="white"/>
<path d="M55.1252 30.8392C55.0351 30.7728 54.9223 30.745 54.8117 30.7618C54.7011 30.7786 54.6017 30.8386 54.5353 30.9287L53.7814 31.9524C53.3002 28.1272 51.4369 24.61 48.5426 22.0631C45.707 19.5528 42.0611 18.1494 38.2741 18.1108C34.4871 18.0722 30.8133 19.4008 27.927 21.8528C25.395 23.9949 23.5998 26.8782 22.7948 30.0957C22.7689 30.2037 22.7867 30.3175 22.8442 30.4126C22.9017 30.5076 22.9944 30.576 23.1021 30.6032C23.2098 30.6303 23.3238 30.6138 23.4195 30.5574C23.5151 30.501 23.5846 30.4091 23.613 30.3017C24.3754 27.2548 26.0755 24.5243 28.4734 22.4958C31.205 20.1752 34.6819 18.9179 38.2659 18.9546C41.8499 18.9912 45.3004 20.3195 47.9839 22.6954C50.7574 25.1361 52.5301 28.5165 52.9604 32.186L51.8238 31.3316C51.7344 31.2644 51.6219 31.2354 51.5111 31.2511C51.4003 31.2668 51.3003 31.3259 51.2331 31.4154C51.1659 31.5048 51.1369 31.6173 51.1527 31.7281C51.1684 31.8389 51.2274 31.9389 51.3169 32.0061L53.2117 33.4305C53.2848 33.4853 53.3737 33.5149 53.4651 33.5149C53.4857 33.5149 53.5062 33.5134 53.5265 33.5104C53.5816 33.5023 53.6346 33.4834 53.6824 33.4547C53.7302 33.426 53.7718 33.3881 53.8049 33.3432L55.2147 31.4288C55.2809 31.3387 55.3087 31.226 55.2919 31.1154C55.2751 31.0049 55.2152 30.9055 55.1252 30.8392Z" fill="white"/>
<path d="M42.2275 26.6448C42.1795 26.6172 42.1265 26.5993 42.0715 26.5921C42.0166 26.585 41.9608 26.5888 41.9073 26.6032C41.8538 26.6176 41.8036 26.6424 41.7597 26.6762C41.7158 26.71 41.679 26.7522 41.6514 26.8002L33.8365 40.3903C33.8077 40.4384 33.7888 40.4917 33.7808 40.5472C33.7729 40.6026 33.776 40.6591 33.7902 40.7133C33.8043 40.7675 33.829 40.8184 33.863 40.8629C33.897 40.9075 33.9395 40.9448 33.9881 40.9727C34.0366 41.0007 34.0902 41.0187 34.1458 41.0256C34.2014 41.0326 34.2578 41.0285 34.3118 41.0134C34.3657 40.9984 34.4162 40.9727 34.4601 40.938C34.5041 40.9032 34.5406 40.8601 34.5677 40.811L42.3829 27.2209C42.4105 27.1728 42.4284 27.1198 42.4355 27.0649C42.4427 27.01 42.4389 26.9541 42.4245 26.9007C42.4101 26.8472 42.3852 26.797 42.3514 26.7531C42.3176 26.7092 42.2755 26.6724 42.2275 26.6448Z" fill="white"/>
<path d="M40.5248 33.9085C39.9435 34.7579 39.6233 35.8795 39.6233 37.0666C39.6233 38.2537 39.9435 39.3753 40.5248 40.2247C41.1397 41.123 41.9733 41.6177 42.8715 41.6177C43.7698 41.6177 44.6033 41.123 45.2181 40.2247C45.7995 39.3753 46.1197 38.2538 46.1197 37.0666C46.1197 35.8795 45.7995 34.7579 45.2181 33.9085C44.6033 33.0102 43.7697 32.5155 42.8715 32.5155C41.9733 32.5155 41.1397 33.0103 40.5248 33.9085ZM42.8715 33.3593C44.1973 33.3593 45.2762 35.0224 45.2762 37.0666C45.2762 39.1108 44.1976 40.774 42.8715 40.774C41.5454 40.774 40.4668 39.1109 40.4668 37.0666C40.4668 35.0224 41.5457 33.3593 42.8715 33.3593V33.3593Z" fill="white"/>
<path d="M33.1284 26.5886C32.23 26.5886 31.3966 27.0833 30.7818 27.9817C30.2004 28.831 29.8802 29.9527 29.8802 31.1397C29.8802 32.3268 30.2004 33.4485 30.7818 34.2978C31.3966 35.1961 32.2302 35.6909 33.1284 35.6909C34.0266 35.6909 34.8602 35.1961 35.4751 34.2978C36.0564 33.4485 36.3766 32.3269 36.3766 31.1397C36.3766 29.9526 36.0564 28.831 35.4751 27.9817C34.8602 27.0833 34.0268 26.5886 33.1284 26.5886ZM33.1284 34.8471C31.8026 34.8471 30.7237 33.184 30.7237 31.1397C30.7237 29.0955 31.8023 27.4324 33.1284 27.4324C34.4545 27.4324 35.5331 29.0955 35.5331 31.1397C35.5331 33.1839 34.4542 34.8471 33.1284 34.8471Z" fill="white"/>
<defs>
<filter id="filter0_d" x="0" y="0" width="76" height="76" filterUnits="userSpaceOnUse" color-interpolation-filters="sRGB">
<feFlood flood-opacity="0" result="BackgroundImageFix"/>
<feColorMatrix in="SourceAlpha" type="matrix" values="0 0 0 0 0 0 0 0 0 0 0 0 0 0 0 0 0 0 127 0"/>
<feOffset dy="4"/>
<feGaussianBlur stdDeviation="2.5"/>
<feColorMatrix type="matrix" values="0 0 0 0 0.152941 0 0 0 0 0.682353 0 0 0 0 0.376471 0 0 0 0.2 0"/>
<feBlend mode="normal" in2="BackgroundImageFix" result="effect1_dropShadow"/>
<feBlend mode="normal" in="SourceGraphic" in2="effect1_dropShadow" result="shape"/>
</filter>
<linearGradient id="paint0_linear" x1="20.5" y1="1" x2="57.5" y2="60.5" gradientUnits="userSpaceOnUse">
<stop stop-color="#27AE60"/>
<stop offset="1" stop-color="#59D18C"/>
</linearGradient>
</defs>
</svg>
