<svg width="76" height="76" viewBox="0 0 76 76" fill="none" xmlns="http://www.w3.org/2000/svg">
<g filter="url(#filter0_d)">
<circle cx="38" cy="34" r="33" fill="url(#paint0_linear)"/>
</g>
<g clip-path="url(#clip0)">
<path d="M52.8005 29.2314L52.6052 28.2413C51.9511 24.9022 50.1218 21.8897 47.4326 19.7229C44.7434 17.5561 41.3626 16.3706 37.8725 16.3706C34.3825 16.3706 31.0016 17.5561 28.3124 19.7229C25.6232 21.8897 23.794 24.9022 23.1398 28.2413L22.9453 29.2336C22.1803 29.3523 21.4836 29.7325 20.9802 30.3061C20.4768 30.8796 20.1995 31.6091 20.1981 32.3636V38.0047C20.1981 38.848 20.5417 39.6569 21.1536 40.2536C21.7655 40.8502 22.5955 41.1859 23.4613 41.1869H26.5472C28.7583 46.5126 33.0025 51.4355 37.8733 51.4355C41.066 51.4355 43.9811 49.323 46.2383 46.373H49.5506C50.4156 46.3719 51.2449 46.0366 51.8565 45.4407C52.4681 44.8449 52.8121 44.0371 52.8131 43.1945V41.1333C53.579 41.0159 54.2768 40.6364 54.7814 40.063C55.286 39.4897 55.5643 38.7599 55.5663 38.0047V32.3636C55.5648 31.606 55.2852 30.8738 54.778 30.2994C54.2708 29.725 53.5694 29.3462 52.8005 29.2314ZM37.8733 17.827C41.0154 17.8303 44.0585 18.8983 46.4805 20.848C48.9025 22.7976 50.5526 25.5074 51.1477 28.5125L51.2791 29.183H49.8736C48.9091 26.8518 47.2512 24.8548 45.1127 23.4485C42.9742 22.0422 40.4528 21.2907 37.8725 21.2907C35.2922 21.2907 32.7709 22.0422 30.6324 23.4485C28.4939 24.8548 26.8359 26.8518 25.8715 29.183H24.4659L24.5981 28.5125C25.1934 25.5074 26.8436 22.7975 29.2657 20.8479C31.6879 18.8982 34.7311 17.8302 37.8733 17.827ZM37.8733 22.7377C40.7677 22.742 43.5534 23.8118 45.6721 25.7325C47.7907 27.6533 49.0857 30.2832 49.2974 33.0948H40.6807L38.5564 28.6029C38.4968 28.4779 38.4017 28.372 38.2824 28.2979C38.1631 28.2237 38.0245 28.1843 37.8829 28.1843C37.7414 28.1843 37.6028 28.2237 37.4835 28.2979C37.3641 28.372 37.2691 28.4779 37.2095 28.6029L35.0562 33.1013L26.4469 33.1787C26.6394 30.3523 27.926 27.7023 30.047 25.7642C32.168 23.8262 34.9651 22.7445 37.8733 22.7377ZM23.4613 39.7404C22.9894 39.7395 22.5371 39.5562 22.2037 39.2308C21.8703 38.9054 21.6831 38.4644 21.6831 38.0047V32.3636C21.6831 31.9039 21.8703 31.463 22.2037 31.1376C22.5371 30.8122 22.9894 30.6289 23.4613 30.6279H25.38C24.6998 33.0832 24.6738 35.8568 26 39.7354L23.4613 39.7404ZM37.8733 49.9891C31.7929 49.9891 26.7967 40.7095 26.4306 34.6259L35.5351 34.5441C35.6756 34.5433 35.813 34.5036 35.9313 34.4298C36.0496 34.3559 36.144 34.2509 36.2034 34.1268L37.8777 30.6279L39.5313 34.1225C39.5906 34.2481 39.6856 34.3545 39.8051 34.4291C39.9246 34.5037 40.0635 34.5434 40.2055 34.5434H49.3211C48.98 38.2648 47.6647 41.8387 45.501 44.9237H37.8822C37.6853 44.9237 37.4964 44.9999 37.3572 45.1355C37.2179 45.2712 37.1397 45.4551 37.1397 45.6469C37.1397 45.8387 37.2179 46.0227 37.3572 46.1583C37.4964 46.2939 37.6853 46.3701 37.8822 46.3701H44.3746C42.5132 48.5203 40.2656 49.9855 37.8733 49.9855V49.9891ZM49.5506 44.9266H47.2488C48.0081 43.737 48.6604 42.4858 49.1986 41.1869H51.3281V43.1931C51.3262 43.6514 51.1382 44.0904 50.8051 44.4142C50.4721 44.738 50.0211 44.9204 49.5506 44.9215V44.9266ZM54.0798 38.0098C54.0798 38.4701 53.8921 38.9116 53.5579 39.2371C53.2237 39.5626 52.7704 39.7455 52.2978 39.7455H49.7496C51.0638 35.9016 51.0519 33.1006 50.3695 30.6381H52.3067C52.7787 30.6381 53.2314 30.8204 53.5655 31.1452C53.8996 31.4699 54.0877 31.9104 54.0887 32.3702L54.0798 38.0098Z" fill="white"/>
</g>
<defs>
<filter id="filter0_d" x="0" y="0" width="76" height="76" filterUnits="userSpaceOnUse" color-interpolation-filters="sRGB">
<feFlood flood-opacity="0" result="BackgroundImageFix"/>
<feColorMatrix in="SourceAlpha" type="matrix" values="0 0 0 0 0 0 0 0 0 0 0 0 0 0 0 0 0 0 127 0"/>
<feOffset dy="4"/>
<feGaussianBlur stdDeviation="2.5"/>
<feColorMatrix type="matrix" values="0 0 0 0 0.870588 0 0 0 0 0.592157 0 0 0 0 0.976471 0 0 0 0.25 0"/>
<feBlend mode="normal" in2="BackgroundImageFix" result="effect1_dropShadow"/>
<feBlend mode="normal" in="SourceGraphic" in2="effect1_dropShadow" result="shape"/>
</filter>
<linearGradient id="paint0_linear" x1="18.5" y1="-1.5" x2="51.5" y2="63" gradientUnits="userSpaceOnUse">
<stop stop-color="#BB6BD9"/>
<stop offset="1" stop-color="#DE97F9"/>
</linearGradient>
<clipPath id="clip0">
<path d="M20.1981 15.9177H55.8381V51.5577H20.1981V15.9177Z" fill="white"/>
</clipPath>
</defs>
</svg>
