<svg width="76" height="76" viewBox="0 0 76 76" fill="none" xmlns="http://www.w3.org/2000/svg">
<g filter="url(#filter0_d)">
<circle cx="38" cy="34" r="33" fill="url(#paint0_linear)"/>
</g>
<g clip-path="url(#clip0)">
<path d="M46.3712 42.0908H47.4849V40.9771H48.5987V37.6358H46.3712V36.5221H48.5987V35.4083H47.4849V34.2946H46.3712V35.4083H45.2574V38.7496H47.4849V39.8633H45.2574V40.9771H46.3712V42.0908Z" fill="white"/>
<path d="M51.3831 25.3846C50.9537 25.3846 50.5656 25.5523 50.2693 25.819C49.9731 25.5517 49.5849 25.3846 49.1556 25.3846C48.2345 25.3846 47.485 26.1342 47.485 27.0553C47.485 27.9763 48.2345 28.7259 49.1556 28.7259C49.5849 28.7259 49.9731 28.5583 50.2693 28.2915C50.5656 28.5588 50.9537 28.7259 51.3831 28.7259C52.3042 28.7259 53.0537 27.9763 53.0537 27.0553C53.0537 26.1342 52.3042 25.3846 51.3831 25.3846ZM49.1556 27.6121C48.8487 27.6121 48.5987 27.3627 48.5987 27.0553C48.5987 26.7479 48.8487 26.4984 49.1556 26.4984C49.4624 26.4984 49.7125 26.7479 49.7125 27.0553C49.7125 27.3627 49.4624 27.6121 49.1556 27.6121ZM51.3831 27.6121C51.0762 27.6121 50.8262 27.3627 50.8262 27.0553C50.8262 26.7479 51.0762 26.4984 51.3831 26.4984C51.6899 26.4984 51.94 26.7479 51.94 27.0553C51.94 27.3627 51.6899 27.6121 51.3831 27.6121Z" fill="white"/>
<path d="M53.6106 16.4746H35.7906C34.8695 16.4746 34.1199 17.2242 34.1199 18.1452V27.7458C33.567 27.6661 33.009 27.6121 32.4493 27.6121C26.0007 27.6121 20.7549 32.8584 20.7549 39.3065C20.7549 45.7545 26.0007 51.0009 32.4493 51.0009C37.3977 51.0009 41.8065 47.8428 43.4509 43.2302C44.44 43.9146 45.6372 44.3184 46.9281 44.3184C50.3055 44.3184 53.0537 41.5702 53.0537 38.1927C53.0537 34.8153 50.3055 32.0671 46.9281 32.0671C45.3009 32.0671 43.8235 32.7092 42.7253 33.7478C42.1662 32.7181 41.4529 31.7742 40.6126 30.9534H53.6106C54.5316 30.9534 55.2812 30.2038 55.2812 29.2827V18.1452C55.2812 17.2242 54.5316 16.4746 53.6106 16.4746ZM35.7906 17.5884H53.6106C53.9174 17.5884 54.1674 17.8378 54.1674 18.1452V19.8159H35.2337V18.1452C35.2337 17.8378 35.4837 17.5884 35.7906 17.5884ZM54.1674 20.9296V22.0434H35.2337V20.9296H54.1674ZM41.9374 34.6538C41.2257 35.6545 40.8024 36.8741 40.8024 38.1927C40.8024 38.381 40.8141 38.5658 40.8308 38.7496H37.4395C37.381 37.1124 37.0797 35.6183 36.6482 34.2946H41.7564C41.8199 34.4127 41.8778 34.5335 41.9374 34.6538ZM29.4366 44.3184C28.9727 43.0069 28.6386 41.5089 28.574 39.8634H36.3246C36.26 41.5073 35.9242 43.0058 35.4592 44.3184H29.4366ZM35.0243 45.4321C34.1355 47.4653 33.0274 48.9243 32.4488 49.6098C31.8691 48.9254 30.7603 47.4675 29.8715 45.4321H35.0243ZM21.8971 39.8634H27.4597C27.5182 41.5006 27.8195 42.9947 28.251 44.3184H23.1345C22.4116 42.9802 21.9812 41.4672 21.8971 39.8634ZM21.8971 38.7496C21.9812 37.1458 22.4116 35.6328 23.1345 34.2946H28.251C27.8195 35.6183 27.5176 37.1124 27.4597 38.7496H21.8971ZM37.4389 39.8634H41.0397C41.3198 40.8496 41.8388 41.7345 42.5338 42.4512C42.33 43.1055 42.0666 43.7297 41.7486 44.3184H36.647C37.0792 42.9947 37.3804 41.5006 37.4389 39.8634ZM36.3246 38.7496H28.574C28.6386 37.1057 28.9744 35.6072 29.4394 34.2946H35.462C35.9259 35.6061 36.26 37.104 36.3246 38.7496ZM29.8743 33.1809C30.7631 31.1477 31.8713 29.6887 32.4499 29.0032C33.0296 29.6876 34.1383 31.1455 35.0271 33.1809H29.8743ZM34.1255 29.3362C33.988 29.1452 33.8571 28.9698 33.734 28.8122C33.8638 28.8278 33.9919 28.85 34.1205 28.8706V29.2827C34.1199 29.3011 34.125 29.3178 34.1255 29.3362ZM31.1652 28.8116C30.4496 29.7282 29.4461 31.2246 28.6564 33.1809H23.8384C25.5229 30.8197 28.148 29.1792 31.1652 28.8116ZM23.8384 45.4321H28.6564C29.4461 47.3884 30.4496 48.8847 31.1652 49.8014C28.148 49.4338 25.5229 47.7933 23.8384 45.4321ZM33.7351 49.7991C34.4507 48.8825 35.4531 47.3867 36.2422 45.4321H41.0564C39.3535 47.8189 36.7027 49.4321 33.7351 49.7991ZM46.9281 33.1809C49.6913 33.1809 51.9399 35.429 51.9399 38.1927C51.9399 40.9565 49.6913 43.2046 46.9281 43.2046C44.1649 43.2046 41.9162 40.9565 41.9162 38.1927C41.9162 35.429 44.1649 33.1809 46.9281 33.1809ZM41.0614 33.1809H36.2422C35.878 32.2782 35.4709 31.4746 35.0633 30.7796C35.2838 30.8876 35.5288 30.9534 35.7906 30.9534H38.9163C39.7377 31.5899 40.4616 32.3411 41.0614 33.1809ZM53.6106 29.8396H35.7906C35.4837 29.8396 35.2337 29.5901 35.2337 29.2827V23.1571H54.1674V29.2827C54.1674 29.5901 53.9174 29.8396 53.6106 29.8396Z" fill="white"/>
<path d="M36.3474 25.3846H38.5749V26.4984H36.3474V25.3846Z" fill="white"/>
<path d="M39.6887 25.3846H41.9162V26.4984H39.6887V25.3846Z" fill="white"/>
<path d="M36.3474 27.6121H41.9162V28.7258H36.3474V27.6121Z" fill="white"/>
</g>
<defs>
<filter id="filter0_d" x="0" y="0" width="76" height="76" filterUnits="userSpaceOnUse" color-interpolation-filters="sRGB">
<feFlood flood-opacity="0" result="BackgroundImageFix"/>
<feColorMatrix in="SourceAlpha" type="matrix" values="0 0 0 0 0 0 0 0 0 0 0 0 0 0 0 0 0 0 127 0"/>
<feOffset dy="4"/>
<feGaussianBlur stdDeviation="2.5"/>
<feColorMatrix type="matrix" values="0 0 0 0 0.988235 0 0 0 0 0.701961 0 0 0 0 0.447059 0 0 0 0.25 0"/>
<feBlend mode="normal" in2="BackgroundImageFix" result="effect1_dropShadow"/>
<feBlend mode="normal" in="SourceGraphic" in2="effect1_dropShadow" result="shape"/>
</filter>
<linearGradient id="paint0_linear" x1="14" y1="-3.5" x2="51" y2="58" gradientUnits="userSpaceOnUse">
<stop stop-color="#F2994A"/>
<stop offset="1" stop-color="#FCB372"/>
</linearGradient>
<clipPath id="clip0">
<path d="M20.1981 15.9177H55.8381V51.5577H20.1981V15.9177Z" fill="white"/>
</clipPath>
</defs>
</svg>
