<svg width="76" height="76" viewBox="0 0 76 76" fill="none" xmlns="http://www.w3.org/2000/svg">
<g filter="url(#filter0_d)">
<circle cx="38" cy="34" r="33" fill="url(#paint0_linear)"/>
</g>
<path fill-rule="evenodd" clip-rule="evenodd" d="M23.5191 32.9614C22.5284 32.9614 21.7253 32.1539 21.7253 31.1578C21.7253 30.1616 22.5284 29.3541 23.5191 29.3541C24.5098 29.3541 25.3129 30.1616 25.3129 31.1578C25.3129 32.1539 24.5098 32.9614 23.5191 32.9614Z" stroke="white" stroke-linecap="round"/>
<path fill-rule="evenodd" clip-rule="evenodd" d="M37.8702 39.6373C35.3384 39.6373 33.286 37.5726 33.286 35.0256C33.286 32.4786 35.3384 30.4138 37.8702 30.4138C40.402 30.4138 42.4543 32.4786 42.4543 35.0256C42.4543 37.5726 40.402 39.6373 37.8702 39.6373Z" stroke="white" stroke-linecap="round"/>
<rect width="6.37795" height="4.0081" rx="2.00405" transform="matrix(-1 0 0 1 26.9073 35.3662)" stroke="white" stroke-linecap="round" stroke-linejoin="round"/>
<path fill-rule="evenodd" clip-rule="evenodd" d="M51.8219 32.9614C50.8312 32.9614 50.0281 32.1539 50.0281 31.1578C50.0281 30.1616 50.8312 29.3541 51.8219 29.3541C52.8126 29.3541 53.6157 30.1616 53.6157 31.1578C53.6157 32.1539 52.8126 32.9614 51.8219 32.9614Z" stroke="white" stroke-linecap="round"/>
<rect width="6.37794" height="4.0081" rx="2.00405" transform="matrix(-1 0 0 1 55.2101 35.3662)" stroke="white" stroke-linecap="round" stroke-linejoin="round"/>
<path d="M26.8055 23.9772C26.6184 24.1804 26.3021 24.1934 26.099 24.0064C25.8959 23.8193 25.8828 23.503 26.0699 23.2998L26.8055 23.9772ZM50.4268 24.4883L50.8176 24.1764L51.4655 24.9883H50.4268V24.4883ZM46.7913 24.9883C46.5152 24.9883 46.2913 24.7644 46.2913 24.4883C46.2913 24.2121 46.5152 23.9883 46.7913 23.9883V24.9883ZM50.036 43.9283C50.2082 43.7125 50.5228 43.6771 50.7386 43.8494C50.9545 44.0216 50.9898 44.3362 50.8176 44.552L50.036 43.9283ZM25.7122 44.2402L25.3214 44.552L24.6735 43.7402H25.7122V44.2402ZM29.3476 43.7402C29.6238 43.7402 29.8476 43.964 29.8476 44.2402C29.8476 44.5163 29.6238 44.7402 29.3476 44.7402V43.7402ZM26.0699 23.2998C29.0504 20.0632 33.3236 18.0322 38.0695 18.0322V19.0322C33.6151 19.0322 29.605 20.9372 26.8055 23.9772L26.0699 23.2998ZM38.0695 18.0322C43.2309 18.0322 47.8289 20.4314 50.8176 24.1764L50.036 24.8001C47.2287 21.2824 42.9135 19.0322 38.0695 19.0322V18.0322ZM50.4268 24.4883C50.4268 24.9883 50.4267 24.9883 50.4267 24.9883C50.4267 24.9883 50.4267 24.9883 50.4267 24.9883C50.4266 24.9883 50.4266 24.9883 50.4265 24.9883C50.4265 24.9883 50.4264 24.9883 50.4264 24.9883C50.4263 24.9883 50.4262 24.9883 50.4261 24.9883C50.426 24.9883 50.4259 24.9883 50.4258 24.9883C50.4257 24.9883 50.4256 24.9883 50.4255 24.9883C50.4254 24.9883 50.4253 24.9883 50.4251 24.9883C50.425 24.9883 50.4249 24.9883 50.4247 24.9883C50.4246 24.9883 50.4244 24.9883 50.4242 24.9883C50.4241 24.9883 50.4239 24.9883 50.4237 24.9883C50.4235 24.9883 50.4233 24.9883 50.4231 24.9883C50.4229 24.9883 50.4227 24.9883 50.4225 24.9883C50.4223 24.9883 50.4221 24.9883 50.4218 24.9883C50.4216 24.9883 50.4214 24.9883 50.4211 24.9883C50.4209 24.9883 50.4206 24.9883 50.4204 24.9883C50.4201 24.9883 50.4198 24.9883 50.4195 24.9883C50.4193 24.9883 50.419 24.9883 50.4187 24.9883C50.4184 24.9883 50.4181 24.9883 50.4178 24.9883C50.4174 24.9883 50.4171 24.9883 50.4168 24.9883C50.4165 24.9883 50.4161 24.9883 50.4158 24.9883C50.4154 24.9883 50.4151 24.9883 50.4147 24.9883C50.4144 24.9883 50.414 24.9883 50.4136 24.9883C50.4132 24.9883 50.4129 24.9883 50.4125 24.9883C50.4121 24.9883 50.4117 24.9883 50.4113 24.9883C50.4108 24.9883 50.4104 24.9883 50.41 24.9883C50.4096 24.9883 50.4091 24.9883 50.4087 24.9883C50.4083 24.9883 50.4078 24.9883 50.4074 24.9883C50.4069 24.9883 50.4064 24.9883 50.406 24.9883C50.4055 24.9883 50.405 24.9883 50.4045 24.9883C50.404 24.9883 50.4036 24.9883 50.4031 24.9883C50.4025 24.9883 50.402 24.9883 50.4015 24.9883C50.401 24.9883 50.4005 24.9883 50.3999 24.9883C50.3994 24.9883 50.3989 24.9883 50.3983 24.9883C50.3978 24.9883 50.3972 24.9883 50.3966 24.9883C50.3961 24.9883 50.3955 24.9883 50.3949 24.9883C50.3944 24.9883 50.3938 24.9883 50.3932 24.9883C50.3926 24.9883 50.392 24.9883 50.3914 24.9883C50.3908 24.9883 50.3901 24.9883 50.3895 24.9883C50.3889 24.9883 50.3883 24.9883 50.3876 24.9883C50.387 24.9883 50.3863 24.9883 50.3857 24.9883C50.385 24.9883 50.3843 24.9883 50.3837 24.9883C50.383 24.9883 50.3823 24.9883 50.3816 24.9883C50.381 24.9883 50.3803 24.9883 50.3796 24.9883C50.3789 24.9883 50.3782 24.9883 50.3774 24.9883C50.3767 24.9883 50.376 24.9883 50.3753 24.9883C50.3745 24.9883 50.3738 24.9883 50.3731 24.9883C50.3723 24.9883 50.3716 24.9883 50.3708 24.9883C50.37 24.9883 50.3693 24.9883 50.3685 24.9883C50.3677 24.9883 50.3669 24.9883 50.3662 24.9883C50.3654 24.9883 50.3646 24.9883 50.3638 24.9883C50.363 24.9883 50.3621 24.9883 50.3613 24.9883C50.3605 24.9883 50.3597 24.9883 50.3589 24.9883C50.358 24.9883 50.3572 24.9883 50.3563 24.9883C50.3555 24.9883 50.3546 24.9883 50.3538 24.9883C50.3529 24.9883 50.352 24.9883 50.3512 24.9883C50.3503 24.9883 50.3494 24.9883 50.3485 24.9883C50.3476 24.9883 50.3467 24.9883 50.3458 24.9883C50.3449 24.9883 50.344 24.9883 50.3431 24.9883C50.3422 24.9883 50.3412 24.9883 50.3403 24.9883C50.3394 24.9883 50.3384 24.9883 50.3375 24.9883C50.3365 24.9883 50.3356 24.9883 50.3346 24.9883C50.3336 24.9883 50.3327 24.9883 50.3317 24.9883C50.3307 24.9883 50.3297 24.9883 50.3288 24.9883C50.3278 24.9883 50.3268 24.9883 50.3258 24.9883C50.3248 24.9883 50.3237 24.9883 50.3227 24.9883C50.3217 24.9883 50.3207 24.9883 50.3197 24.9883C50.3186 24.9883 50.3176 24.9883 50.3165 24.9883C50.3155 24.9883 50.3144 24.9883 50.3134 24.9883C50.3123 24.9883 50.3112 24.9883 50.3102 24.9883C50.3091 24.9883 50.308 24.9883 50.3069 24.9883C50.3058 24.9883 50.3048 24.9883 50.3037 24.9883C50.3025 24.9883 50.3014 24.9883 50.3003 24.9883C50.2992 24.9883 50.2981 24.9883 50.297 24.9883C50.2958 24.9883 50.2947 24.9883 50.2936 24.9883C50.2924 24.9883 50.2913 24.9883 50.2901 24.9883C50.289 24.9883 50.2878 24.9883 50.2866 24.9883C50.2855 24.9883 50.2843 24.9883 50.2831 24.9883C50.2819 24.9883 50.2807 24.9883 50.2795 24.9883C50.2783 24.9883 50.2771 24.9883 50.2759 24.9883C50.2747 24.9883 50.2735 24.9883 50.2723 24.9883C50.2711 24.9883 50.2698 24.9883 50.2686 24.9883C50.2674 24.9883 50.2661 24.9883 50.2649 24.9883C50.2636 24.9883 50.2624 24.9883 50.2611 24.9883C50.2598 24.9883 50.2586 24.9883 50.2573 24.9883C50.256 24.9883 50.2547 24.9883 50.2534 24.9883C50.2522 24.9883 50.2509 24.9883 50.2496 24.9883C50.2483 24.9883 50.247 24.9883 50.2456 24.9883C50.2443 24.9883 50.243 24.9883 50.2417 24.9883C50.2404 24.9883 50.239 24.9883 50.2377 24.9883C50.2363 24.9883 50.235 24.9883 50.2336 24.9883C50.2323 24.9883 50.2309 24.9883 50.2296 24.9883C50.2282 24.9883 50.2268 24.9883 50.2254 24.9883C50.2241 24.9883 50.2227 24.9883 50.2213 24.9883C50.2199 24.9883 50.2185 24.9883 50.2171 24.9883C50.2157 24.9883 50.2143 24.9883 50.2129 24.9883C50.2115 24.9883 50.21 24.9883 50.2086 24.9883C50.2072 24.9883 50.2057 24.9883 50.2043 24.9883C50.2029 24.9883 50.2014 24.9883 50.2 24.9883C50.1985 24.9883 50.197 24.9883 50.1956 24.9883C50.1941 24.9883 50.1926 24.9883 50.1912 24.9883C50.1897 24.9883 50.1882 24.9883 50.1867 24.9883C50.1852 24.9883 50.1837 24.9883 50.1822 24.9883C50.1807 24.9883 50.1792 24.9883 50.1777 24.9883C50.1762 24.9883 50.1746 24.9883 50.1731 24.9883C50.1716 24.9883 50.17 24.9883 50.1685 24.9883C50.167 24.9883 50.1654 24.9883 50.1639 24.9883C50.1623 24.9883 50.1608 24.9883 50.1592 24.9883C50.1576 24.9883 50.1561 24.9883 50.1545 24.9883C50.1529 24.9883 50.1513 24.9883 50.1497 24.9883C50.1481 24.9883 50.1466 24.9883 50.145 24.9883C50.1434 24.9883 50.1417 24.9883 50.1401 24.9883C50.1385 24.9883 50.1369 24.9883 50.1353 24.9883C50.1337 24.9883 50.132 24.9883 50.1304 24.9883C50.1288 24.9883 50.1271 24.9883 50.1255 24.9883C50.1238 24.9883 50.1222 24.9883 50.1205 24.9883C50.1188 24.9883 50.1172 24.9883 50.1155 24.9883C50.1138 24.9883 50.1122 24.9883 50.1105 24.9883C50.1088 24.9883 50.1071 24.9883 50.1054 24.9883C50.1037 24.9883 50.102 24.9883 50.1003 24.9883C50.0986 24.9883 50.0969 24.9883 50.0952 24.9883C50.0935 24.9883 50.0917 24.9883 50.09 24.9883C50.0883 24.9883 50.0865 24.9883 50.0848 24.9883C50.0831 24.9883 50.0813 24.9883 50.0796 24.9883C50.0778 24.9883 50.0761 24.9883 50.0743 24.9883C50.0725 24.9883 50.0708 24.9883 50.069 24.9883C50.0672 24.9883 50.0654 24.9883 50.0637 24.9883C50.0619 24.9883 50.0601 24.9883 50.0583 24.9883C50.0565 24.9883 50.0547 24.9883 50.0529 24.9883C50.0511 24.9883 50.0493 24.9883 50.0474 24.9883C50.0456 24.9883 50.0438 24.9883 50.042 24.9883C50.0401 24.9883 50.0383 24.9883 50.0365 24.9883C50.0346 24.9883 50.0328 24.9883 50.0309 24.9883C50.0291 24.9883 50.0272 24.9883 50.0253 24.9883C50.0235 24.9883 50.0216 24.9883 50.0197 24.9883C50.0179 24.9883 50.016 24.9883 50.0141 24.9883C50.0122 24.9883 50.0103 24.9883 50.0084 24.9883C50.0065 24.9883 50.0046 24.9883 50.0027 24.9883C50.0008 24.9883 49.9989 24.9883 49.997 24.9883C49.9951 24.9883 49.9932 24.9883 49.9912 24.9883C49.9893 24.9883 49.9874 24.9883 49.9854 24.9883C49.9835 24.9883 49.9816 24.9883 49.9796 24.9883C49.9777 24.9883 49.9757 24.9883 49.9737 24.9883C49.9718 24.9883 49.9698 24.9883 49.9679 24.9883C49.9659 24.9883 49.9639 24.9883 49.9619 24.9883C49.96 24.9883 49.958 24.9883 49.956 24.9883C49.954 24.9883 49.952 24.9883 49.95 24.9883C49.948 24.9883 49.946 24.9883 49.944 24.9883C49.942 24.9883 49.9399 24.9883 49.9379 24.9883C49.9359 24.9883 49.9339 24.9883 49.9318 24.9883C49.9298 24.9883 49.9278 24.9883 49.9257 24.9883C49.9237 24.9883 49.9216 24.9883 49.9196 24.9883C49.9175 24.9883 49.9155 24.9883 49.9134 24.9883C49.9114 24.9883 49.9093 24.9883 49.9072 24.9883C49.9052 24.9883 49.9031 24.9883 49.901 24.9883C49.8989 24.9883 49.8968 24.9883 49.8947 24.9883C49.8926 24.9883 49.8906 24.9883 49.8885 24.9883C49.8863 24.9883 49.8842 24.9883 49.8821 24.9883C49.88 24.9883 49.8779 24.9883 49.8758 24.9883C49.8737 24.9883 49.8715 24.9883 49.8694 24.9883C49.8673 24.9883 49.8651 24.9883 49.863 24.9883C49.8609 24.9883 49.8587 24.9883 49.8566 24.9883C49.8544 24.9883 49.8523 24.9883 49.8501 24.9883C49.8479 24.9883 49.8458 24.9883 49.8436 24.9883C49.8414 24.9883 49.8393 24.9883 49.8371 24.9883C49.8349 24.9883 49.8327 24.9883 49.8305 24.9883C49.8283 24.9883 49.8262 24.9883 49.824 24.9883C49.8218 24.9883 49.8196 24.9883 49.8173 24.9883C49.8151 24.9883 49.8129 24.9883 49.8107 24.9883C49.8085 24.9883 49.8063 24.9883 49.804 24.9883C49.8018 24.9883 49.7996 24.9883 49.7974 24.9883C49.7951 24.9883 49.7929 24.9883 49.7906 24.9883C49.7884 24.9883 49.7861 24.9883 49.7839 24.9883C49.7816 24.9883 49.7794 24.9883 49.7771 24.9883C49.7749 24.9883 49.7726 24.9883 49.7703 24.9883C49.768 24.9883 49.7658 24.9883 49.7635 24.9883C49.7612 24.9883 49.7589 24.9883 49.7566 24.9883C49.7543 24.9883 49.7521 24.9883 49.7498 24.9883C49.7475 24.9883 49.7452 24.9883 49.7428 24.9883C49.7405 24.9883 49.7382 24.9883 49.7359 24.9883C49.7336 24.9883 49.7313 24.9883 49.7289 24.9883C49.7266 24.9883 49.7243 24.9883 49.722 24.9883C49.7196 24.9883 49.7173 24.9883 49.7149 24.9883C49.7126 24.9883 49.7103 24.9883 49.7079 24.9883C49.7056 24.9883 49.7032 24.9883 49.7008 24.9883C49.6985 24.9883 49.6961 24.9883 49.6937 24.9883C49.6914 24.9883 49.689 24.9883 49.6866 24.9883C49.6843 24.9883 49.6819 24.9883 49.6795 24.9883C49.6771 24.9883 49.6747 24.9883 49.6723 24.9883C49.6699 24.9883 49.6675 24.9883 49.6651 24.9883C49.6627 24.9883 49.6603 24.9883 49.6579 24.9883C49.6555 24.9883 49.6531 24.9883 49.6507 24.9883C49.6482 24.9883 49.6458 24.9883 49.6434 24.9883C49.641 24.9883 49.6385 24.9883 49.6361 24.9883C49.6337 24.9883 49.6312 24.9883 49.6288 24.9883C49.6263 24.9883 49.6239 24.9883 49.6214 24.9883C49.619 24.9883 49.6165 24.9883 49.6141 24.9883C49.6116 24.9883 49.6091 24.9883 49.6067 24.9883C49.6042 24.9883 49.6017 24.9883 49.5993 24.9883C49.5968 24.9883 49.5943 24.9883 49.5918 24.9883C49.5893 24.9883 49.5869 24.9883 49.5844 24.9883C49.5819 24.9883 49.5794 24.9883 49.5769 24.9883C49.5744 24.9883 49.5719 24.9883 49.5694 24.9883C49.5669 24.9883 49.5643 24.9883 49.5618 24.9883C49.5593 24.9883 49.5568 24.9883 49.5543 24.9883C49.5517 24.9883 49.5492 24.9883 49.5467 24.9883C49.5442 24.9883 49.5416 24.9883 49.5391 24.9883C49.5365 24.9883 49.534 24.9883 49.5315 24.9883C49.5289 24.9883 49.5264 24.9883 49.5238 24.9883C49.5213 24.9883 49.5187 24.9883 49.5161 24.9883C49.5136 24.9883 49.511 24.9883 49.5084 24.9883C49.5059 24.9883 49.5033 24.9883 49.5007 24.9883C49.4982 24.9883 49.4956 24.9883 49.493 24.9883C49.4904 24.9883 49.4878 24.9883 49.4852 24.9883C49.4826 24.9883 49.4801 24.9883 49.4775 24.9883C49.4749 24.9883 49.4723 24.9883 49.4696 24.9883C49.467 24.9883 49.4644 24.9883 49.4618 24.9883C49.4592 24.9883 49.4566 24.9883 49.454 24.9883C49.4514 24.9883 49.4487 24.9883 49.4461 24.9883C49.4435 24.9883 49.4409 24.9883 49.4382 24.9883C49.4356 24.9883 49.4329 24.9883 49.4303 24.9883C49.4277 24.9883 49.425 24.9883 49.4224 24.9883C49.4197 24.9883 49.4171 24.9883 49.4144 24.9883C49.4118 24.9883 49.4091 24.9883 49.4065 24.9883C49.4038 24.9883 49.4011 24.9883 49.3985 24.9883C49.3958 24.9883 49.3931 24.9883 49.3904 24.9883C49.3878 24.9883 49.3851 24.9883 49.3824 24.9883C49.3797 24.9883 49.377 24.9883 49.3744 24.9883C49.3717 24.9883 49.369 24.9883 49.3663 24.9883C49.3636 24.9883 49.3609 24.9883 49.3582 24.9883C49.3555 24.9883 49.3528 24.9883 49.3501 24.9883C49.3474 24.9883 49.3447 24.9883 49.3419 24.9883C49.3392 24.9883 49.3365 24.9883 49.3338 24.9883C49.3311 24.9883 49.3283 24.9883 49.3256 24.9883C49.3229 24.9883 49.3202 24.9883 49.3174 24.9883C49.3147 24.9883 49.312 24.9883 49.3092 24.9883C49.3065 24.9883 49.3037 24.9883 49.301 24.9883C49.2982 24.9883 49.2955 24.9883 49.2927 24.9883C49.29 24.9883 49.2872 24.9883 49.2845 24.9883C49.2817 24.9883 49.2789 24.9883 49.2762 24.9883C49.2734 24.9883 49.2706 24.9883 49.2679 24.9883C49.2651 24.9883 49.2623 24.9883 49.2596 24.9883C49.2568 24.9883 49.254 24.9883 49.2512 24.9883C49.2484 24.9883 49.2456 24.9883 49.2429 24.9883C49.2401 24.9883 49.2373 24.9883 49.2345 24.9883C49.2317 24.9883 49.2289 24.9883 49.2261 24.9883C49.2233 24.9883 49.2205 24.9883 49.2177 24.9883C49.2149 24.9883 49.2121 24.9883 49.2092 24.9883C49.2064 24.9883 49.2036 24.9883 49.2008 24.9883C49.198 24.9883 49.1952 24.9883 49.1923 24.9883C49.1895 24.9883 49.1867 24.9883 49.1839 24.9883C49.181 24.9883 49.1782 24.9883 49.1754 24.9883C49.1725 24.9883 49.1697 24.9883 49.1668 24.9883C49.164 24.9883 49.1612 24.9883 49.1583 24.9883C49.1555 24.9883 49.1526 24.9883 49.1498 24.9883C49.1469 24.9883 49.1441 24.9883 49.1412 24.9883C49.1383 24.9883 49.1355 24.9883 49.1326 24.9883C49.1298 24.9883 49.1269 24.9883 49.124 24.9883C49.1212 24.9883 49.1183 24.9883 49.1154 24.9883C49.1125 24.9883 49.1097 24.9883 49.1068 24.9883C49.1039 24.9883 49.101 24.9883 49.0981 24.9883C49.0953 24.9883 49.0924 24.9883 49.0895 24.9883C49.0866 24.9883 49.0837 24.9883 49.0808 24.9883C49.0779 24.9883 49.075 24.9883 49.0721 24.9883C49.0692 24.9883 49.0663 24.9883 49.0634 24.9883C49.0605 24.9883 49.0576 24.9883 49.0547 24.9883C49.0518 24.9883 49.0489 24.9883 49.046 24.9883C49.043 24.9883 49.0401 24.9883 49.0372 24.9883C49.0343 24.9883 49.0314 24.9883 49.0284 24.9883C49.0255 24.9883 49.0226 24.9883 49.0197 24.9883C49.0167 24.9883 49.0138 24.9883 49.0109 24.9883C49.0079 24.9883 49.005 24.9883 49.0021 24.9883C48.9991 24.9883 48.9962 24.9883 48.9932 24.9883C48.9903 24.9883 48.9874 24.9883 48.9844 24.9883C48.9815 24.9883 48.9785 24.9883 48.9756 24.9883C48.9726 24.9883 48.9697 24.9883 48.9667 24.9883C48.9637 24.9883 48.9608 24.9883 48.9578 24.9883C48.9549 24.9883 48.9519 24.9883 48.9489 24.9883C48.946 24.9883 48.943 24.9883 48.94 24.9883C48.9371 24.9883 48.9341 24.9883 48.9311 24.9883C48.9281 24.9883 48.9252 24.9883 48.9222 24.9883C48.9192 24.9883 48.9162 24.9883 48.9132 24.9883C48.9103 24.9883 48.9073 24.9883 48.9043 24.9883C48.9013 24.9883 48.8983 24.9883 48.8953 24.9883C48.8923 24.9883 48.8893 24.9883 48.8863 24.9883C48.8833 24.9883 48.8803 24.9883 48.8773 24.9883C48.8743 24.9883 48.8713 24.9883 48.8683 24.9883C48.8653 24.9883 48.8623 24.9883 48.8593 24.9883C48.8563 24.9883 48.8533 24.9883 48.8503 24.9883C48.8473 24.9883 48.8443 24.9883 48.8413 24.9883C48.8382 24.9883 48.8352 24.9883 48.8322 24.9883C48.8292 24.9883 48.8262 24.9883 48.8231 24.9883C48.8201 24.9883 48.8171 24.9883 48.8141 24.9883C48.811 24.9883 48.808 24.9883 48.805 24.9883C48.8019 24.9883 48.7989 24.9883 48.7959 24.9883C48.7928 24.9883 48.7898 24.9883 48.7868 24.9883C48.7837 24.9883 48.7807 24.9883 48.7777 24.9883C48.7746 24.9883 48.7716 24.9883 48.7685 24.9883C48.7655 24.9883 48.7624 24.9883 48.7594 24.9883C48.7563 24.9883 48.7533 24.9883 48.7502 24.9883C48.7472 24.9883 48.7441 24.9883 48.7411 24.9883C48.738 24.9883 48.735 24.9883 48.7319 24.9883C48.7288 24.9883 48.7258 24.9883 48.7227 24.9883C48.7197 24.9883 48.7166 24.9883 48.7135 24.9883C48.7105 24.9883 48.7074 24.9883 48.7043 24.9883C48.7013 24.9883 48.6982 24.9883 48.6951 24.9883C48.692 24.9883 48.689 24.9883 48.6859 24.9883C48.6828 24.9883 48.6797 24.9883 48.6767 24.9883C48.6736 24.9883 48.6705 24.9883 48.6674 24.9883C48.6643 24.9883 48.6613 24.9883 48.6582 24.9883C48.6551 24.9883 48.652 24.9883 48.6489 24.9883C48.6458 24.9883 48.6427 24.9883 48.6397 24.9883C48.6366 24.9883 48.6335 24.9883 48.6304 24.9883C48.6273 24.9883 48.6242 24.9883 48.6211 24.9883C48.618 24.9883 48.6149 24.9883 48.6118 24.9883C48.6087 24.9883 48.6056 24.9883 48.6025 24.9883C48.5994 24.9883 48.5963 24.9883 48.5932 24.9883C48.5901 24.9883 48.587 24.9883 48.5839 24.9883C48.5808 24.9883 48.5777 24.9883 48.5746 24.9883C48.5714 24.9883 48.5683 24.9883 48.5652 24.9883C48.5621 24.9883 48.559 24.9883 48.5559 24.9883C48.5528 24.9883 48.5497 24.9883 48.5465 24.9883C48.5434 24.9883 48.5403 24.9883 48.5372 24.9883C48.5341 24.9883 48.5309 24.9883 48.5278 24.9883C48.5247 24.9883 48.5216 24.9883 48.5185 24.9883C48.5153 24.9883 48.5122 24.9883 48.5091 24.9883C48.506 24.9883 48.5028 24.9883 48.4997 24.9883C48.4966 24.9883 48.4934 24.9883 48.4903 24.9883C48.4872 24.9883 48.484 24.9883 48.4809 24.9883C48.4778 24.9883 48.4746 24.9883 48.4715 24.9883C48.4684 24.9883 48.4652 24.9883 48.4621 24.9883C48.459 24.9883 48.4558 24.9883 48.4527 24.9883C48.4496 24.9883 48.4464 24.9883 48.4433 24.9883C48.4401 24.9883 48.437 24.9883 48.4338 24.9883C48.4307 24.9883 48.4276 24.9883 48.4244 24.9883C48.4213 24.9883 48.4181 24.9883 48.415 24.9883C48.4118 24.9883 48.4087 24.9883 48.4055 24.9883C48.4024 24.9883 48.3992 24.9883 48.3961 24.9883C48.3929 24.9883 48.3898 24.9883 48.3866 24.9883C48.3835 24.9883 48.3803 24.9883 48.3772 24.9883C48.374 24.9883 48.3709 24.9883 48.3677 24.9883C48.3646 24.9883 48.3614 24.9883 48.3582 24.9883C48.3551 24.9883 48.3519 24.9883 48.3488 24.9883C48.3456 24.9883 48.3425 24.9883 48.3393 24.9883C48.3361 24.9883 48.333 24.9883 48.3298 24.9883C48.3266 24.9883 48.3235 24.9883 48.3203 24.9883C48.3172 24.9883 48.314 24.9883 48.3108 24.9883C48.3077 24.9883 48.3045 24.9883 48.3013 24.9883C48.2982 24.9883 48.295 24.9883 48.2918 24.9883C48.2887 24.9883 48.2855 24.9883 48.2823 24.9883C48.2792 24.9883 48.276 24.9883 48.2728 24.9883C48.2697 24.9883 48.2665 24.9883 48.2633 24.9883C48.2602 24.9883 48.257 24.9883 48.2538 24.9883C48.2506 24.9883 48.2475 24.9883 48.2443 24.9883C48.2411 24.9883 48.238 24.9883 48.2348 24.9883C48.2316 24.9883 48.2284 24.9883 48.2253 24.9883C48.2221 24.9883 48.2189 24.9883 48.2157 24.9883C48.2126 24.9883 48.2094 24.9883 48.2062 24.9883C48.203 24.9883 48.1999 24.9883 48.1967 24.9883C48.1935 24.9883 48.1903 24.9883 48.1872 24.9883C48.184 24.9883 48.1808 24.9883 48.1776 24.9883C48.1744 24.9883 48.1713 24.9883 48.1681 24.9883C48.1649 24.9883 48.1617 24.9883 48.1585 24.9883C48.1554 24.9883 48.1522 24.9883 48.149 24.9883C48.1458 24.9883 48.1426 24.9883 48.1395 24.9883C48.1363 24.9883 48.1331 24.9883 48.1299 24.9883C48.1267 24.9883 48.1236 24.9883 48.1204 24.9883C48.1172 24.9883 48.114 24.9883 48.1108 24.9883C48.1077 24.9883 48.1045 24.9883 48.1013 24.9883C48.0981 24.9883 48.0949 24.9883 48.0917 24.9883C48.0886 24.9883 48.0854 24.9883 48.0822 24.9883C48.079 24.9883 48.0758 24.9883 48.0726 24.9883C48.0695 24.9883 48.0663 24.9883 48.0631 24.9883C48.0599 24.9883 48.0567 24.9883 48.0535 24.9883C48.0504 24.9883 48.0472 24.9883 48.044 24.9883C48.0408 24.9883 48.0376 24.9883 48.0344 24.9883C48.0313 24.9883 48.0281 24.9883 48.0249 24.9883C48.0217 24.9883 48.0185 24.9883 48.0153 24.9883C48.0122 24.9883 48.009 24.9883 48.0058 24.9883C48.0026 24.9883 47.9994 24.9883 47.9962 24.9883C47.9931 24.9883 47.9899 24.9883 47.9867 24.9883C47.9835 24.9883 47.9803 24.9883 47.9771 24.9883C47.974 24.9883 47.9708 24.9883 47.9676 24.9883C47.9644 24.9883 47.9612 24.9883 47.958 24.9883C47.9549 24.9883 47.9517 24.9883 47.9485 24.9883C47.9453 24.9883 47.9421 24.9883 47.939 24.9883C47.9358 24.9883 47.9326 24.9883 47.9294 24.9883C47.9262 24.9883 47.923 24.9883 47.9199 24.9883C47.9167 24.9883 47.9135 24.9883 47.9103 24.9883C47.9071 24.9883 47.904 24.9883 47.9008 24.9883C47.8976 24.9883 47.8944 24.9883 47.8912 24.9883C47.8881 24.9883 47.8849 24.9883 47.8817 24.9883C47.8785 24.9883 47.8754 24.9883 47.8722 24.9883C47.869 24.9883 47.8658 24.9883 47.8626 24.9883C47.8595 24.9883 47.8563 24.9883 47.8531 24.9883C47.8499 24.9883 47.8468 24.9883 47.8436 24.9883C47.8404 24.9883 47.8372 24.9883 47.8341 24.9883C47.8309 24.9883 47.8277 24.9883 47.8245 24.9883C47.8214 24.9883 47.8182 24.9883 47.815 24.9883C47.8119 24.9883 47.8087 24.9883 47.8055 24.9883C47.8023 24.9883 47.7992 24.9883 47.796 24.9883C47.7928 24.9883 47.7897 24.9883 47.7865 24.9883C47.7833 24.9883 47.7802 24.9883 47.777 24.9883C47.7738 24.9883 47.7706 24.9883 47.7675 24.9883C47.7643 24.9883 47.7611 24.9883 47.758 24.9883C47.7548 24.9883 47.7517 24.9883 47.7485 24.9883C47.7453 24.9883 47.7422 24.9883 47.739 24.9883C47.7358 24.9883 47.7327 24.9883 47.7295 24.9883C47.7264 24.9883 47.7232 24.9883 47.72 24.9883C47.7169 24.9883 47.7137 24.9883 47.7106 24.9883C47.7074 24.9883 47.7042 24.9883 47.7011 24.9883C47.6979 24.9883 47.6948 24.9883 47.6916 24.9883C47.6885 24.9883 47.6853 24.9883 47.6821 24.9883C47.679 24.9883 47.6758 24.9883 47.6727 24.9883C47.6695 24.9883 47.6664 24.9883 47.6632 24.9883C47.6601 24.9883 47.6569 24.9883 47.6538 24.9883C47.6506 24.9883 47.6475 24.9883 47.6443 24.9883C47.6412 24.9883 47.638 24.9883 47.6349 24.9883C47.6318 24.9883 47.6286 24.9883 47.6255 24.9883C47.6223 24.9883 47.6192 24.9883 47.616 24.9883C47.6129 24.9883 47.6098 24.9883 47.6066 24.9883C47.6035 24.9883 47.6003 24.9883 47.5972 24.9883C47.5941 24.9883 47.5909 24.9883 47.5878 24.9883C47.5847 24.9883 47.5815 24.9883 47.5784 24.9883C47.5753 24.9883 47.5721 24.9883 47.569 24.9883C47.5659 24.9883 47.5627 24.9883 47.5596 24.9883C47.5565 24.9883 47.5534 24.9883 47.5502 24.9883C47.5471 24.9883 47.544 24.9883 47.5409 24.9883C47.5377 24.9883 47.5346 24.9883 47.5315 24.9883C47.5284 24.9883 47.5252 24.9883 47.5221 24.9883C47.519 24.9883 47.5159 24.9883 47.5128 24.9883C47.5097 24.9883 47.5065 24.9883 47.5034 24.9883C47.5003 24.9883 47.4972 24.9883 47.4941 24.9883C47.491 24.9883 47.4879 24.9883 47.4848 24.9883C47.4816 24.9883 47.4785 24.9883 47.4754 24.9883C47.4723 24.9883 47.4692 24.9883 47.4661 24.9883C47.463 24.9883 47.4599 24.9883 47.4568 24.9883C47.4537 24.9883 47.4506 24.9883 47.4475 24.9883C47.4444 24.9883 47.4413 24.9883 47.4382 24.9883C47.4351 24.9883 47.432 24.9883 47.4289 24.9883C47.4258 24.9883 47.4227 24.9883 47.4196 24.9883C47.4166 24.9883 47.4135 24.9883 47.4104 24.9883C47.4073 24.9883 47.4042 24.9883 47.4011 24.9883C47.398 24.9883 47.395 24.9883 47.3919 24.9883C47.3888 24.9883 47.3857 24.9883 47.3826 24.9883C47.3796 24.9883 47.3765 24.9883 47.3734 24.9883C47.3703 24.9883 47.3673 24.9883 47.3642 24.9883C47.3611 24.9883 47.358 24.9883 47.355 24.9883C47.3519 24.9883 47.3488 24.9883 47.3458 24.9883C47.3427 24.9883 47.3396 24.9883 47.3366 24.9883C47.3335 24.9883 47.3305 24.9883 47.3274 24.9883C47.3243 24.9883 47.3213 24.9883 47.3182 24.9883C47.3152 24.9883 47.3121 24.9883 47.3091 24.9883C47.306 24.9883 47.303 24.9883 47.2999 24.9883C47.2969 24.9883 47.2938 24.9883 47.2908 24.9883C47.2877 24.9883 47.2847 24.9883 47.2816 24.9883C47.2786 24.9883 47.2756 24.9883 47.2725 24.9883C47.2695 24.9883 47.2664 24.9883 47.2634 24.9883C47.2604 24.9883 47.2573 24.9883 47.2543 24.9883C47.2513 24.9883 47.2482 24.9883 47.2452 24.9883C47.2422 24.9883 47.2392 24.9883 47.2361 24.9883C47.2331 24.9883 47.2301 24.9883 47.2271 24.9883C47.2241 24.9883 47.221 24.9883 47.218 24.9883C47.215 24.9883 47.212 24.9883 47.209 24.9883C47.206 24.9883 47.203 24.9883 47.2 24.9883C47.1969 24.9883 47.1939 24.9883 47.1909 24.9883C47.1879 24.9883 47.1849 24.9883 47.1819 24.9883C47.1789 24.9883 47.1759 24.9883 47.1729 24.9883C47.1699 24.9883 47.1669 24.9883 47.164 24.9883C47.161 24.9883 47.158 24.9883 47.155 24.9883C47.152 24.9883 47.149 24.9883 47.146 24.9883C47.143 24.9883 47.1401 24.9883 47.1371 24.9883C47.1341 24.9883 47.1311 24.9883 47.1282 24.9883C47.1252 24.9883 47.1222 24.9883 47.1192 24.9883C47.1163 24.9883 47.1133 24.9883 47.1103 24.9883C47.1074 24.9883 47.1044 24.9883 47.1014 24.9883C47.0985 24.9883 47.0955 24.9883 47.0926 24.9883C47.0896 24.9883 47.0867 24.9883 47.0837 24.9883C47.0807 24.9883 47.0778 24.9883 47.0749 24.9883C47.0719 24.9883 47.069 24.9883 47.066 24.9883C47.0631 24.9883 47.0601 24.9883 47.0572 24.9883C47.0543 24.9883 47.0513 24.9883 47.0484 24.9883C47.0454 24.9883 47.0425 24.9883 47.0396 24.9883C47.0367 24.9883 47.0337 24.9883 47.0308 24.9883C47.0279 24.9883 47.025 24.9883 47.022 24.9883C47.0191 24.9883 47.0162 24.9883 47.0133 24.9883C47.0104 24.9883 47.0075 24.9883 47.0046 24.9883C47.0016 24.9883 46.9987 24.9883 46.9958 24.9883C46.9929 24.9883 46.99 24.9883 46.9871 24.9883C46.9842 24.9883 46.9813 24.9883 46.9784 24.9883C46.9755 24.9883 46.9726 24.9883 46.9698 24.9883C46.9669 24.9883 46.964 24.9883 46.9611 24.9883C46.9582 24.9883 46.9553 24.9883 46.9525 24.9883C46.9496 24.9883 46.9467 24.9883 46.9438 24.9883C46.9409 24.9883 46.9381 24.9883 46.9352 24.9883C46.9323 24.9883 46.9295 24.9883 46.9266 24.9883C46.9237 24.9883 46.9209 24.9883 46.918 24.9883C46.9152 24.9883 46.9123 24.9883 46.9095 24.9883C46.9066 24.9883 46.9038 24.9883 46.9009 24.9883C46.8981 24.9883 46.8952 24.9883 46.8924 24.9883C46.8895 24.9883 46.8867 24.9883 46.8839 24.9883C46.881 24.9883 46.8782 24.9883 46.8754 24.9883C46.8725 24.9883 46.8697 24.9883 46.8669 24.9883C46.8641 24.9883 46.8612 24.9883 46.8584 24.9883C46.8556 24.9883 46.8528 24.9883 46.85 24.9883C46.8472 24.9883 46.8443 24.9883 46.8415 24.9883C46.8387 24.9883 46.8359 24.9883 46.8331 24.9883C46.8303 24.9883 46.8275 24.9883 46.8247 24.9883C46.8219 24.9883 46.8191 24.9883 46.8164 24.9883C46.8136 24.9883 46.8108 24.9883 46.808 24.9883C46.8052 24.9883 46.8024 24.9883 46.7997 24.9883C46.7969 24.9883 46.7941 24.9883 46.7913 24.9883V23.9883C46.7941 23.9883 46.7969 23.9883 46.7997 23.9883C46.8024 23.9883 46.8052 23.9883 46.808 23.9883C46.8108 23.9883 46.8136 23.9883 46.8164 23.9883C46.8191 23.9883 46.8219 23.9883 46.8247 23.9883C46.8275 23.9883 46.8303 23.9883 46.8331 23.9883C46.8359 23.9883 46.8387 23.9883 46.8415 23.9883C46.8443 23.9883 46.8472 23.9883 46.85 23.9883C46.8528 23.9883 46.8556 23.9883 46.8584 23.9883C46.8612 23.9883 46.8641 23.9883 46.8669 23.9883C46.8697 23.9883 46.8725 23.9883 46.8754 23.9883C46.8782 23.9883 46.881 23.9883 46.8839 23.9883C46.8867 23.9883 46.8895 23.9883 46.8924 23.9883C46.8952 23.9883 46.8981 23.9883 46.9009 23.9883C46.9038 23.9883 46.9066 23.9883 46.9095 23.9883C46.9123 23.9883 46.9152 23.9883 46.918 23.9883C46.9209 23.9883 46.9237 23.9883 46.9266 23.9883C46.9295 23.9883 46.9323 23.9883 46.9352 23.9883C46.9381 23.9883 46.9409 23.9883 46.9438 23.9883C46.9467 23.9883 46.9496 23.9883 46.9525 23.9883C46.9553 23.9883 46.9582 23.9883 46.9611 23.9883C46.964 23.9883 46.9669 23.9883 46.9698 23.9883C46.9726 23.9883 46.9755 23.9883 46.9784 23.9883C46.9813 23.9883 46.9842 23.9883 46.9871 23.9883C46.99 23.9883 46.9929 23.9883 46.9958 23.9883C46.9987 23.9883 47.0016 23.9883 47.0046 23.9883C47.0075 23.9883 47.0104 23.9883 47.0133 23.9883C47.0162 23.9883 47.0191 23.9883 47.022 23.9883C47.025 23.9883 47.0279 23.9883 47.0308 23.9883C47.0337 23.9883 47.0367 23.9883 47.0396 23.9883C47.0425 23.9883 47.0454 23.9883 47.0484 23.9883C47.0513 23.9883 47.0543 23.9883 47.0572 23.9883C47.0601 23.9883 47.0631 23.9883 47.066 23.9883C47.069 23.9883 47.0719 23.9883 47.0749 23.9883C47.0778 23.9883 47.0807 23.9883 47.0837 23.9883C47.0867 23.9883 47.0896 23.9883 47.0926 23.9883C47.0955 23.9883 47.0985 23.9883 47.1014 23.9883C47.1044 23.9883 47.1074 23.9883 47.1103 23.9883C47.1133 23.9883 47.1163 23.9883 47.1192 23.9883C47.1222 23.9883 47.1252 23.9883 47.1282 23.9883C47.1311 23.9883 47.1341 23.9883 47.1371 23.9883C47.1401 23.9883 47.143 23.9883 47.146 23.9883C47.149 23.9883 47.152 23.9883 47.155 23.9883C47.158 23.9883 47.161 23.9883 47.164 23.9883C47.1669 23.9883 47.1699 23.9883 47.1729 23.9883C47.1759 23.9883 47.1789 23.9883 47.1819 23.9883C47.1849 23.9883 47.1879 23.9883 47.1909 23.9883C47.1939 23.9883 47.1969 23.9883 47.2 23.9883C47.203 23.9883 47.206 23.9883 47.209 23.9883C47.212 23.9883 47.215 23.9883 47.218 23.9883C47.221 23.9883 47.2241 23.9883 47.2271 23.9883C47.2301 23.9883 47.2331 23.9883 47.2361 23.9883C47.2392 23.9883 47.2422 23.9883 47.2452 23.9883C47.2482 23.9883 47.2513 23.9883 47.2543 23.9883C47.2573 23.9883 47.2604 23.9883 47.2634 23.9883C47.2664 23.9883 47.2695 23.9883 47.2725 23.9883C47.2756 23.9883 47.2786 23.9883 47.2816 23.9883C47.2847 23.9883 47.2877 23.9883 47.2908 23.9883C47.2938 23.9883 47.2969 23.9883 47.2999 23.9883C47.303 23.9883 47.306 23.9883 47.3091 23.9883C47.3121 23.9883 47.3152 23.9883 47.3182 23.9883C47.3213 23.9883 47.3243 23.9883 47.3274 23.9883C47.3305 23.9883 47.3335 23.9883 47.3366 23.9883C47.3396 23.9883 47.3427 23.9883 47.3458 23.9883C47.3488 23.9883 47.3519 23.9883 47.355 23.9883C47.358 23.9883 47.3611 23.9883 47.3642 23.9883C47.3673 23.9883 47.3703 23.9883 47.3734 23.9883C47.3765 23.9883 47.3796 23.9883 47.3826 23.9883C47.3857 23.9883 47.3888 23.9883 47.3919 23.9883C47.395 23.9883 47.398 23.9883 47.4011 23.9883C47.4042 23.9883 47.4073 23.9883 47.4104 23.9883C47.4135 23.9883 47.4166 23.9883 47.4196 23.9883C47.4227 23.9883 47.4258 23.9883 47.4289 23.9883C47.432 23.9883 47.4351 23.9883 47.4382 23.9883C47.4413 23.9883 47.4444 23.9883 47.4475 23.9883C47.4506 23.9883 47.4537 23.9883 47.4568 23.9883C47.4599 23.9883 47.463 23.9883 47.4661 23.9883C47.4692 23.9883 47.4723 23.9883 47.4754 23.9883C47.4785 23.9883 47.4816 23.9883 47.4848 23.9883C47.4879 23.9883 47.491 23.9883 47.4941 23.9883C47.4972 23.9883 47.5003 23.9883 47.5034 23.9883C47.5065 23.9883 47.5097 23.9883 47.5128 23.9883C47.5159 23.9883 47.519 23.9883 47.5221 23.9883C47.5252 23.9883 47.5284 23.9883 47.5315 23.9883C47.5346 23.9883 47.5377 23.9883 47.5409 23.9883C47.544 23.9883 47.5471 23.9883 47.5502 23.9883C47.5534 23.9883 47.5565 23.9883 47.5596 23.9883C47.5627 23.9883 47.5659 23.9883 47.569 23.9883C47.5721 23.9883 47.5753 23.9883 47.5784 23.9883C47.5815 23.9883 47.5847 23.9883 47.5878 23.9883C47.5909 23.9883 47.5941 23.9883 47.5972 23.9883C47.6003 23.9883 47.6035 23.9883 47.6066 23.9883C47.6098 23.9883 47.6129 23.9883 47.616 23.9883C47.6192 23.9883 47.6223 23.9883 47.6255 23.9883C47.6286 23.9883 47.6318 23.9883 47.6349 23.9883C47.638 23.9883 47.6412 23.9883 47.6443 23.9883C47.6475 23.9883 47.6506 23.9883 47.6538 23.9883C47.6569 23.9883 47.6601 23.9883 47.6632 23.9883C47.6664 23.9883 47.6695 23.9883 47.6727 23.9883C47.6758 23.9883 47.679 23.9883 47.6821 23.9883C47.6853 23.9883 47.6885 23.9883 47.6916 23.9883C47.6948 23.9883 47.6979 23.9883 47.7011 23.9883C47.7042 23.9883 47.7074 23.9883 47.7106 23.9883C47.7137 23.9883 47.7169 23.9883 47.72 23.9883C47.7232 23.9883 47.7264 23.9883 47.7295 23.9883C47.7327 23.9883 47.7358 23.9883 47.739 23.9883C47.7422 23.9883 47.7453 23.9883 47.7485 23.9883C47.7517 23.9883 47.7548 23.9883 47.758 23.9883C47.7611 23.9883 47.7643 23.9883 47.7675 23.9883C47.7706 23.9883 47.7738 23.9883 47.777 23.9883C47.7802 23.9883 47.7833 23.9883 47.7865 23.9883C47.7897 23.9883 47.7928 23.9883 47.796 23.9883C47.7992 23.9883 47.8023 23.9883 47.8055 23.9883C47.8087 23.9883 47.8119 23.9883 47.815 23.9883C47.8182 23.9883 47.8214 23.9883 47.8245 23.9883C47.8277 23.9883 47.8309 23.9883 47.8341 23.9883C47.8372 23.9883 47.8404 23.9883 47.8436 23.9883C47.8468 23.9883 47.8499 23.9883 47.8531 23.9883C47.8563 23.9883 47.8595 23.9883 47.8626 23.9883C47.8658 23.9883 47.869 23.9883 47.8722 23.9883C47.8754 23.9883 47.8785 23.9883 47.8817 23.9883C47.8849 23.9883 47.8881 23.9883 47.8912 23.9883C47.8944 23.9883 47.8976 23.9883 47.9008 23.9883C47.904 23.9883 47.9071 23.9883 47.9103 23.9883C47.9135 23.9883 47.9167 23.9883 47.9199 23.9883C47.923 23.9883 47.9262 23.9883 47.9294 23.9883C47.9326 23.9883 47.9358 23.9883 47.939 23.9883C47.9421 23.9883 47.9453 23.9883 47.9485 23.9883C47.9517 23.9883 47.9549 23.9883 47.958 23.9883C47.9612 23.9883 47.9644 23.9883 47.9676 23.9883C47.9708 23.9883 47.974 23.9883 47.9771 23.9883C47.9803 23.9883 47.9835 23.9883 47.9867 23.9883C47.9899 23.9883 47.9931 23.9883 47.9962 23.9883C47.9994 23.9883 48.0026 23.9883 48.0058 23.9883C48.009 23.9883 48.0122 23.9883 48.0153 23.9883C48.0185 23.9883 48.0217 23.9883 48.0249 23.9883C48.0281 23.9883 48.0313 23.9883 48.0344 23.9883C48.0376 23.9883 48.0408 23.9883 48.044 23.9883C48.0472 23.9883 48.0504 23.9883 48.0535 23.9883C48.0567 23.9883 48.0599 23.9883 48.0631 23.9883C48.0663 23.9883 48.0695 23.9883 48.0726 23.9883C48.0758 23.9883 48.079 23.9883 48.0822 23.9883C48.0854 23.9883 48.0886 23.9883 48.0917 23.9883C48.0949 23.9883 48.0981 23.9883 48.1013 23.9883C48.1045 23.9883 48.1077 23.9883 48.1108 23.9883C48.114 23.9883 48.1172 23.9883 48.1204 23.9883C48.1236 23.9883 48.1267 23.9883 48.1299 23.9883C48.1331 23.9883 48.1363 23.9883 48.1395 23.9883C48.1426 23.9883 48.1458 23.9883 48.149 23.9883C48.1522 23.9883 48.1554 23.9883 48.1585 23.9883C48.1617 23.9883 48.1649 23.9883 48.1681 23.9883C48.1713 23.9883 48.1744 23.9883 48.1776 23.9883C48.1808 23.9883 48.184 23.9883 48.1872 23.9883C48.1903 23.9883 48.1935 23.9883 48.1967 23.9883C48.1999 23.9883 48.203 23.9883 48.2062 23.9883C48.2094 23.9883 48.2126 23.9883 48.2157 23.9883C48.2189 23.9883 48.2221 23.9883 48.2253 23.9883C48.2284 23.9883 48.2316 23.9883 48.2348 23.9883C48.238 23.9883 48.2411 23.9883 48.2443 23.9883C48.2475 23.9883 48.2506 23.9883 48.2538 23.9883C48.257 23.9883 48.2602 23.9883 48.2633 23.9883C48.2665 23.9883 48.2697 23.9883 48.2728 23.9883C48.276 23.9883 48.2792 23.9883 48.2823 23.9883C48.2855 23.9883 48.2887 23.9883 48.2918 23.9883C48.295 23.9883 48.2982 23.9883 48.3013 23.9883C48.3045 23.9883 48.3077 23.9883 48.3108 23.9883C48.314 23.9883 48.3172 23.9883 48.3203 23.9883C48.3235 23.9883 48.3266 23.9883 48.3298 23.9883C48.333 23.9883 48.3361 23.9883 48.3393 23.9883C48.3425 23.9883 48.3456 23.9883 48.3488 23.9883C48.3519 23.9883 48.3551 23.9883 48.3582 23.9883C48.3614 23.9883 48.3646 23.9883 48.3677 23.9883C48.3709 23.9883 48.374 23.9883 48.3772 23.9883C48.3803 23.9883 48.3835 23.9883 48.3866 23.9883C48.3898 23.9883 48.3929 23.9883 48.3961 23.9883C48.3992 23.9883 48.4024 23.9883 48.4055 23.9883C48.4087 23.9883 48.4118 23.9883 48.415 23.9883C48.4181 23.9883 48.4213 23.9883 48.4244 23.9883C48.4276 23.9883 48.4307 23.9883 48.4338 23.9883C48.437 23.9883 48.4401 23.9883 48.4433 23.9883C48.4464 23.9883 48.4496 23.9883 48.4527 23.9883C48.4558 23.9883 48.459 23.9883 48.4621 23.9883C48.4652 23.9883 48.4684 23.9883 48.4715 23.9883C48.4746 23.9883 48.4778 23.9883 48.4809 23.9883C48.484 23.9883 48.4872 23.9883 48.4903 23.9883C48.4934 23.9883 48.4966 23.9883 48.4997 23.9883C48.5028 23.9883 48.506 23.9883 48.5091 23.9883C48.5122 23.9883 48.5153 23.9883 48.5185 23.9883C48.5216 23.9883 48.5247 23.9883 48.5278 23.9883C48.5309 23.9883 48.5341 23.9883 48.5372 23.9883C48.5403 23.9883 48.5434 23.9883 48.5465 23.9883C48.5497 23.9883 48.5528 23.9883 48.5559 23.9883C48.559 23.9883 48.5621 23.9883 48.5652 23.9883C48.5683 23.9883 48.5714 23.9883 48.5746 23.9883C48.5777 23.9883 48.5808 23.9883 48.5839 23.9883C48.587 23.9883 48.5901 23.9883 48.5932 23.9883C48.5963 23.9883 48.5994 23.9883 48.6025 23.9883C48.6056 23.9883 48.6087 23.9883 48.6118 23.9883C48.6149 23.9883 48.618 23.9883 48.6211 23.9883C48.6242 23.9883 48.6273 23.9883 48.6304 23.9883C48.6335 23.9883 48.6366 23.9883 48.6397 23.9883C48.6427 23.9883 48.6458 23.9883 48.6489 23.9883C48.652 23.9883 48.6551 23.9883 48.6582 23.9883C48.6613 23.9883 48.6643 23.9883 48.6674 23.9883C48.6705 23.9883 48.6736 23.9883 48.6767 23.9883C48.6797 23.9883 48.6828 23.9883 48.6859 23.9883C48.689 23.9883 48.692 23.9883 48.6951 23.9883C48.6982 23.9883 48.7013 23.9883 48.7043 23.9883C48.7074 23.9883 48.7105 23.9883 48.7135 23.9883C48.7166 23.9883 48.7197 23.9883 48.7227 23.9883C48.7258 23.9883 48.7288 23.9883 48.7319 23.9883C48.735 23.9883 48.738 23.9883 48.7411 23.9883C48.7441 23.9883 48.7472 23.9883 48.7502 23.9883C48.7533 23.9883 48.7563 23.9883 48.7594 23.9883C48.7624 23.9883 48.7655 23.9883 48.7685 23.9883C48.7716 23.9883 48.7746 23.9883 48.7777 23.9883C48.7807 23.9883 48.7837 23.9883 48.7868 23.9883C48.7898 23.9883 48.7928 23.9883 48.7959 23.9883C48.7989 23.9883 48.8019 23.9883 48.805 23.9883C48.808 23.9883 48.811 23.9883 48.8141 23.9883C48.8171 23.9883 48.8201 23.9883 48.8231 23.9883C48.8262 23.9883 48.8292 23.9883 48.8322 23.9883C48.8352 23.9883 48.8382 23.9883 48.8413 23.9883C48.8443 23.9883 48.8473 23.9883 48.8503 23.9883C48.8533 23.9883 48.8563 23.9883 48.8593 23.9883C48.8623 23.9883 48.8653 23.9883 48.8683 23.9883C48.8713 23.9883 48.8743 23.9883 48.8773 23.9883C48.8803 23.9883 48.8833 23.9883 48.8863 23.9883C48.8893 23.9883 48.8923 23.9883 48.8953 23.9883C48.8983 23.9883 48.9013 23.9883 48.9043 23.9883C48.9073 23.9883 48.9103 23.9883 48.9132 23.9883C48.9162 23.9883 48.9192 23.9883 48.9222 23.9883C48.9252 23.9883 48.9281 23.9883 48.9311 23.9883C48.9341 23.9883 48.9371 23.9883 48.94 23.9883C48.943 23.9883 48.946 23.9883 48.9489 23.9883C48.9519 23.9883 48.9549 23.9883 48.9578 23.9883C48.9608 23.9883 48.9637 23.9883 48.9667 23.9883C48.9697 23.9883 48.9726 23.9883 48.9756 23.9883C48.9785 23.9883 48.9815 23.9883 48.9844 23.9883C48.9874 23.9883 48.9903 23.9883 48.9932 23.9883C48.9962 23.9883 48.9991 23.9883 49.0021 23.9883C49.005 23.9883 49.0079 23.9883 49.0109 23.9883C49.0138 23.9883 49.0167 23.9883 49.0197 23.9883C49.0226 23.9883 49.0255 23.9883 49.0284 23.9883C49.0314 23.9883 49.0343 23.9883 49.0372 23.9883C49.0401 23.9883 49.043 23.9883 49.046 23.9883C49.0489 23.9883 49.0518 23.9883 49.0547 23.9883C49.0576 23.9883 49.0605 23.9883 49.0634 23.9883C49.0663 23.9883 49.0692 23.9883 49.0721 23.9883C49.075 23.9883 49.0779 23.9883 49.0808 23.9883C49.0837 23.9883 49.0866 23.9883 49.0895 23.9883C49.0924 23.9883 49.0953 23.9883 49.0981 23.9883C49.101 23.9883 49.1039 23.9883 49.1068 23.9883C49.1097 23.9883 49.1125 23.9883 49.1154 23.9883C49.1183 23.9883 49.1212 23.9883 49.124 23.9883C49.1269 23.9883 49.1298 23.9883 49.1326 23.9883C49.1355 23.9883 49.1383 23.9883 49.1412 23.9883C49.1441 23.9883 49.1469 23.9883 49.1498 23.9883C49.1526 23.9883 49.1555 23.9883 49.1583 23.9883C49.1612 23.9883 49.164 23.9883 49.1668 23.9883C49.1697 23.9883 49.1725 23.9883 49.1754 23.9883C49.1782 23.9883 49.181 23.9883 49.1839 23.9883C49.1867 23.9883 49.1895 23.9883 49.1923 23.9883C49.1952 23.9883 49.198 23.9883 49.2008 23.9883C49.2036 23.9883 49.2064 23.9883 49.2092 23.9883C49.2121 23.9883 49.2149 23.9883 49.2177 23.9883C49.2205 23.9883 49.2233 23.9883 49.2261 23.9883C49.2289 23.9883 49.2317 23.9883 49.2345 23.9883C49.2373 23.9883 49.2401 23.9883 49.2429 23.9883C49.2456 23.9883 49.2484 23.9883 49.2512 23.9883C49.254 23.9883 49.2568 23.9883 49.2596 23.9883C49.2623 23.9883 49.2651 23.9883 49.2679 23.9883C49.2706 23.9883 49.2734 23.9883 49.2762 23.9883C49.2789 23.9883 49.2817 23.9883 49.2845 23.9883C49.2872 23.9883 49.29 23.9883 49.2927 23.9883C49.2955 23.9883 49.2982 23.9883 49.301 23.9883C49.3037 23.9883 49.3065 23.9883 49.3092 23.9883C49.312 23.9883 49.3147 23.9883 49.3174 23.9883C49.3202 23.9883 49.3229 23.9883 49.3256 23.9883C49.3283 23.9883 49.3311 23.9883 49.3338 23.9883C49.3365 23.9883 49.3392 23.9883 49.3419 23.9883C49.3447 23.9883 49.3474 23.9883 49.3501 23.9883C49.3528 23.9883 49.3555 23.9883 49.3582 23.9883C49.3609 23.9883 49.3636 23.9883 49.3663 23.9883C49.369 23.9883 49.3717 23.9883 49.3744 23.9883C49.377 23.9883 49.3797 23.9883 49.3824 23.9883C49.3851 23.9883 49.3878 23.9883 49.3904 23.9883C49.3931 23.9883 49.3958 23.9883 49.3985 23.9883C49.4011 23.9883 49.4038 23.9883 49.4065 23.9883C49.4091 23.9883 49.4118 23.9883 49.4144 23.9883C49.4171 23.9883 49.4197 23.9883 49.4224 23.9883C49.425 23.9883 49.4277 23.9883 49.4303 23.9883C49.4329 23.9883 49.4356 23.9883 49.4382 23.9883C49.4409 23.9883 49.4435 23.9883 49.4461 23.9883C49.4487 23.9883 49.4514 23.9883 49.454 23.9883C49.4566 23.9883 49.4592 23.9883 49.4618 23.9883C49.4644 23.9883 49.467 23.9883 49.4696 23.9883C49.4723 23.9883 49.4749 23.9883 49.4775 23.9883C49.4801 23.9883 49.4826 23.9883 49.4852 23.9883C49.4878 23.9883 49.4904 23.9883 49.493 23.9883C49.4956 23.9883 49.4982 23.9883 49.5007 23.9883C49.5033 23.9883 49.5059 23.9883 49.5084 23.9883C49.511 23.9883 49.5136 23.9883 49.5161 23.9883C49.5187 23.9883 49.5213 23.9883 49.5238 23.9883C49.5264 23.9883 49.5289 23.9883 49.5315 23.9883C49.534 23.9883 49.5365 23.9883 49.5391 23.9883C49.5416 23.9883 49.5442 23.9883 49.5467 23.9883C49.5492 23.9883 49.5517 23.9883 49.5543 23.9883C49.5568 23.9883 49.5593 23.9883 49.5618 23.9883C49.5643 23.9883 49.5669 23.9883 49.5694 23.9883C49.5719 23.9883 49.5744 23.9883 49.5769 23.9883C49.5794 23.9883 49.5819 23.9883 49.5844 23.9883C49.5869 23.9883 49.5893 23.9883 49.5918 23.9883C49.5943 23.9883 49.5968 23.9883 49.5993 23.9883C49.6017 23.9883 49.6042 23.9883 49.6067 23.9883C49.6091 23.9883 49.6116 23.9883 49.6141 23.9883C49.6165 23.9883 49.619 23.9883 49.6214 23.9883C49.6239 23.9883 49.6263 23.9883 49.6288 23.9883C49.6312 23.9883 49.6337 23.9883 49.6361 23.9883C49.6385 23.9883 49.641 23.9883 49.6434 23.9883C49.6458 23.9883 49.6482 23.9883 49.6507 23.9883C49.6531 23.9883 49.6555 23.9883 49.6579 23.9883C49.6603 23.9883 49.6627 23.9883 49.6651 23.9883C49.6675 23.9883 49.6699 23.9883 49.6723 23.9883C49.6747 23.9883 49.6771 23.9883 49.6795 23.9883C49.6819 23.9883 49.6843 23.9883 49.6866 23.9883C49.689 23.9883 49.6914 23.9883 49.6937 23.9883C49.6961 23.9883 49.6985 23.9883 49.7008 23.9883C49.7032 23.9883 49.7056 23.9883 49.7079 23.9883C49.7103 23.9883 49.7126 23.9883 49.7149 23.9883C49.7173 23.9883 49.7196 23.9883 49.722 23.9883C49.7243 23.9883 49.7266 23.9883 49.7289 23.9883C49.7313 23.9883 49.7336 23.9883 49.7359 23.9883C49.7382 23.9883 49.7405 23.9883 49.7428 23.9883C49.7452 23.9883 49.7475 23.9883 49.7498 23.9883C49.7521 23.9883 49.7543 23.9883 49.7566 23.9883C49.7589 23.9883 49.7612 23.9883 49.7635 23.9883C49.7658 23.9883 49.768 23.9883 49.7703 23.9883C49.7726 23.9883 49.7749 23.9883 49.7771 23.9883C49.7794 23.9883 49.7816 23.9883 49.7839 23.9883C49.7861 23.9883 49.7884 23.9883 49.7906 23.9883C49.7929 23.9883 49.7951 23.9883 49.7974 23.9883C49.7996 23.9883 49.8018 23.9883 49.804 23.9883C49.8063 23.9883 49.8085 23.9883 49.8107 23.9883C49.8129 23.9883 49.8151 23.9883 49.8173 23.9883C49.8196 23.9883 49.8218 23.9883 49.824 23.9883C49.8262 23.9883 49.8283 23.9883 49.8305 23.9883C49.8327 23.9883 49.8349 23.9883 49.8371 23.9883C49.8393 23.9883 49.8414 23.9883 49.8436 23.9883C49.8458 23.9883 49.8479 23.9883 49.8501 23.9883C49.8523 23.9883 49.8544 23.9883 49.8566 23.9883C49.8587 23.9883 49.8609 23.9883 49.863 23.9883C49.8651 23.9883 49.8673 23.9883 49.8694 23.9883C49.8715 23.9883 49.8737 23.9883 49.8758 23.9883C49.8779 23.9883 49.88 23.9883 49.8821 23.9883C49.8842 23.9883 49.8863 23.9883 49.8885 23.9883C49.8906 23.9883 49.8926 23.9883 49.8947 23.9883C49.8968 23.9883 49.8989 23.9883 49.901 23.9883C49.9031 23.9883 49.9052 23.9883 49.9072 23.9883C49.9093 23.9883 49.9114 23.9883 49.9134 23.9883C49.9155 23.9883 49.9175 23.9883 49.9196 23.9883C49.9216 23.9883 49.9237 23.9883 49.9257 23.9883C49.9278 23.9883 49.9298 23.9883 49.9318 23.9883C49.9339 23.9883 49.9359 23.9883 49.9379 23.9883C49.9399 23.9883 49.942 23.9883 49.944 23.9883C49.946 23.9883 49.948 23.9883 49.95 23.9883C49.952 23.9883 49.954 23.9883 49.956 23.9883C49.958 23.9883 49.96 23.9883 49.9619 23.9883C49.9639 23.9883 49.9659 23.9883 49.9679 23.9883C49.9698 23.9883 49.9718 23.9883 49.9737 23.9883C49.9757 23.9883 49.9777 23.9883 49.9796 23.9883C49.9816 23.9883 49.9835 23.9883 49.9854 23.9883C49.9874 23.9883 49.9893 23.9883 49.9912 23.9883C49.9932 23.9883 49.9951 23.9883 49.997 23.9883C49.9989 23.9883 50.0008 23.9883 50.0027 23.9883C50.0046 23.9883 50.0065 23.9883 50.0084 23.9883C50.0103 23.9883 50.0122 23.9883 50.0141 23.9883C50.016 23.9883 50.0179 23.9883 50.0197 23.9883C50.0216 23.9883 50.0235 23.9883 50.0253 23.9883C50.0272 23.9883 50.0291 23.9883 50.0309 23.9883C50.0328 23.9883 50.0346 23.9883 50.0365 23.9883C50.0383 23.9883 50.0401 23.9883 50.042 23.9883C50.0438 23.9883 50.0456 23.9883 50.0474 23.9883C50.0493 23.9883 50.0511 23.9883 50.0529 23.9883C50.0547 23.9883 50.0565 23.9883 50.0583 23.9883C50.0601 23.9883 50.0619 23.9883 50.0637 23.9883C50.0654 23.9883 50.0672 23.9883 50.069 23.9883C50.0708 23.9883 50.0725 23.9883 50.0743 23.9883C50.0761 23.9883 50.0778 23.9883 50.0796 23.9883C50.0813 23.9883 50.0831 23.9883 50.0848 23.9883C50.0865 23.9883 50.0883 23.9883 50.09 23.9883C50.0917 23.9883 50.0935 23.9883 50.0952 23.9883C50.0969 23.9883 50.0986 23.9883 50.1003 23.9883C50.102 23.9883 50.1037 23.9883 50.1054 23.9883C50.1071 23.9883 50.1088 23.9883 50.1105 23.9883C50.1122 23.9883 50.1138 23.9883 50.1155 23.9883C50.1172 23.9883 50.1188 23.9883 50.1205 23.9883C50.1222 23.9883 50.1238 23.9883 50.1255 23.9883C50.1271 23.9883 50.1288 23.9883 50.1304 23.9883C50.132 23.9883 50.1337 23.9883 50.1353 23.9883C50.1369 23.9883 50.1385 23.9883 50.1401 23.9883C50.1417 23.9883 50.1434 23.9883 50.145 23.9883C50.1466 23.9883 50.1481 23.9883 50.1497 23.9883C50.1513 23.9883 50.1529 23.9883 50.1545 23.9883C50.1561 23.9883 50.1576 23.9883 50.1592 23.9883C50.1608 23.9883 50.1623 23.9883 50.1639 23.9883C50.1654 23.9883 50.167 23.9883 50.1685 23.9883C50.17 23.9883 50.1716 23.9883 50.1731 23.9883C50.1746 23.9883 50.1762 23.9883 50.1777 23.9883C50.1792 23.9883 50.1807 23.9883 50.1822 23.9883C50.1837 23.9883 50.1852 23.9883 50.1867 23.9883C50.1882 23.9883 50.1897 23.9883 50.1912 23.9883C50.1926 23.9883 50.1941 23.9883 50.1956 23.9883C50.197 23.9883 50.1985 23.9883 50.2 23.9883C50.2014 23.9883 50.2029 23.9883 50.2043 23.9883C50.2057 23.9883 50.2072 23.9883 50.2086 23.9883C50.21 23.9883 50.2115 23.9883 50.2129 23.9883C50.2143 23.9883 50.2157 23.9883 50.2171 23.9883C50.2185 23.9883 50.2199 23.9883 50.2213 23.9883C50.2227 23.9883 50.2241 23.9883 50.2254 23.9883C50.2268 23.9883 50.2282 23.9883 50.2296 23.9883C50.2309 23.9883 50.2323 23.9883 50.2336 23.9883C50.235 23.9883 50.2363 23.9883 50.2377 23.9883C50.239 23.9883 50.2404 23.9883 50.2417 23.9883C50.243 23.9883 50.2443 23.9883 50.2456 23.9883C50.247 23.9883 50.2483 23.9883 50.2496 23.9883C50.2509 23.9883 50.2522 23.9883 50.2534 23.9883C50.2547 23.9883 50.256 23.9883 50.2573 23.9883C50.2586 23.9883 50.2598 23.9883 50.2611 23.9883C50.2624 23.9883 50.2636 23.9883 50.2649 23.9883C50.2661 23.9883 50.2674 23.9883 50.2686 23.9883C50.2698 23.9883 50.2711 23.9883 50.2723 23.9883C50.2735 23.9883 50.2747 23.9883 50.2759 23.9883C50.2771 23.9883 50.2783 23.9883 50.2795 23.9883C50.2807 23.9883 50.2819 23.9883 50.2831 23.9883C50.2843 23.9883 50.2855 23.9883 50.2866 23.9883C50.2878 23.9883 50.289 23.9883 50.2901 23.9883C50.2913 23.9883 50.2924 23.9883 50.2936 23.9883C50.2947 23.9883 50.2958 23.9883 50.297 23.9883C50.2981 23.9883 50.2992 23.9883 50.3003 23.9883C50.3014 23.9883 50.3025 23.9883 50.3037 23.9883C50.3048 23.9883 50.3058 23.9883 50.3069 23.9883C50.308 23.9883 50.3091 23.9883 50.3102 23.9883C50.3112 23.9883 50.3123 23.9883 50.3134 23.9883C50.3144 23.9883 50.3155 23.9883 50.3165 23.9883C50.3176 23.9883 50.3186 23.9883 50.3197 23.9883C50.3207 23.9883 50.3217 23.9883 50.3227 23.9883C50.3237 23.9883 50.3248 23.9883 50.3258 23.9883C50.3268 23.9883 50.3278 23.9883 50.3288 23.9883C50.3297 23.9883 50.3307 23.9883 50.3317 23.9883C50.3327 23.9883 50.3336 23.9883 50.3346 23.9883C50.3356 23.9883 50.3365 23.9883 50.3375 23.9883C50.3384 23.9883 50.3394 23.9883 50.3403 23.9883C50.3412 23.9883 50.3422 23.9883 50.3431 23.9883C50.344 23.9883 50.3449 23.9883 50.3458 23.9883C50.3467 23.9883 50.3476 23.9883 50.3485 23.9883C50.3494 23.9883 50.3503 23.9883 50.3512 23.9883C50.352 23.9883 50.3529 23.9883 50.3538 23.9883C50.3546 23.9883 50.3555 23.9883 50.3563 23.9883C50.3572 23.9883 50.358 23.9883 50.3589 23.9883C50.3597 23.9883 50.3605 23.9883 50.3613 23.9883C50.3621 23.9883 50.363 23.9883 50.3638 23.9883C50.3646 23.9883 50.3654 23.9883 50.3662 23.9883C50.3669 23.9883 50.3677 23.9883 50.3685 23.9883C50.3693 23.9883 50.37 23.9883 50.3708 23.9883C50.3716 23.9883 50.3723 23.9883 50.3731 23.9883C50.3738 23.9883 50.3745 23.9883 50.3753 23.9883C50.376 23.9883 50.3767 23.9883 50.3774 23.9883C50.3782 23.9883 50.3789 23.9883 50.3796 23.9883C50.3803 23.9883 50.381 23.9883 50.3816 23.9883C50.3823 23.9883 50.383 23.9883 50.3837 23.9883C50.3843 23.9883 50.385 23.9883 50.3857 23.9883C50.3863 23.9883 50.387 23.9883 50.3876 23.9883C50.3883 23.9883 50.3889 23.9883 50.3895 23.9883C50.3901 23.9883 50.3908 23.9883 50.3914 23.9883C50.392 23.9883 50.3926 23.9883 50.3932 23.9883C50.3938 23.9883 50.3944 23.9883 50.3949 23.9883C50.3955 23.9883 50.3961 23.9883 50.3966 23.9883C50.3972 23.9883 50.3978 23.9883 50.3983 23.9883C50.3989 23.9883 50.3994 23.9883 50.3999 23.9883C50.4005 23.9883 50.401 23.9883 50.4015 23.9883C50.402 23.9883 50.4025 23.9883 50.4031 23.9883C50.4036 23.9883 50.404 23.9883 50.4045 23.9883C50.405 23.9883 50.4055 23.9883 50.406 23.9883C50.4064 23.9883 50.4069 23.9883 50.4074 23.9883C50.4078 23.9883 50.4083 23.9883 50.4087 23.9883C50.4091 23.9883 50.4096 23.9883 50.41 23.9883C50.4104 23.9883 50.4108 23.9883 50.4113 23.9883C50.4117 23.9883 50.4121 23.9883 50.4125 23.9883C50.4129 23.9883 50.4132 23.9883 50.4136 23.9883C50.414 23.9883 50.4144 23.9883 50.4147 23.9883C50.4151 23.9883 50.4154 23.9883 50.4158 23.9883C50.4161 23.9883 50.4165 23.9883 50.4168 23.9883C50.4171 23.9883 50.4174 23.9883 50.4178 23.9883C50.4181 23.9883 50.4184 23.9883 50.4187 23.9883C50.419 23.9883 50.4193 23.9883 50.4195 23.9883C50.4198 23.9883 50.4201 23.9883 50.4204 23.9883C50.4206 23.9883 50.4209 23.9883 50.4211 23.9883C50.4214 23.9883 50.4216 23.9883 50.4218 23.9883C50.4221 23.9883 50.4223 23.9883 50.4225 23.9883C50.4227 23.9883 50.4229 23.9883 50.4231 23.9883C50.4233 23.9883 50.4235 23.9883 50.4237 23.9883C50.4239 23.9883 50.4241 23.9883 50.4242 23.9883C50.4244 23.9883 50.4246 23.9883 50.4247 23.9883C50.4249 23.9883 50.425 23.9883 50.4251 23.9883C50.4253 23.9883 50.4254 23.9883 50.4255 23.9883C50.4256 23.9883 50.4257 23.9883 50.4258 23.9883C50.4259 23.9883 50.426 23.9883 50.4261 23.9883C50.4262 23.9883 50.4263 23.9883 50.4264 23.9883C50.4264 23.9883 50.4265 23.9883 50.4265 23.9883C50.4266 23.9883 50.4266 23.9883 50.4267 23.9883C50.4267 23.9883 50.4267 23.9883 50.4267 23.9883C50.4267 23.9883 50.4268 23.9883 50.4268 24.4883ZM50.8176 44.552C47.8289 48.297 43.2309 50.6962 38.0695 50.6962V49.6962C42.9135 49.6962 47.2287 47.446 50.036 43.9283L50.8176 44.552ZM38.0695 50.6962C32.9081 50.6962 28.3101 48.297 25.3214 44.552L26.103 43.9283C28.9103 47.446 33.2255 49.6962 38.0695 49.6962V50.6962ZM25.7122 43.7402H29.3476V44.7402H25.7122V43.7402Z" fill="white"/>
<defs>
<filter id="filter0_d" x="0" y="0" width="76" height="76" filterUnits="userSpaceOnUse" color-interpolation-filters="sRGB">
<feFlood flood-opacity="0" result="BackgroundImageFix"/>
<feColorMatrix in="SourceAlpha" type="matrix" values="0 0 0 0 0 0 0 0 0 0 0 0 0 0 0 0 0 0 127 0"/>
<feOffset dy="4"/>
<feGaussianBlur stdDeviation="2.5"/>
<feColorMatrix type="matrix" values="0 0 0 0 0.345098 0 0 0 0 0.737255 0 0 0 0 0.960784 0 0 0 0.25 0"/>
<feBlend mode="normal" in2="BackgroundImageFix" result="effect1_dropShadow"/>
<feBlend mode="normal" in="SourceGraphic" in2="effect1_dropShadow" result="shape"/>
</filter>
<linearGradient id="paint0_linear" x1="14.5" y1="1" x2="56.5" y2="67" gradientUnits="userSpaceOnUse">
<stop stop-color="#2D9CDB"/>
<stop offset="1" stop-color="#58BCF5"/>
</linearGradient>
</defs>
</svg>
